STARTFONT 2.1
FONT -HP-Mincho-Medium-R-Normal--40-400-75-75-C-400-JISX0212.1990-0
SIZE 40 75 75
FONTBOUNDINGBOX 40 40 0 -6

STARTPROPERTIES 23
FONTNAME_REGISTRY ""
FOUNDRY "HP"
FAMILY_NAME "Mincho"
WEIGHT_NAME "Medium"
SLANT "R"
SETWIDTH_NAME "Normal"
ADD_STYLE_NAME ""
PIXEL_SIZE 40
POINT_SIZE 400
RESOLUTION_X 75
RESOLUTION_Y 75
SPACING "C"
AVERAGE_WIDTH 400
CHARSET_REGISTRY "JISX0212.1990"
CHARSET_ENCODING "0"
COPYRIGHT "Copyright 1994 by Bridge Inc. Copyright (c) 1994 Hewlett-Packard Company.  Magnified by HP from 24x24 to 40x40. "
_HP_ASXVERSION "@(#) ASX 3.00 $Revision: 13.9 $ minX40s"
WEIGHT 10
X_HEIGHT 34
QUAD_WIDTH 40
DEFAULT_CHAR 8481
FONT_DESCENT 6
FONT_ASCENT 34
ENDPROPERTIES

CHARS 6068

STARTCHAR jisx0212_2121
ENCODING 8481
SWIDTH 960 0
DWIDTH 40 0
BBX 40 40 0 -6
BITMAP
0000000000
0000000000
300000000C
0000000000
0000000000
0000000000
0000000000
0000000000
0000000000
0000000000
0000000000
0000000000
0000000000
0000000000
0000000000
0000000000
0000000000
0000000000
0000000000
0000000000
0000000000
0000000000
0000000000
0000000000
0000000000
0000000000
0000000000
0000000000
0000000000
0000000000
0000000000
0000000000
0000000000
0000000000
0000000000
0000000000
0000000000
300000000C
0000000000
0000000000
ENDCHAR

STARTCHAR jisx0212_222F
ENCODING 8751
SWIDTH 960 0
DWIDTH 40 0
BBX 40 40 0 -6
BITMAP
0008001000
000C003000
000E007000
0007FFE000
0007FFE000
0001FF8000
0001FF8000
0000000000
0000000000
0000000000
0000000000
0000000000
0000000000
0000000000
0000000000
0000000000
0000000000
0000000000
0000000000
0000000000
0000000000
0000000000
0000000000
0000000000
0000000000
0000000000
0000000000
0000000000
0000000000
0000000000
0000000000
0000000000
0000000000
0000000000
0000000000
0000000000
0000000000
0000000000
0000000000
0000000000
ENDCHAR

STARTCHAR jisx0212_2230
ENCODING 8752
SWIDTH 960 0
DWIDTH 40 0
BBX 40 40 0 -6
BITMAP
000E01E000
000E01C000
0007838000
0001FF0000
0001FE0000
00007C0000
0000780000
0000000000
0000000000
0000000000
0000000000
0000000000
0000000000
0000000000
0000000000
0000000000
0000000000
0000000000
0000000000
0000000000
0000000000
0000000000
0000000000
0000000000
0000000000
0000000000
0000000000
0000000000
0000000000
0000000000
0000000000
0000000000
0000000000
0000000000
0000000000
0000000000
0000000000
0000000000
0000000000
0000000000
ENDCHAR

STARTCHAR jisx0212_2231
ENCODING 8753
SWIDTH 960 0
DWIDTH 40 0
BBX 40 40 0 -6
BITMAP
0000000000
0000000000
0000000000
0000000000
0000000000
0000000000
0000000000
0000000000
0000000000
0000000000
0000000000
0000000000
0000000000
0000000000
0000000000
0000000000
0000000000
0000000000
0000000000
0000000000
0000000000
0000000000
0000000000
0000000000
0000000000
0000000000
0000000000
0000000000
0000080000
00000C0000
00000C0000
00000C0000
00003C0000
00003E0000
00003E0000
0000038000
0000038000
0007838000
0001FF0000
0001FE0000
ENDCHAR

STARTCHAR jisx0212_2232
ENCODING 8754
SWIDTH 960 0
DWIDTH 40 0
BBX 40 40 0 -6
BITMAP
00003C0000
00003C0000
00007E0000
00007E0000
00007E0000
00003C0000
0000180000
0000000000
0000000000
0000000000
0000000000
0000000000
0000000000
0000000000
0000000000
0000000000
0000000000
0000000000
0000000000
0000000000
0000000000
0000000000
0000000000
0000000000
0000000000
0000000000
0000000000
0000000000
0000000000
0000000000
0000000000
0000000000
0000000000
0000000000
0000000000
0000000000
0000000000
0000000000
0000000000
0000000000
ENDCHAR

STARTCHAR jisx0212_2233
ENCODING 8755
SWIDTH 960 0
DWIDTH 40 0
BBX 40 40 0 -6
BITMAP
0001C07000
0001E07800
0001F07C00
0003E0F800
0007C1F000
000781E000
000701C000
000E038000
000C030000
0008020000
0000000000
0000000000
0000000000
0000000000
0000000000
0000000000
0000000000
0000000000
0000000000
0000000000
0000000000
0000000000
0000000000
0000000000
0000000000
0000000000
0000000000
0000000000
0000000000
0000000000
0000000000
0000000000
0000000000
0000000000
0000000000
0000000000
0000000000
0000000000
0000000000
0000000000
ENDCHAR

STARTCHAR jisx0212_2234
ENCODING 8756
SWIDTH 960 0
DWIDTH 40 0
BBX 40 40 0 -6
BITMAP
003FFFFC00
003FFFFC00
0000000000
0000000000
0000000000
0000000000
0000000000
0000000000
0000000000
0000000000
0000000000
0000000000
0000000000
0000000000
0000000000
0000000000
0000000000
0000000000
0000000000
0000000000
0000000000
0000000000
0000000000
0000000000
0000000000
0000000000
0000000000
0000000000
0000000000
0000000000
0000000000
0000000000
0000000000
0000000000
0000000000
0000000000
0000000000
0000000000
0000000000
0000000000
ENDCHAR

STARTCHAR jisx0212_2235
ENCODING 8757
SWIDTH 960 0
DWIDTH 40 0
BBX 40 40 0 -6
BITMAP
0000000000
0000000000
0000000000
0000000000
0000000000
0000000000
0000000000
0000000000
0000000000
0000000000
0000000000
0000000000
0000000000
0000000000
0000000000
0000000000
0000000000
0000000000
0000000000
0000000000
0000000000
0000000000
0000000000
0000000000
0000000000
0000000000
0000000000
0000000000
0000007000
0000007000
000001E000
000001C000
0000038000
0000030000
0000020000
0000020F00
0000030F00
000003FF00
000001FC00
000001FC00
ENDCHAR

STARTCHAR jisx0212_2236
ENCODING 8758
SWIDTH 960 0
DWIDTH 40 0
BBX 40 40 0 -6
BITMAP
00007C0000
0000FC0000
0001CE0000
0001860000
0001820000
0001CE0000
0001EE0000
00007C0000
0000000000
0000000000
0000000000
0000000000
0000000000
0000000000
0000000000
0000000000
0000000000
0000000000
0000000000
0000000000
0000000000
0000000000
0000000000
0000000000
0000000000
0000000000
0000000000
0000000000
0000000000
0000000000
0000000000
0000000000
0000000000
0000000000
0000000000
0000000000
0000000000
0000000000
0000000000
0000000000
ENDCHAR

STARTCHAR jisx0212_2237
ENCODING 8759
SWIDTH 960 0
DWIDTH 40 0
BBX 40 40 0 -6
BITMAP
0007C00C00
0007E00C00
000FFC1C00
003C3FF800
00383FF000
003003E000
002003C000
0000000000
0000000000
0000000000
0000000000
0000000000
0000000000
0000000000
0000000000
0000000000
0000000000
0000000000
0000000000
0000000000
0000000000
0000000000
0000000000
0000000000
0000000000
0000000000
0000000000
0000000000
0000000000
0000000000
0000000000
0000000000
0000000000
0000000000
0000000000
0000000000
0000000000
0000000000
0000000000
0000000000
ENDCHAR

STARTCHAR jisx0212_2238
ENCODING 8760
SWIDTH 960 0
DWIDTH 40 0
BBX 40 40 0 -6
BITMAP
0000300000
0000300000
00007C0000
00007C0000
00007C0000
00007C0000
0000780000
0000300000
0000300000
0000300000
0000300000
0000100000
0000000000
0000000000
0000000000
0000000000
0000000000
0000000000
0000000000
0000000000
0000000000
0000000000
0000000000
0000000000
0000000000
0000000000
0000000000
0000000000
0000000000
0000000000
0000000000
0000000000
0000000000
0000000000
0000000000
0000000000
0000000000
0000000000
0000000000
0000000000
ENDCHAR

STARTCHAR jisx0212_2239
ENCODING 8761
SWIDTH 960 0
DWIDTH 40 0
BBX 40 40 0 -6
BITMAP
0000300000
0000300000
00007C0000
00007C0000
00007C0000
00007C0000
0000780000
0000300000
0000300000
0000300000
0000300000
0000100000
0000000000
000E00C000
000E01E000
003F83F000
003F03F000
000E01E000
0000000000
0000000000
0000000000
0000000000
0000000000
0000000000
0000000000
0000000000
0000000000
0000000000
0000000000
0000000000
0000000000
0000000000
0000000000
0000000000
0000000000
0000000000
0000000000
0000000000
0000000000
0000000000
ENDCHAR

STARTCHAR jisx0212_2242
ENCODING 8770
SWIDTH 960 0
DWIDTH 40 0
BBX 40 40 0 -6
BITMAP
0000000000
0000000000
0000000000
0000700000
0000700000
0001FC0000
0001F80000
0000700000
0000000000
0000000000
0000000000
0000000000
0000300000
0000300000
0000300000
0000300000
0000300000
0000300000
0000300000
0000300000
0000300000
0000300000
00007C0000
00007C0000
00007C0000
00007C0000
00007C0000
00007C0000
00007C0000
00007C0000
00007C0000
00007C0000
00007C0000
00007C0000
00007C0000
0000300000
0000100000
0000000000
0000000000
0000000000
ENDCHAR

STARTCHAR jisx0212_2243
ENCODING 8771
SWIDTH 960 0
DWIDTH 40 0
BBX 40 40 0 -6
BITMAP
00003C0000
00003C0000
00003C0000
00003C0000
00003C0000
00003C0000
00003C0000
00003C0000
00003C0000
00003C0000
00003C0000
00003C0000
00003C0000
00003C0000
00003C0000
00003C0000
0000180000
0000000000
0000000000
0000000000
0000000000
0000000000
0000000000
0000180000
00003C0000
00003C0000
00003C0000
00003C0000
00003C0000
00003C0000
00003C0000
00003C0000
00003C0000
00003C0000
00003C0000
00003C0000
00003C0000
00003C0000
00003C0000
00003C0000
ENDCHAR

STARTCHAR jisx0212_2244
ENCODING 8772
SWIDTH 960 0
DWIDTH 40 0
BBX 40 40 0 -6
BITMAP
0000000000
0000000000
0000000000
0000180000
00003C0000
00007E0000
00007E0000
00003C0000
0000000000
0000000000
0000000000
0000000000
00000C0000
00000C0000
00000C0000
00000C0000
00000C0000
00003C0000
0000700000
0000700000
0001C00000
0001C00000
0007800000
000E000000
000E000000
000E001000
001E003800
0038007C00
0038007C00
0038007C00
0038001C00
003C001C00
000E001000
000F00F000
000F81F000
0001FF8000
0001FF8000
0000000000
0000000000
0000000000
ENDCHAR

STARTCHAR jisx0212_226B
ENCODING 8811
SWIDTH 960 0
DWIDTH 40 0
BBX 40 40 0 -6
BITMAP
0000000000
0000000000
0000000000
07FE000000
07FE000000
1E07800000
1C03800000
3801C00000
3801C00000
3801C00000
3801C00000
3801C00000
3801C00000
3801C00000
3801C00000
3801C00000
3801C00000
3801C00000
1C03800000
1E07800000
07FE000000
07FE000000
0000000000
0000000000
0000000000
FFFFF00000
FFFFF00000
0000000000
0000000000
0000000000
0000000000
0000000000
0000000000
0000000000
0000000000
0000000000
0000000000
0000000000
0000000000
0000000000
ENDCHAR

STARTCHAR jisx0212_226C
ENCODING 8812
SWIDTH 960 0
DWIDTH 40 0
BBX 40 40 0 -6
BITMAP
0000000000
0000000000
0000000000
07FE000000
07FE000000
1E07800000
1E07800000
1F07800000
0607800000
0607800000
01FF800000
03FF800000
1F07800000
3807800000
3807800000
3807800000
3807800000
3807B00000
380FF00000
380FF00000
1FF9C00000
0FF9C00000
0000000000
0000000000
0000000000
FFFFF00000
FFFFF00000
0000000000
0000000000
0000000000
0000000000
0000000000
0000000000
0000000000
0000000000
0000000000
0000000000
0000000000
0000000000
0000000000
ENDCHAR

STARTCHAR jisx0212_226D
ENCODING 8813
SWIDTH 960 0
DWIDTH 40 0
BBX 40 40 0 -6
BITMAP
0007FFE000
0007FFE000
003E007C00
01F0000F80
01F0000F80
07000000E0
07000000E0
1E00000078
18007F9018
18007F9018
3807C1F01C
3807C0F81C
200E001C04
E00E000C07
E00E000C07
C038000C03
C038000403
C038000003
C038000003
C038000003
C038000003
C038000003
C038000003
C038000403
C038000C03
E00E000C07
E00E000C07
200E001C04
3807C0F81C
3807C1F01C
18007F8018
18007F8018
1E00000078
07000000E0
07000000E0
01F0000F80
01F0000F80
003E007C00
0007FFE000
0007FFE000
ENDCHAR

STARTCHAR jisx0212_226E
ENCODING 8814
SWIDTH 960 0
DWIDTH 40 0
BBX 40 40 0 -6
BITMAP
0007FFE000
0007FFE000
003E007C00
01F0000F80
01F0000F80
07000000E0
07000000E0
1E00000078
187FFFC018
18FFFFE018
380E00701C
380E00781C
200E001C04
E00E001C07
E00E001C07
C00E001C03
C00E003C03
C00E007003
C00FFFE003
C00FFFE003
C00E038003
C00E038003
C00E01E003
C00E01E003
C00E01E003
E00E01E007
E00E01E007
200E01E004
380E00739C
380E00739C
18FFC01F18
187FC01E18
1E00000078
07000000E0
07000000E0
01F0000F80
01F0000F80
003E007C00
0007FFE000
0007FFE000
ENDCHAR

STARTCHAR jisx0212_226F
ENCODING 8815
SWIDTH 960 0
DWIDTH 40 0
BBX 40 40 0 -6
BITMAP
3FFE700F80
7FFE700F80
E1C7B00F00
C1C1B81F00
C1C1BC1F00
01C03C1F00
01C03C3F00
01C03E7F00
01C03E6F00
01C03E6F00
01C033EF00
01C033EF00
01C033EF00
01C0318F00
01C0318F00
07F07D9F80
07E0789F80
0000000000
0000000000
0000000000
0000000000
0000000000
0000000000
0000000000
0000000000
0000000000
0000000000
0000000000
0000000000
0000000000
0000000000
0000000000
0000000000
0000000000
0000000000
0000000000
0000000000
0000000000
0000000000
0000000000
ENDCHAR

STARTCHAR jisx0212_2270
ENCODING 8816
SWIDTH 960 0
DWIDTH 40 0
BBX 40 40 0 -6
BITMAP
0000000000
0000000000
0000000000
0000000000
0000000000
0600000060
0600000060
07000000E0
03C1FF83C0
01C1FF8380
00FF81FF00
007F00FE00
0038001C00
0030000C00
0030000C00
00F0000F00
00E0000700
00C0000300
00C0000300
00C0000300
00C0000300
00C0000300
00C0000300
00E0000700
00F0000F00
0030000C00
0030000C00
0038001C00
007F00FE00
00FF81FF00
01C1FF8380
03C1FF83C0
07000000E0
0600000060
0600000060
0000000000
0000000000
0000000000
0000000000
0000000000
ENDCHAR

STARTCHAR jisx0212_2271
ENCODING 8817
SWIDTH 960 0
DWIDTH 40 0
BBX 40 40 0 -6
BITMAP
0000000000
0000000000
0000000000
FC007F87F0
FE007F8FF8
1E000C1C1C
1E000C3C1E
1F000C7007
1F000C7007
1F000C7007
19C00C7007
19C00C7007
19C00C7007
18E00C7007
18F00C7007
18F00C7007
18700C7007
18380C7007
18380C3C1E
18380C1C1C
180E0C0FF8
180E0C07F0
180E0C0000
18070C0000
18078C0000
18078C0000
18038C0000
1801CC0000
1801CC0000
1801CC0000
18007C0000
18007C0000
18007C0000
18003C0000
18003C0000
FF003C0000
FF00180000
0000000000
0000000000
0000000000
ENDCHAR

STARTCHAR jisx0212_2661
ENCODING 9825
SWIDTH 960 0
DWIDTH 40 0
BBX 40 40 0 -6
BITMAP
00C0000000
00C0000000
01F0000000
01F0180000
01F03C0000
01F03C0000
01E03C0000
00C07E0000
00C06E0000
00C04E0000
00C1C38000
0041C38000
0001838000
0001838000
0001838000
000781E000
000701E000
000601E000
000E007000
000E007000
0008007000
0008007000
0008007000
0038003C00
0038001C00
0030001C00
0030003C00
00FFFFFF00
00C0000F00
00C0000F00
00C0000F00
00C0000700
01C0000380
0180000380
0100000380
1FF0001FF8
0FE0001FF0
0000000000
0000000000
0000000000
ENDCHAR

STARTCHAR jisx0212_2662
ENCODING 9826
SWIDTH 960 0
DWIDTH 40 0
BBX 40 40 0 -6
BITMAP
1800000000
1800000000
3E00000000
3E3FFFFF80
3E3FFFFF80
3E07800380
3C078003C0
18078000E0
1807800060
1807800060
1807800060
0807800020
0007800000
0007800400
0007800C00
0007800C00
0007800C00
0007801C00
0007FFFC00
0007FFFC00
0007801C00
0007801C00
0007800C00
0007800C00
0007800C00
0007800000
0007800000
0007800000
0007800010
0007800018
0007800018
0007800018
0007800078
00078000E0
00078000E0
003FFFFFE0
003FFFFFE0
0000000000
0000000000
0000000000
ENDCHAR

STARTCHAR jisx0212_2663
ENCODING 9827
SWIDTH 960 0
DWIDTH 40 0
BBX 40 40 0 -6
BITMAP
2000000000
7000000000
F800000000
F9FF0007FC
F9FF800FFC
F8380000E0
F8380000E0
20380000E0
20380000E0
20380000E0
20380000E0
20380000E0
00380000E0
00380000E0
00380000E0
00380000E0
00380000E0
00380000E0
003FFFFFE0
003FFFFFE0
00380000E0
00380000E0
00380000E0
00380000E0
00380000E0
00380000E0
00380000E0
00380000E0
00380000E0
00380000E0
00380000E0
00380000E0
00380000E0
00380000E0
00380000E0
01FF800FFC
01FF0007FC
0000000000
0000000000
0000000000
ENDCHAR

STARTCHAR jisx0212_2664
ENCODING 9828
SWIDTH 960 0
DWIDTH 40 0
BBX 40 40 0 -6
BITMAP
0008000000
001C000000
003E000000
003E1FF000
003E3FF000
003E038000
003E038000
0008038000
0008038000
0008038000
0008038000
0008038000
0000038000
0000038000
0000038000
0000038000
0000038000
0000038000
0000038000
0000038000
0000038000
0000038000
0000038000
0000038000
0000038000
0000038000
0000038000
0000038000
0000038000
0000038000
0000038000
0000038000
0000038000
0000038000
0000038000
00003FF000
00001FF000
0000000000
0000000000
0000000000
ENDCHAR

STARTCHAR jisx0212_2665
ENCODING 9829
SWIDTH 960 0
DWIDTH 40 0
BBX 40 40 0 -6
BITMAP
000781E000
000781E000
000FC3F000
000781E000
000781E000
0000000000
0000000000
0007FFE000
00003C0000
00003C0000
00003C0000
00003C0000
00003C0000
00003C0000
00003C0000
00003C0000
00003C0000
00003C0000
00003C0000
00003C0000
00003C0000
00003C0000
00003C0000
00003C0000
00003C0000
00003C0000
00003C0000
00003C0000
00003C0000
00003C0000
00003C0000
00003C0000
00003C0000
00003C0000
00003C0000
0001FF8000
0001FF8000
0000000000
0000000000
0000000000
ENDCHAR

STARTCHAR jisx0212_2667
ENCODING 9831
SWIDTH 960 0
DWIDTH 40 0
BBX 40 40 0 -6
BITMAP
1800000000
1800000000
3E00000000
3E007FC000
3E007FE000
3E07C07C00
3C07C07C00
180E000F00
183C000380
1838000380
18F00000E0
08F00000E0
00F00000E0
01C0000070
01C0000078
01C0000078
01C0000078
01C0000078
01C0000078
01C0000078
01C0000078
01C0000078
01C0000078
01C0000078
01C0000078
01C0000078
01C0000070
00F00000E0
00F00000E0
00F00000E0
0038000380
003C000380
000E000F00
0007C07C00
0007C07C00
00007FE000
00007FC000
0000000000
0000000000
0000000000
ENDCHAR

STARTCHAR jisx0212_2669
ENCODING 9833
SWIDTH 960 0
DWIDTH 40 0
BBX 40 40 0 -6
BITMAP
1800000000
1800000000
3E00000000
3E0FF01FE0
3E0FF01FE0
3E383C7078
3C381C7038
18F00FE01C
18C007800C
18C0038004
18C0038004
0840038004
0000038000
0000038000
0000038000
0000038000
0000038000
0000038000
0000038000
0000038000
0000038000
0000038000
0000038000
0000038000
0000038000
0000038000
0000038000
0000038000
0000038000
0000038000
0000038000
0000038000
0000038000
0000038000
0000038000
00003FF000
00001FF000
0000000000
0000000000
0000000000
ENDCHAR

STARTCHAR jisx0212_266A
ENCODING 9834
SWIDTH 960 0
DWIDTH 40 0
BBX 40 40 0 -6
BITMAP
000781E000
000781E000
000FC3F000
000781E000
000781E000
0000000000
0000000000
00FF81FF00
01C1C38380
01C1C38380
07007E00E0
07007E00E0
06003C0060
06003C0060
06003C0060
00003C0000
00003C0000
00003C0000
00003C0000
00003C0000
00003C0000
00003C0000
00003C0000
00003C0000
00003C0000
00003C0000
00003C0000
00003C0000
00003C0000
00003C0000
00003C0000
00003C0000
00003C0000
00003C0000
00003C0000
0001FF8000
0001FF8000
0000000000
0000000000
0000000000
ENDCHAR

STARTCHAR jisx0212_266C
ENCODING 9836
SWIDTH 960 0
DWIDTH 40 0
BBX 40 40 0 -6
BITMAP
0600000000
0600000000
1F00000000
1F001FF000
1F003FF000
1F01F01F00
0F01F01F00
0607800380
060E0001E0
060E0000E0
060E0000E0
041E0000E0
0038000078
0038000078
0038000078
0038000078
0038000078
0038000078
0038000078
0038000078
0038000078
003C000070
000E0000E0
000E0000E0
000E0000E0
0007800380
0003800380
0001F01F00
0008387820
00083C7060
00080C6060
000C0C6060
000E0C60E0
000FFC7FE0
000FFC7FE0
000FFC7FE0
000FF87FE0
0000000000
0000000000
0000000000
ENDCHAR

STARTCHAR jisx0212_2671
ENCODING 9841
SWIDTH 960 0
DWIDTH 40 0
BBX 40 40 0 -6
BITMAP
0000300000
0000300000
00007C0000
00007C0000
00007C0000
00007C0000
0000780000
0000300000
0000300000
0000300000
0000300000
0000100000
0000000000
00007E0080
00007E0080
0007C38080
0007C38180
000E01E380
003C01E300
003801E300
00F001EF00
00F001EE00
00F001EC00
01C001FC00
01C001FC00
01C001F000
01C001F000
01C001E000
01C001E080
01C001E080
01C003E080
01C007E180
01C00FE380
00E07C7F00
00F07C7F00
003FC01C00
003FC01C00
0000000000
0000000000
0000000000
ENDCHAR

STARTCHAR jisx0212_2672
ENCODING 9842
SWIDTH 960 0
DWIDTH 40 0
BBX 40 40 0 -6
BITMAP
0000300000
0000300000
00007C0000
00007C0000
00007C0000
00007C0000
0000780000
0000300000
0000300000
0000300000
0000300000
0000100000
0000000000
0001FFC000
0001FFE000
0007807000
0007007800
000E01FC00
000E007800
000E007000
000E000000
000E000000
0007800000
000FFF8000
000FFF8000
0038000000
0038000000
00F0000300
00F0000300
00F0000300
00F0000F00
00F0000E00
00F0001C00
003800F800
003801F000
000FFF8000
000FFF8000
0000000000
0000000000
0000000000
ENDCHAR

STARTCHAR jisx0212_2673
ENCODING 9843
SWIDTH 960 0
DWIDTH 40 0
BBX 40 40 0 -6
BITMAP
00000C0000
00000C0000
00003E0000
00003E0000
00003E0000
00003E0000
00001E0000
00000C0000
00000C0000
00000C0000
00000C0000
0000080000
0000000000
003F0FFC00
003F8FFC00
00F1FC0F00
0061F80700
0001F00380
0001E00380
0001C00380
0007800380
0007800380
0007800380
0007800380
0007800380
000E000F00
000E000F00
000E000F00
000E000F00
000E000F00
0038001C00
0038001C00
0038001C00
0038001C00
0038001C00
01FF807000
01FF007000
0000007000
000003FE00
000003FF00
ENDCHAR

STARTCHAR jisx0212_2674
ENCODING 9844
SWIDTH 960 0
DWIDTH 40 0
BBX 40 40 0 -6
BITMAP
0000300000
0000300000
00007C0000
00007C0000
00007C0000
00007C0000
0000780000
0000300000
0000300000
0000300000
0000300000
0000100000
0000000000
0001F80000
0001FC0000
00003C0000
00003C0000
00003C0000
0000700000
0000700000
0000700000
0000700000
0000700000
0001E00000
0001C00000
0001C00000
0001C00000
0001C00000
0003801000
0007801000
0007807000
0007807000
000783E000
0007FF8000
0007FF8000
0001FC0000
0001F80000
0000000000
0000000000
0000000000
ENDCHAR

STARTCHAR jisx0212_2675
ENCODING 9845
SWIDTH 960 0
DWIDTH 40 0
BBX 40 40 0 -6
BITMAP
0000000000
0000000000
0000000000
000300C000
000781E000
000FC3F000
000FC3F000
000781E000
0000000000
0000000000
0000000000
0000000000
0000000000
0001F80000
0001FC0000
00003C0000
00003C0000
00003C0000
0000700000
0000700000
0000700000
0000700000
0000700000
0001E00000
0001C00000
0001C00000
0001C00000
0001C00000
0003801000
0007801000
0007807000
0007807000
000783E000
0007FF8000
0007FF8000
0001FC0000
0001F80000
0000000000
0000000000
0000000000
ENDCHAR

STARTCHAR jisx0212_2676
ENCODING 9846
SWIDTH 960 0
DWIDTH 40 0
BBX 40 40 0 -6
BITMAP
0000300000
0000300000
00007C0000
00007C0000
00007C0000
0000300000
0000300000
000E31E000
003F03F000
003F83F000
000E01E000
000E00C000
0000000000
0001F80000
0001FC0000
00003C0000
00003C0000
00003C0000
0000700000
0000700000
0000700000
0000700000
0000700000
0001E00000
0001C00000
0001C00000
0001C00000
0001C00000
0003801000
0007801000
0007807000
0007807000
000783E000
0007FF8000
0007FF8000
0001FC0000
0001F80000
0000000000
0000000000
0000000000
ENDCHAR

STARTCHAR jisx0212_2677
ENCODING 9847
SWIDTH 960 0
DWIDTH 40 0
BBX 40 40 0 -6
BITMAP
00000C0000
00000C0000
00003E0000
00003E0000
00003E0000
00003E0000
00001E0000
00000C0000
00000C0000
00000C0000
00000C0000
0000080000
0000000000
00007FC000
00007FE000
0007C07C00
0007C07C00
000E001C00
003C000E00
0038000F00
0038000F00
0038000F00
00F0000F00
00F0000F00
00F0000F00
00F0000F00
00F0000F00
00F0000F00
00F0001C00
00F0001C00
00F0001C00
0070003C00
0038007000
003E03E000
003E03E000
0007FE0000
0003FE0000
0000000000
0000000000
0000000000
ENDCHAR

STARTCHAR jisx0212_2678
ENCODING 9848
SWIDTH 960 0
DWIDTH 40 0
BBX 40 40 0 -6
BITMAP
0000000000
0000000000
0000000000
0000000000
0000000000
0000000000
0000000000
0000000000
0000000000
0000000000
0000000000
0000000000
0000000000
00007F8000
00007F8000
0007C1F000
0007C0F800
000E001C00
003C000E00
0038000F00
0038000F00
0038000F00
0038001F00
0038001C00
0038001C00
000E000000
000E000000
000F800000
0007F00000
0007F00000
0001FC0000
0001FC0000
00003E0000
00000E0000
00000E0000
00380E0000
003C0E0000
003E3C0000
001FF00000
000FF00000
ENDCHAR

STARTCHAR jisx0212_2679
ENCODING 9849
SWIDTH 960 0
DWIDTH 40 0
BBX 40 40 0 -6
BITMAP
0000300000
0000300000
00007C0000
00007C0000
00007C0000
00007C0000
0000780000
0000300000
0000300000
0000300000
0000300000
0000100000
0000000000
0008007000
0008007000
003E001C00
003E001C00
000E001C00
000E000E00
000E000F00
000E000F00
001E000F00
0038000F00
0038000F00
0038000F00
0038000F00
0038000E00
00F0001C00
00F0001C00
00F0001C00
00F0007000
00F0007000
00F001E000
00380F8000
00380F8000
000FFC0000
000FF80000
0000000000
0000000000
0000000000
ENDCHAR

STARTCHAR jisx0212_267A
ENCODING 9850
SWIDTH 960 0
DWIDTH 40 0
BBX 40 40 0 -6
BITMAP
0000000000
0000000000
0000000000
000300C000
000781E000
000FC3F000
000FC3F000
000781E000
0000000000
0000000000
0000000000
0000000000
0000000000
0008007000
0008007000
003E001C00
003E001C00
000E001C00
000E000E00
000E000F00
000E000F00
001E000F00
0038000F00
0038000F00
0038000F00
0038000F00
0038000E00
00F0001C00
00F0001C00
00F0001C00
00F0007000
00F0007000
00F001E000
00380F8000
00380F8000
000FFC0000
000FF80000
0000000000
0000000000
0000000000
ENDCHAR

STARTCHAR jisx0212_267B
ENCODING 9851
SWIDTH 960 0
DWIDTH 40 0
BBX 40 40 0 -6
BITMAP
0000300000
0000300000
00007C0000
00007C0000
00007C0000
0000300000
0000300000
000E31E000
003F03F000
003F83F000
000E01E000
000E00C000
0000000000
0008007000
0008007000
003E001C00
003E001C00
000E001C00
000E000E00
000E000F00
000E000F00
001E000F00
0038000F00
0038000F00
0038000F00
0038000F00
0038000E00
00F0001C00
00F0001C00
00F0001C00
00F0007000
00F0007000
00F001E000
00380F8000
00380F8000
000FFC0000
000FF80000
0000000000
0000000000
0000000000
ENDCHAR

STARTCHAR jisx0212_267C
ENCODING 9852
SWIDTH 960 0
DWIDTH 40 0
BBX 40 40 0 -6
BITMAP
00000C0000
00000C0000
00003E0000
00003E0000
00003E0000
00003E0000
00001E0000
00000C0000
00000C0000
00000C0000
00000C0000
0000080000
0000000000
0003001C00
0007801C00
000E000F00
001E000700
0038000380
0070000380
00F0000380
01C00E00E0
01C00E00E0
01C00E00E0
07800E00E0
07000E00E0
07003C00E0
07003C00E0
07003C00E0
07003C03C0
07003C0380
0700700380
0700700380
0700700F00
03C1F81C00
01C1FC1C00
00FF8FF000
007F0FF000
0000000000
0000000000
0000000000
ENDCHAR

STARTCHAR jisx0212_2742
ENCODING 10050
SWIDTH 960 0
DWIDTH 40 0
BBX 40 40 0 -6
BITMAP
0000000000
0000000000
0000000000
0FFFFFFC00
1FFFFFFC00
1E01C01C00
1C01C01C00
3801C00F00
3001C00300
2001C00300
2001C00300
2001C00200
0001C00000
0001C3FC00
0001C3FC00
0001FE0F80
0001FE07C0
0001F000E0
0001E000E0
0001C000E0
0001C00078
0001C00078
0001C00078
0001C00078
0001C00078
0001C00078
0001C00078
0001C00078
0001C04078
0001C06078
0001C1F0E0
0001C1F0E0
0001C1F0E0
0001C1E3C0
0001C1E380
000FFC7F00
000FF87E00
0000000000
0000000000
0000000000
ENDCHAR

STARTCHAR jisx0212_2743
ENCODING 10051
SWIDTH 960 0
DWIDTH 40 0
BBX 40 40 0 -6
BITMAP
0000038000
0000078000
00003F8000
0001F00000
0001F00000
0000000000
0000000000
00FFFFFF00
001E000F00
000E000F00
000E000380
000E000380
000E000080
000E000080
000E000080
000E000000
000E000000
000E000000
000E000000
000E000000
000E000000
000E000000
000E000000
000E000000
000E000000
000E000000
000E000000
000E000000
000E000000
000E000000
000E000000
000E000000
000E000000
000E000000
000E000000
00FFF00000
007FF00000
0000000000
0000000000
0000000000
ENDCHAR

STARTCHAR jisx0212_2744
ENCODING 10052
SWIDTH 960 0
DWIDTH 40 0
BBX 40 40 0 -6
BITMAP
0000000000
0000000000
0000000000
0001FF8200
0001FF8300
000F81F300
001F00FB00
0038001F00
0070000F00
00F0000F00
01C0000380
01C0000380
01C0000080
0780000080
0700000080
0700000000
0700000000
0700000000
07FFFFF000
07FFFFF000
0700000000
0700000000
0700000000
0700000080
0700000080
0700000080
0780000180
01C0000380
01C0000300
01C0000300
00F0000F00
0070000E00
0038001C00
001F00F800
000F81F000
0001FF8000
0001FF8000
0000000000
0000000000
0000000000
ENDCHAR

STARTCHAR jisx0212_2745
ENCODING 10053
SWIDTH 960 0
DWIDTH 40 0
BBX 40 40 0 -6
BITMAP
0000000000
0000000000
0000000000
000FFF8400
000FFF8C00
00F801FC00
00F800FC00
00F0001C00
01C0000E00
01C0000F00
01C0000300
01C0000300
01C0000300
00E0000000
00F0000000
00FE000000
007E000000
000FF00000
0001FF8000
0001FF8000
00000FFC00
00000FFC00
0000007F00
0100000F80
0100000F80
0100000380
0180000380
01C0000380
01C0000380
01C0000380
00F0000380
00F0000380
00F8000F00
00DF007C00
00CF807C00
00C1FFE000
0041FFC000
0000000000
0000000000
0000000000
ENDCHAR

STARTCHAR jisx0212_2746
ENCODING 10054
SWIDTH 960 0
DWIDTH 40 0
BBX 40 40 0 -6
BITMAP
0000000000
0000000000
0000000000
0001FF8000
0001FF8000
00003C0000
00003C0000
00003C0000
00003C0000
00003C0000
00003C0000
00003C0000
00003C0000
00003C0000
00003C0000
00003C0000
00003C0000
00003C0000
00003C0000
00003C0000
00003C0000
00003C0000
00003C0000
00003C0000
00003C0000
00003C0000
00003C0000
00003C0000
00003C0000
00003C0000
00003C0000
00003C0000
00003C0000
00003C0000
00003C0000
0001FF8000
0001FF8000
0000000000
0000000000
0000000000
ENDCHAR

STARTCHAR jisx0212_2747
ENCODING 10055
SWIDTH 960 0
DWIDTH 40 0
BBX 40 40 0 -6
BITMAP
000781E000
000781E000
000FC3F000
000781E000
000781E000
0000000000
0000000000
0007FFE000
00003C0000
00003C0000
00003C0000
00003C0000
00003C0000
00003C0000
00003C0000
00003C0000
00003C0000
00003C0000
00003C0000
00003C0000
00003C0000
00003C0000
00003C0000
00003C0000
00003C0000
00003C0000
00003C0000
00003C0000
00003C0000
00003C0000
00003C0000
00003C0000
00003C0000
00003C0000
00003C0000
0001FF8000
0001FF8000
0000000000
0000000000
0000000000
ENDCHAR

STARTCHAR jisx0212_2748
ENCODING 10056
SWIDTH 960 0
DWIDTH 40 0
BBX 40 40 0 -6
BITMAP
0000000000
0000000000
0000000000
00000FFC00
00000FFC00
000001E000
000001E000
000001E000
000001E000
000001E000
000001E000
000001E000
000001E000
000001E000
000001E000
000001E000
000001E000
000001E000
000001E000
000001E000
000001E000
000001E000
000001E000
000001E000
000001E000
000001E000
000001E000
003801E000
007E01E000
00FE01E000
00F8038000
0078038000
0038038000
001E0F0000
000E0E0000
0007FC0000
0003F80000
0000000000
0000000000
0000000000
ENDCHAR

STARTCHAR jisx0212_2749
ENCODING 10057
SWIDTH 960 0
DWIDTH 40 0
BBX 40 40 0 -6
BITMAP
0000000000
0000000000
0000000000
003FFFF000
003FFFF000
0007838000
0007838000
0007838000
0007838000
0007838000
0007838000
0007838000
0007838000
0007838000
0007838000
0007838000
0007838000
000783FF80
00078381F0
00078380F8
000783801C
000783801C
000783801C
000783800F
0007838007
0007838007
0007838007
3807838007
FC07838007
FE07838007
F80E03801C
F80E03801C
380E03801C
1C3C0380F8
1E380380F8
07F03FFF80
07E01FFF80
0000000000
0000000000
0000000000
ENDCHAR

STARTCHAR jisx0212_274A
ENCODING 10058
SWIDTH 960 0
DWIDTH 40 0
BBX 40 40 0 -6
BITMAP
0000000000
0000000000
0000000000
FFC07FC000
FFC07FE000
1E000E0000
1E000E0000
1E000E0000
1E000E0000
1E000E0000
1E000E0000
1E000E0000
1E000E0000
1E000E0000
1E000E0000
1E000E0000
1E000F0000
1FFFFFFF80
1E000F01F0
1E000E00F8
1E000E001C
1E000E001C
1E000E001C
1E000E000F
1E000E0007
1E000E0007
1E000E0007
1E000E0007
1E000E0007
1E000E0007
1E000E001C
1E000E001C
1E000E001C
1E000E00F8
1E000E00F8
FFC07FFF80
FFC07FFF80
0000000000
0000000000
0000000000
ENDCHAR

STARTCHAR jisx0212_274B
ENCODING 10059
SWIDTH 960 0
DWIDTH 40 0
BBX 40 40 0 -6
BITMAP
0000000000
0000000000
0000000000
0FFFFFFC00
1FFFFFFC00
1E01C01C00
1C01C01C00
3801C00F00
3001C00300
2001C00300
2001C00300
2001C00200
0001C00000
0001CFFC00
0001CFFC00
0001FC0F80
0001F80780
0001F00380
0001E001E0
0001C000E0
0001C000E0
0001C000E0
0001C000E0
0001C000E0
0001C000E0
0001C000E0
0001C000E0
0001C000E0
0001C000E0
0001C000E0
0001C000E0
0001C000E0
0001C000E0
0001C000E0
0001C000E0
000FFC0FFC
000FF807FC
0000000000
0000000000
0000000000
ENDCHAR

STARTCHAR jisx0212_274C
ENCODING 10060
SWIDTH 960 0
DWIDTH 40 0
BBX 40 40 0 -6
BITMAP
0000038000
0000078000
00003F8000
0001F00000
0001F00000
0000000000
0000000000
07FE01FF80
00F0003C00
00F0001C00
00F0007000
00F0007000
00F001E000
00F0018000
00F0018000
00F0038000
00F0078000
00F00E0000
00FFFC0000
00FFFC0000
00F03C0000
00F01C0000
00F00E0000
00F00F8000
00F00F8000
00F0038000
00F0038000
00F001E000
00F001F000
00F001F000
00F0007000
00F0007800
00F0001C00
00F0001E00
00F0001F00
07FE01FFE0
07FE00FFE0
0000000000
0000000000
0000000000
ENDCHAR

STARTCHAR jisx0212_274D
ENCODING 10061
SWIDTH 960 0
DWIDTH 40 0
BBX 40 40 0 -6
BITMAP
000781E000
000781E000
000FC3F000
000781E000
000781E000
0001FF8000
0001FF8000
0000000000
01FF00FF80
01FF81FF80
0038001C00
003C001C00
000E001000
000E007000
000E007000
0007806000
0007806000
000781E000
0001C18000
0001C18000
0001C38000
0001E38000
0000720000
00007E0000
00007E0000
00003C0000
00003C0000
00003C0000
0020300000
0030300000
00F8700000
00F8700000
00F8400000
00F1C00000
00F1C00000
003F800000
003F000000
0000000000
0000000000
0000000000
ENDCHAR

STARTCHAR jisx0212_274E
ENCODING 10062
SWIDTH 960 0
DWIDTH 40 0
BBX 40 40 0 -6
BITMAP
0000000000
0000000000
0000000000
0FF8007FE0
1FF8007FE0
01C0000F00
01C0000F00
01C0000F00
01C0000F00
01C0000F00
01C0000F00
01C0000F00
01C0000F00
01C0000F00
01C0000F00
01C0000F00
01C0000F00
01C0000F00
01C0000F00
01C0000F00
01C0000F00
01C0000F00
01C0000F00
01C0000F00
01C0000F00
01C0000F00
01C0000F00
01C0000F00
01C0000F00
01C0000F00
01C0000F00
01C0000F00
01C0000F00
0FFFFFFFE0
1FFFFFFFE0
0000300000
0000300000
0000300000
0000300000
0000300000
ENDCHAR

STARTCHAR jisx0212_2772
ENCODING 10098
SWIDTH 960 0
DWIDTH 40 0
BBX 40 40 0 -6
BITMAP
0000000000
0000000000
0000000000
0038000000
0038000000
01F8000000
01F8000000
0038000000
0038000000
0038000000
07FFC00000
07FFC00000
0038000000
00387F8000
00387F8000
003FC1F000
003FC0F000
003E007000
003C003C00
0038001C00
0038001C00
0038001C00
0038001C00
0038001C00
0038001C00
0038001C00
0038001C00
0038001C00
0038001C00
0038001C00
0038001C00
0038001C00
0038001C00
0038081C00
00380C1C00
01FFBE1000
01FF3E3000
00003E7000
00000FE000
00000FE000
ENDCHAR

STARTCHAR jisx0212_2773
ENCODING 10099
SWIDTH 960 0
DWIDTH 40 0
BBX 40 40 0 -6
BITMAP
0000000000
0000000000
0000000000
0000038000
0000038000
00003F8000
00003F8000
0001F00000
0000000000
0000000000
0000000000
0000000000
0000000000
003FFFF000
003FFFF000
0007807000
0007807800
0007801C00
0007800C00
0007800C00
0007800C00
0007800400
0007800000
0007800000
0007800000
0007800000
0007800000
0007800000
0007800000
0007800000
0007800000
0007800000
0007800000
0007800000
0007800000
003FF00000
003FF00000
0000000000
0000000000
0000000000
ENDCHAR

STARTCHAR jisx0212_2774
ENCODING 10100
SWIDTH 960 0
DWIDTH 40 0
BBX 40 40 0 -6
BITMAP
0000000000
0000000000
0000000000
0000000000
0000000000
0000000000
0000000000
0000000000
0000000000
0000000000
0000000000
0000000000
0000000000
0001FE0000
0001FE0000
000F83E000
001F03E000
0038007000
003800FC00
003801FC00
00F0007000
00F0007000
00F0000000
00FFFE0000
00FFFE0000
00F0000000
00F0000000
00F0000000
00F0000400
00F0000C00
0038001C00
0038003C00
0038007000
001F03E000
000F83E000
0001FE0000
0001FE0000
0000000000
0000000000
0000000000
ENDCHAR

STARTCHAR jisx0212_2775
ENCODING 10101
SWIDTH 960 0
DWIDTH 40 0
BBX 40 40 0 -6
BITMAP
0000000000
0000000000
0000000000
0000000000
0000000000
0000000000
0000000000
0000000000
0000000000
0000000000
0000000000
0000000000
0000000000
0003FF9000
0007FF9000
000E01F000
001E00F000
0038007000
0038003000
0038001000
003E001000
003E001000
000FF00000
0001FF8000
0001FF8000
00000FF000
00000FF800
0030007C00
0030003C00
0030001C00
0038001C00
0038001C00
0038001C00
003F007800
003F807000
0031FFE000
0021FFC000
0000000000
0000000000
0000000000
ENDCHAR

STARTCHAR jisx0212_2776
ENCODING 10102
SWIDTH 960 0
DWIDTH 40 0
BBX 40 40 0 -6
BITMAP
0000000000
0000000000
0000000000
0000180000
00003C0000
00007E0000
00007E0000
00003C0000
0000000000
0000000000
0000000000
0000000000
0000000000
0000180000
00003C0000
0001FC0000
0001FC0000
00003C0000
00003C0000
00003C0000
00003C0000
00003C0000
00003C0000
00003C0000
00003C0000
00003C0000
00003C0000
00003C0000
00003C0000
00003C0000
00003C0000
00003C0000
00003C0000
00003C0000
00003C0000
0001FF8000
0001FF8000
0000000000
0000000000
0000000000
ENDCHAR

STARTCHAR jisx0212_2777
ENCODING 10103
SWIDTH 960 0
DWIDTH 40 0
BBX 40 40 0 -6
BITMAP
0000000000
0000000000
0000000000
000300C000
000781E000
000FC3F000
000FC3F000
000781E000
0000000000
0000000000
0000000000
0000000000
0000000000
0000180000
00003C0000
0001FC0000
0001FC0000
00003C0000
00003C0000
00003C0000
00003C0000
00003C0000
00003C0000
00003C0000
00003C0000
00003C0000
00003C0000
00003C0000
00003C0000
00003C0000
00003C0000
00003C0000
00003C0000
00003C0000
00003C0000
0001FF8000
0001FF8000
0000000000
0000000000
0000000000
ENDCHAR

STARTCHAR jisx0212_2778
ENCODING 10104
SWIDTH 960 0
DWIDTH 40 0
BBX 40 40 0 -6
BITMAP
0000000000
0000000000
0000000000
00000E0000
00000E0000
00003F8000
00001F8000
00000E0000
0000000000
0000000000
0000000000
0000000000
0000000000
00000E0000
00000E0000
00007E0000
00007E0000
00000E0000
00000E0000
00000E0000
00000E0000
00000E0000
00000E0000
00000E0000
00000E0000
00000E0000
00000E0000
00000E0000
00000E0000
00000E0000
00000E0000
00000E0000
00000E0000
000E0E0000
000E0E0000
003F8E0000
003F0E0000
000E3C0000
0007F00000
0007F00000
ENDCHAR

STARTCHAR jisx0212_2779
ENCODING 10105
SWIDTH 960 0
DWIDTH 40 0
BBX 40 40 0 -6
BITMAP
0000000000
0000000000
0000000000
0000000000
0000000000
0000000000
0000000000
0000000000
0000000000
0000000000
0000000000
0000000000
0000000000
007FFFC000
00FFFFE000
000E0E0000
000E0E0000
000E0E0000
000E0E0000
000E0E0000
000E0E0000
000E0E0000
000E0E0000
000E0FFF80
000E0FFF80
000E0E00E0
000E0E00E0
000E0E0078
000E0E0078
000E0E0078
1E0E0E0078
1E0E0E0078
3F0E0E0078
1E3C0E00E0
1E380E00E0
07F07FFF80
07E07FFF80
0000000000
0000000000
0000000000
ENDCHAR

STARTCHAR jisx0212_277A
ENCODING 10106
SWIDTH 960 0
DWIDTH 40 0
BBX 40 40 0 -6
BITMAP
0000000000
0000000000
0000000000
0000000000
0000000000
0000000000
0000000000
0000000000
0000000000
0000000000
0000000000
0000000000
0000000000
0FF87FC000
1FF87FE000
01C00E0000
01C00E0000
01C00E0000
01C00E0000
01C00E0000
01C00E0000
01C00E0000
01C00E0000
01FFFFFF80
01FFFFFF80
01C00E00E0
01C00E00E0
01C00E0078
01C00E0078
01C00E0078
01C00E0078
01C00E0078
01C00E0078
01C00E00E0
01C00E00E0
1FF87FFF80
0FF87FFF80
0000000000
0000000000
0000000000
ENDCHAR

STARTCHAR jisx0212_277B
ENCODING 10107
SWIDTH 960 0
DWIDTH 40 0
BBX 40 40 0 -6
BITMAP
0000000000
0000000000
0000000000
0038000000
0038000000
01F8000000
01F8000000
0038000000
07FFFE0000
07FFFE0000
0038000000
0038000000
0038000000
00387F8000
00387F8000
003FC1F000
003FC0F000
003E007000
003C003C00
0038001C00
0038001C00
0038001C00
0038001C00
0038001C00
0038001C00
0038001C00
0038001C00
0038001C00
0038001C00
0038001C00
0038001C00
0038001C00
0038001C00
0038001C00
0038001C00
01FF81FF80
01FF00FF80
0000000000
0000000000
0000000000
ENDCHAR

STARTCHAR jisx0212_277C
ENCODING 10108
SWIDTH 960 0
DWIDTH 40 0
BBX 40 40 0 -6
BITMAP
0000000000
0000000000
0000000000
0000038000
0000038000
00003F8000
00003F8000
0001F00000
0000000000
0000000000
0000000000
0000000000
0000000000
007FC3FE00
00FFC3FF00
000E007000
000E007000
000E006000
000E00E000
000E01E000
000E018000
000E018000
000E038000
000FFF8000
000FFF8000
000E038000
000E038000
000E01E000
000E01E000
000E01E000
000E007000
000E007000
000E007000
000E003C00
000E001C00
00FFC1FF80
007FC0FF80
0000000000
0000000000
0000000000
ENDCHAR

STARTCHAR jisx0212_277D
ENCODING 10109
SWIDTH 960 0
DWIDTH 40 0
BBX 40 40 0 -6
BITMAP
0000000000
0000000000
0000000000
000300C000
000781E000
000FC3F000
000FC3F000
000781E000
0001FF8000
0001FF8000
0000000000
0000000000
0000000000
007FC07F80
00FFC07F80
000E000C00
000E000C00
000E001C00
0007001800
0007801000
0007807000
0003807000
0001C06000
0001C0E000
0001C1E000
0000718000
0000718000
0000738000
00003F0000
00003E0000
00003E0000
00001E0000
00000C0000
00081C0000
00083C0000
003E300000
003E300000
003E700000
001FE00000
000FC00000
ENDCHAR

STARTCHAR jisx0212_277E
ENCODING 10110
SWIDTH 960 0
DWIDTH 40 0
BBX 40 40 0 -6
BITMAP
0000000000
0000000000
0000000000
0000000000
0000000000
0000000000
0000000000
0000000000
0000000000
0000000000
0000000000
0000000000
0000000000
01FF03FE00
01FF83FF00
0038007000
0038007000
0038007000
0038007000
0038007000
0038007000
0038007000
0038007000
0038007000
0038007000
0038007000
0038007000
0038007000
0038007000
0038007000
0038007000
0038007000
0038007000
01FFFFFE00
01FFFFFF00
0000300000
0000300000
0000300000
0000300000
0000300000
ENDCHAR

STARTCHAR jisx0212_2921
ENCODING 10529
SWIDTH 960 0
DWIDTH 40 0
BBX 40 40 0 -6
BITMAP
0000000000
0000000000
0000000000
0003FFFFF0
0007FFFFF8
00007E0078
00007E0038
00004E001C
0001CE000C
0001CE0004
00018E0004
00018E0004
00078E0000
00060E0080
00060E0080
000E0E0080
000E0E0180
00080E0380
00380FFF80
00380FFF80
00300E0380
00300E0380
00F00E0080
00FFFE0080
00FFFE0080
01C00E0000
01C00E0000
01000E0000
07000E0001
07000E0003
06000E0003
06000E0003
1E000E0007
18000E001E
18000E001C
FF007FFFFC
FF007FFFFC
0000000000
0000000000
0000000000
ENDCHAR

STARTCHAR jisx0212_2922
ENCODING 10530
SWIDTH 960 0
DWIDTH 40 0
BBX 40 40 0 -6
BITMAP
0000000000
0000000000
0000000000
07FFFF8000
07FFFF8000
00F001F000
00F000F800
00F0001C00
00F0000E00
00F0000F00
00F0000F00
00F0000700
00F0000380
00F0000380
00F0000380
00F0000380
00F0000380
00F0000380
3FFFC00380
3FFFC00380
00F0000380
00F0000380
00F0000380
00F0000380
00F0000380
00F0000380
00F0000380
00F0000380
00F0000700
00F0000F00
00F0000F00
00F0000E00
00F0001C00
00F000F800
00F001F000
07FFFF8000
07FFFF8000
0000000000
0000000000
0000000000
ENDCHAR

STARTCHAR jisx0212_2924
ENCODING 10532
SWIDTH 960 0
DWIDTH 40 0
BBX 40 40 0 -6
BITMAP
0000000000
0000000000
0000000000
0FF8007FE0
1FF8007FE0
01C0000F00
01C0000F00
01C0000F00
01C0000F00
01C0000F00
FFFFFFFFFC
FFFFFFFFFC
01C0000F00
01C0000F00
01C0000F00
01C0000F00
01C0000F00
01C0000F00
01FFFFFF00
01FFFFFF00
01C0000F00
01C0000F00
01C0000F00
01C0000F00
01C0000F00
01C0000F00
01C0000F00
01C0000F00
01C0000F00
01C0000F00
01C0000F00
01C0000F00
01C0000F00
01C0000F00
01C0000F00
1FF8007FE0
0FF8007FE0
0000000000
0000000000
0000000000
ENDCHAR

STARTCHAR jisx0212_2926
ENCODING 10534
SWIDTH 960 0
DWIDTH 40 0
BBX 40 40 0 -6
BITMAP
0000000000
0000000000
0000000000
07FE001FF0
07FE001FF8
00F0000380
00F0000380
00F0000380
00F0000380
00F0000380
00F0000380
00F0000380
00F0000380
00F0000380
00F0000380
00F0000380
00F0000380
00F0000380
00F0000380
00F0000380
00F0000380
00F0000380
00F0000380
00F0000380
00F0000380
00F0000380
00F0000380
00F0700380
00F1F80380
00F1FC0380
00F1F00F00
00F1F00F00
00F0700F00
00F0381C00
00F03C1C00
07FE0FF000
07FE0FF000
0000000000
0000000000
0000000000
ENDCHAR

STARTCHAR jisx0212_2928
ENCODING 10536
SWIDTH 960 0
DWIDTH 40 0
BBX 40 40 0 -6
BITMAP
0000000000
0000000000
0000000000
01FF000000
01FF800000
0038000000
0038000000
0038000000
0038000000
0038000000
0038300000
0038300000
0038700000
0039E00000
0039C00000
003F800000
003F000000
003E000000
003C000000
0038000000
00F8000000
00F8000000
01F8000000
07B8000000
0738000000
1E38000000
1C38000000
1838000000
0038000080
0038000080
0038000080
0038000180
0038000380
0038000700
0038000F00
01FFFFFF00
01FFFFFE00
0000000000
0000000000
0000000000
ENDCHAR

STARTCHAR jisx0212_2929
ENCODING 10537
SWIDTH 960 0
DWIDTH 40 0
BBX 40 40 0 -6
BITMAP
0000000000
0000000000
0000000000
01FF000000
01FF800000
0038000000
0038000000
0038000000
0038000000
0038000000
0038000000
0038000000
0038000000
0038000000
0038000000
0038000000
0038000000
00383C0000
00387E0000
00387E0000
00383C0000
0038180000
0038000000
0038000000
0038000000
0038000000
0038000000
0038000000
0038000080
0038000080
0038000080
0038000180
0038000380
0038000700
0038000F00
01FFFFFF00
01FFFFFE00
0000000000
0000000000
0000000000
ENDCHAR

STARTCHAR jisx0212_292B
ENCODING 10539
SWIDTH 960 0
DWIDTH 40 0
BBX 40 40 0 -6
BITMAP
0000000000
0000000000
0000000000
01F81FC000
01F83FE000
0039F07C00
003DF07C00
003F801C00
003E000E00
003E000F00
003E000F00
003E000F00
0038000F00
0038000F00
0038000F00
0038000F00
0038000F00
0038000F00
0038000F00
0038000F00
0038000F00
0038000F00
0038000F00
0038000F00
0038000F00
0038000F00
0038000F00
0038300F00
0038780F00
00387C0F00
00387C0F00
0038780E00
0038700C00
0038381C00
00383C1C00
01FF8FF000
01FF0FF000
0000000000
0000000000
0000000000
ENDCHAR

STARTCHAR jisx0212_292C
ENCODING 10540
SWIDTH 960 0
DWIDTH 40 0
BBX 40 40 0 -6
BITMAP
0000000000
0000000000
0000000000
0001FF8020
0001FF8060
000F81F0E0
001F00F9E0
0038001F80
0070000F00
00F0000F00
01C0001F80
01C0003F80
01C0007380
078000E1E0
070001E0E0
07000380E0
07000780E0
07000E00E0
07001C00E0
07003C00E0
07007000E0
0700F000E0
0701C000E0
07038000E0
07078000E0
070E0000E0
079E0001E0
01F8000380
01F0000380
01F0000380
01F0000F00
03F0000E00
0738001C00
0E1F00F800
1E0F81F000
1801FF8000
0801FF8000
0000000000
0000000000
0000000000
ENDCHAR

STARTCHAR jisx0212_292D
ENCODING 10541
SWIDTH 960 0
DWIDTH 40 0
BBX 40 40 0 -6
BITMAP
0000000000
0000000000
0000000000
003FFFFFF0
003FFFFFF8
01F00E0078
03E00E0038
07000E001C
0E000E000C
1E000E0004
1E000E0004
1C000E0004
38000E0000
38000E0080
38000E0080
38000E0080
38000E0180
38000E0380
38000FFF80
38000FFF80
38000E0380
38000E0380
38000E0080
38000E0080
38000E0080
38000E0000
38000E0000
38000E0000
1C000E0001
1E000E0003
1E000E0003
0E000E0003
07000E0007
03E00E001E
01F00E001C
003FFFFFFC
003FFFFFFC
0000000000
0000000000
0000000000
ENDCHAR

STARTCHAR jisx0212_292F
ENCODING 10543
SWIDTH 960 0
DWIDTH 40 0
BBX 40 40 0 -6
BITMAP
0000000000
0000000000
0000000000
01FFFFFF80
01FFFFFF80
01C03C0380
03C03C03C0
07003C00E0
06003C0060
06003C0060
06003C0060
04003C0020
00003C0000
00003C0000
00003C0000
00003C0000
00003C0000
00003C0000
000FFFF000
000FFFF000
00003C0000
00003C0000
00003C0000
00003C0000
00003C0000
00003C0000
00003C0000
00003C0000
00003C0000
00003C0000
00003C0000
00003C0000
00003C0000
00003C0000
00003C0000
0001FF8000
0001FF8000
0000000000
0000000000
0000000000
ENDCHAR

STARTCHAR jisx0212_2930
ENCODING 10544
SWIDTH 960 0
DWIDTH 40 0
BBX 40 40 0 -6
BITMAP
0000000000
0000000000
0000000000
01FF000000
01FF800000
0038000000
0038000000
0038000000
0038000000
0038000000
0038000000
003C000000
003FFF8000
003C01F000
003801F000
0038001C00
0038001C00
0038000F00
0038000F00
0038000F00
0038000F00
0038000F00
0038000F00
0038001C00
0038001C00
003801F000
003C01F000
003FFF8000
003C000000
0038000000
0038000000
0038000000
0038000000
0038000000
0038000000
01FF800000
01FF000000
0000000000
0000000000
0000000000
ENDCHAR

STARTCHAR jisx0212_2941
ENCODING 10561
SWIDTH 960 0
DWIDTH 40 0
BBX 40 40 0 -6
BITMAP
0000000000
0000000000
0000000000
0000000000
0000000000
0000000000
0000000000
0000000000
0000000000
0000000000
0000000000
0000000000
0000000000
01FFC0FE00
01FFC1FF00
07C07F83E0
07C07F83E0
07C03E00E0
03803C0070
01003C0078
00003C0078
00003C0078
00003C0078
007FFFFFF8
00FFFFFFF8
07C03C0000
07C03C0000
1E003C0000
1E003C0010
1E003C0018
1E003C0018
1E003C0018
1E003E0078
0701F780E0
0701F380E0
01FF81FF80
01FF00FF80
0000000000
0000000000
0000000000
ENDCHAR

STARTCHAR jisx0212_2942
ENCODING 10562
SWIDTH 960 0
DWIDTH 40 0
BBX 40 40 0 -6
BITMAP
0000000000
0000000000
0000000000
0000001C00
0000001C00
000001FC00
000000FC00
0000001C00
00001FFFE0
00003FFFE0
0000001C00
0000001C00
0000001C00
0001FE1C00
0001FE1C00
000F83FC00
001F03FC00
0038007C00
0038003C00
0038001C00
00F0001C00
00F0001C00
00F0001C00
00F0001C00
00F0001C00
00F0001C00
00F0001C00
00F0001C00
00F0001C00
00F0001C00
0038001C00
0038003C00
0038007C00
001F03FC00
000F83FC00
0001FE1F80
0001FE1F80
0000000000
0000000000
0000000000
ENDCHAR

STARTCHAR jisx0212_2943
ENCODING 10563
SWIDTH 960 0
DWIDTH 40 0
BBX 40 40 0 -6
BITMAP
0000000000
0000000000
0000000000
000F007000
000F807000
0001F3E000
0001F7C000
00003E0000
0001FE0000
0001FE0000
0007838000
0003038000
000001E000
00007FE000
00007FE000
0007C3F000
0007C3F000
000E007000
000E007C00
000E007C00
0038001C00
0038001C00
0038001C00
0038001C00
0038001C00
0038001C00
0038001C00
0038001C00
0038001C00
0038001C00
000E007000
000E007000
000E007000
0007C3E000
0007C3E000
00007E0000
00007E0000
0000000000
0000000000
0000000000
ENDCHAR

STARTCHAR jisx0212_2944
ENCODING 10564
SWIDTH 960 0
DWIDTH 40 0
BBX 40 40 0 -6
BITMAP
0000000000
0000000000
0000000000
0038000000
0038000000
01F8000000
01F8000000
0038000000
07FFFE0000
07FFFE0000
0038000000
0038000000
0038000000
00387F8000
00387F8000
003FC1F000
003FC0F000
003E007000
003C003C00
0038001C00
0038001C00
0038001C00
0038001C00
0038001C00
0038001C00
0038001C00
0038001C00
0038001C00
0038001C00
0038001C00
0038001C00
0038001C00
0038001C00
0038001C00
0038001C00
01FF81FF80
01FF00FF80
0000000000
0000000000
0000000000
ENDCHAR

STARTCHAR jisx0212_2945
ENCODING 10565
SWIDTH 960 0
DWIDTH 40 0
BBX 40 40 0 -6
BITMAP
0000000000
0000000000
0000000000
0000000000
0000000000
0000000000
0000000000
0000000000
0000000000
0000000000
0000000000
0000000000
0000000000
0000180000
00003C0000
0001FC0000
0001FC0000
00003C0000
00003C0000
00003C0000
00003C0000
00003C0000
00003C0000
00003C0000
00003C0000
00003C0000
00003C0000
00003C0000
00003C0000
00003C0000
00003C0000
00003C0000
00003C0000
00003C0000
00003C0000
0001FF8000
0001FF8000
0000000000
0000000000
0000000000
ENDCHAR

STARTCHAR jisx0212_2946
ENCODING 10566
SWIDTH 960 0
DWIDTH 40 0
BBX 40 40 0 -6
BITMAP
0000000000
0000000000
0000000000
000E001C00
000E001C00
003F807F00
003F007E00
000E001C00
0000000000
0000000000
0000000000
0000000000
0000000000
000E001C00
000E001C00
00FE01FC00
007E00FC00
000E001C00
000E001C00
000E001C00
000E001C00
000E001C00
000E001C00
000E001C00
000E001C00
000E001C00
000E001C00
000E001C00
000E001C00
000E001C00
000E001C00
000E001C00
000E001C00
000E021C00
000E021C00
00FFCF9C00
007FCF9C00
00000E1C00
000007F800
000003F000
ENDCHAR

STARTCHAR jisx0212_2947
ENCODING 10567
SWIDTH 960 0
DWIDTH 40 0
BBX 40 40 0 -6
BITMAP
0000000000
0000000000
0000000000
0000000000
0000000000
0000000000
0000000000
0000000000
0000000000
0000000000
0000000000
0000000000
0000000000
007FC3FE00
00FFC3FF00
000E007000
000E007000
000E01E000
000E038000
000E038000
000E0E0000
000E0E0000
000E3C0000
000E7E0000
000E7E0000
000FCF8000
000FCF8000
000F838000
000E01C000
000E01E000
000E01F000
000E00F000
000E007000
000E003C00
000E001C00
00FFC1FF80
007FC0FF80
0000000000
0000000000
0000000000
ENDCHAR

STARTCHAR jisx0212_2948
ENCODING 10568
SWIDTH 960 0
DWIDTH 40 0
BBX 40 40 0 -6
BITMAP
0000000000
0000000000
0000000000
0000180000
00003C0000
0001FC0000
0001FC0000
00003C0000
00003C0000
00003C0000
00003C0000
00003C0000
00003C1000
00003C7000
00003C7000
00003DE000
00003DC000
00003F8000
00003F0000
00003E0000
00003C0000
00003C0000
00007C0000
0001FC0000
0001FC0000
0007BC0000
00073C0000
000E3C0000
000C3C0000
00083C0000
00003C0000
00003C0000
00003C0000
00003C0000
00003C0000
0001FF8000
0001FF8000
0000000000
0000000000
0000000000
ENDCHAR

STARTCHAR jisx0212_2949
ENCODING 10569
SWIDTH 960 0
DWIDTH 40 0
BBX 40 40 0 -6
BITMAP
0000000000
0000000000
0000000000
0000700000
0000700000
0007F00000
0003F00000
0000700000
0000700000
0000700000
0000700000
0000700000
0000700000
0000700000
0000700000
0000700000
0000700000
000071E000
000073F000
000073F000
000071E000
000070C000
0000700000
0000700000
0000700000
0000700000
0000700000
0000700000
0000700000
0000700000
0000700000
0000700000
0000700000
0000700000
0000700000
0007FE0000
0003FE0000
0000000000
0000000000
0000000000
ENDCHAR

STARTCHAR jisx0212_294A
ENCODING 10570
SWIDTH 960 0
DWIDTH 40 0
BBX 40 40 0 -6
BITMAP
0000000000
0000000000
0000000000
0000000000
0000000000
0000000000
0000000000
0000000000
0000000000
0000000000
0600000000
0600000000
1F00000000
1F030FF000
1F078FF000
1F3FFC1F00
0F3FF81F00
0607C00F00
0607800380
0607800380
0607800380
0407800380
0007800380
0007800380
0007800380
0007800380
0007800380
0007800380
0007800380
0007800380
0007800380
0007800380
0007800380
0007800380
0007800380
003FF01FF8
003FF01FF0
0000000000
0000000000
0000000000
ENDCHAR

STARTCHAR jisx0212_294B
ENCODING 10571
SWIDTH 960 0
DWIDTH 40 0
BBX 40 40 0 -6
BITMAP
0000000000
0000000000
0000000000
0000000000
0000000000
0000000000
0000000000
0000000000
0000000000
0000000000
0000000000
0000000000
0000000000
00387F8000
00387F8000
01FFC1F000
01FFC0F000
003E007000
003C003C00
0038001C00
0038001C00
0038001C00
0038001C00
0038001C00
0038001C00
0038001C00
0038001C00
0038001C00
0038001C00
0038001C00
0038001C00
0038001C00
0038001C00
0038081C00
00380C1C00
01FFBE1000
01FF3E3000
00003E7000
00000FE000
00000FE000
ENDCHAR

STARTCHAR jisx0212_294C
ENCODING 10572
SWIDTH 960 0
DWIDTH 40 0
BBX 40 40 0 -6
BITMAP
0000000000
0000000000
0000000000
0000000000
0000000000
0000000000
0000000000
0000000000
0000000000
0000000000
0000000000
0000000000
0000000000
0001FE0400
0001FE0C00
000F83FC00
001F03FC00
0038007000
003800F000
003801F000
00F0039C00
00F0079C00
00F00E1C00
00F01C1C00
00F03C1C00
00F0701C00
00F0F01C00
00F1C01C00
00F3801C00
00F7801C00
003E007000
003E007000
0038007000
007F03E000
00FF83E000
00C1FE0000
0041FE0000
0000000000
0000000000
0000000000
ENDCHAR

STARTCHAR jisx0212_294D
ENCODING 10573
SWIDTH 960 0
DWIDTH 40 0
BBX 40 40 0 -6
BITMAP
0000000000
0000000000
0000000000
0000000000
0000000000
0000000000
0000000000
0000000000
0000000000
0000000000
0000000000
0000000000
0000000000
007F00FE00
00FF81FF00
07C1FF83E0
07C1FF83E0
07007E00E0
0E003C0070
1E003C0078
1E003C0078
1E003C0078
1E003FFFF8
1E003C0000
1E003C0000
1E003C0000
1E003C0000
1E003C0000
1E003C0010
1E003C0018
1E003C0018
0E003C0018
07007E0078
07C1F780E0
07C1F380E0
00FF81FF80
007F00FF80
0000000000
0000000000
0000000000
ENDCHAR

STARTCHAR jisx0212_294E
ENCODING 10574
SWIDTH 960 0
DWIDTH 40 0
BBX 40 40 0 -6
BITMAP
0000000000
0000000000
0000000000
0001FF8000
0001FF8000
000F81F000
000F00F000
000E007000
003C003C00
0038001C00
0038001C00
0038001C00
0038001C00
0038007800
0038007000
003801F000
003801F000
00387F8000
003801F000
003801F000
0038001C00
0038001C00
0038001C00
0038000E00
0038000F00
0038000F00
0038000F00
0038000F00
0038400F00
0038400F00
0039F00F00
0039F00E00
0039F01C00
0039E07C00
0039C07C00
01F87FE000
01F87FC000
0000000000
0000000000
0000000000
ENDCHAR

STARTCHAR jisx0212_294F
ENCODING 10575
SWIDTH 960 0
DWIDTH 40 0
BBX 40 40 0 -6
BITMAP
0000000000
0000000000
0000000000
0000100000
0000300000
0000700000
0000700000
0000700000
0000700000
0000700000
0000700000
0000700000
0000700000
0003FFC000
0007FFE000
0000700000
0000700000
0000700000
0000700000
0000700000
0007FF8000
0003FF8000
0000700000
0000700000
0000700000
0000700000
0000700000
0000700000
0000700000
0000700000
0000701000
0000703000
0000707000
000078E000
00007DE000
00003F8000
00001F8000
0000000000
0000000000
0000000000
ENDCHAR

STARTCHAR jisx0212_2950
ENCODING 10576
SWIDTH 960 0
DWIDTH 40 0
BBX 40 40 0 -6
BITMAP
0000000000
0000000000
0000000000
0003000000
0007800000
003F800000
003F800000
0007800000
0007800000
0007800000
0007800000
0007800000
0007800000
00079FC000
0007BFE000
0007F07C00
0007F07C00
0007800F00
0007800F00
0007800F00
0007800380
0007800380
0007800380
0007800380
0007800380
0007800380
0007800380
0007800380
0007800700
0007800F00
0007800F00
0007800E00
0007F07C00
0007BFE000
0007BFE000
0007800000
0007800000
0007800000
003FF00000
003FF00000
ENDCHAR

STARTCHAR jisx0212_2A21
ENCODING 10785
SWIDTH 960 0
DWIDTH 40 0
BBX 40 40 0 -6
BITMAP
0000038000
0000078000
00003F8000
0001F00000
0001F00000
0000000000
0000000000
00003C0000
00003C0000
00003C0000
00007E0000
00007E0000
00004E0000
0001C78000
0001C38000
0001838000
0001838000
000781E000
000601E000
000601E000
000E007000
000E007000
0008007000
0008007000
0008007000
0038001C00
003C003C00
003FFFFC00
0070000E00
00F0000F00
00C0000F00
00C0000700
01C0000380
0180000380
0100000380
1FF0001FF8
0FE0001FF0
0000000000
0000000000
0000000000
ENDCHAR

STARTCHAR jisx0212_2A22
ENCODING 10786
SWIDTH 960 0
DWIDTH 40 0
BBX 40 40 0 -6
BITMAP
0001C00000
0001E00000
0001FC0000
00000F8000
00000F8000
0000000000
0000000000
00003C0000
00003C0000
00003C0000
00007E0000
00007E0000
00004E0000
0001C78000
0001C38000
0001838000
0001838000
000781E000
000601E000
000601E000
000E007000
000E007000
0008007000
0008007000
0008007000
0038001C00
003C003C00
003FFFFC00
0070000E00
00F0000F00
00C0000F00
00C0000700
01C0000380
0180000380
0100000380
1FF0001FF8
0FE0001FF0
0000000000
0000000000
0000000000
ENDCHAR

STARTCHAR jisx0212_2A23
ENCODING 10787
SWIDTH 960 0
DWIDTH 40 0
BBX 40 40 0 -6
BITMAP
000781E000
000781E000
000FC3F000
000781E000
000781E000
0000000000
0000000000
00003C0000
00003C0000
00003C0000
00007E0000
00007E0000
00004E0000
0001C78000
0001C38000
0001838000
0001838000
000781E000
000601E000
000601E000
000E007000
000E007000
0008007000
0008007000
0008007000
0038001C00
003C003C00
003FFFFC00
0070000E00
00F0000F00
00C0000F00
00C0000700
01C0000380
0180000380
0100000380
1FF0001FF8
0FE0001FF0
0000000000
0000000000
0000000000
ENDCHAR

STARTCHAR jisx0212_2A24
ENCODING 10788
SWIDTH 960 0
DWIDTH 40 0
BBX 40 40 0 -6
BITMAP
00007C0000
0000FC0000
0001CE0000
0003878000
0007838000
0000000000
0000000000
00003C0000
00003C0000
00003C0000
00007E0000
00007E0000
00004E0000
0001C78000
0001C38000
0001838000
0001838000
000781E000
000601E000
000601E000
000E007000
000E007000
0008007000
0008007000
0008007000
0038001C00
003C003C00
003FFFFC00
0070000E00
00F0000F00
00C0000F00
00C0000700
01C0000380
0180000380
0100000380
1FF0001FF8
0FE0001FF0
0000000000
0000000000
0000000000
ENDCHAR

STARTCHAR jisx0212_2A25
ENCODING 10789
SWIDTH 960 0
DWIDTH 40 0
BBX 40 40 0 -6
BITMAP
0001818000
0001818000
0001FF8000
0000FF0000
00007E0000
0000000000
0000000000
00003C0000
00003C0000
00003C0000
00007E0000
00007E0000
00004E0000
0001C78000
0001C38000
0001838000
0001838000
000781E000
000601E000
000601E000
000E007000
000E007000
0008007000
0008007000
0008007000
0038001C00
003C003C00
003FFFFC00
0070000E00
00F0000F00
00C0000F00
00C0000700
01C0000380
0180000380
0100000380
1FF0001FF8
0FE0001FF0
0000000000
0000000000
0000000000
ENDCHAR

STARTCHAR jisx0212_2A26
ENCODING 10790
SWIDTH 960 0
DWIDTH 40 0
BBX 40 40 0 -6
BITMAP
0007838000
0003878000
0001CE0000
0000FC0000
00007C0000
0000000000
0000000000
00003C0000
00003C0000
00003C0000
00007E0000
00007E0000
00004E0000
0001C78000
0001C38000
0001838000
0001838000
000781E000
000601E000
000601E000
000E007000
000E007000
0008007000
0008007000
0008007000
0038001C00
003C003C00
003FFFFC00
0070000E00
00F0000F00
00C0000F00
00C0000700
01C0000380
0180000380
0100000380
1FF0001FF8
0FE0001FF0
0000000000
0000000000
0000000000
ENDCHAR

STARTCHAR jisx0212_2A27
ENCODING 10791
SWIDTH 960 0
DWIDTH 40 0
BBX 40 40 0 -6
BITMAP
0007FFE000
0003FFC000
0000000000
0000000000
0000000000
0000000000
0000000000
00003C0000
00003C0000
00003C0000
00007E0000
00007E0000
00004E0000
0001C78000
0001C38000
0001838000
0001838000
000781E000
000601E000
000601E000
000E007000
000E007000
0008007000
0008007000
0008007000
0038001C00
003C003C00
003FFFFC00
0070000E00
00F0000F00
00C0000F00
00C0000700
01C0000380
0180000380
0100000380
1FF0001FF8
0FE0001FF0
0000000000
0000000000
0000000000
ENDCHAR

STARTCHAR jisx0212_2A28
ENCODING 10792
SWIDTH 960 0
DWIDTH 40 0
BBX 40 40 0 -6
BITMAP
0000000000
0000000000
0000000000
0000180000
00003C0000
00003C0000
00003C0000
00007E0000
00006E0000
00004E0000
0001C38000
0001C38000
0001838000
000381C000
000781E000
000601E000
000600E000
000E007000
000C007000
0008007000
0008007000
0018007800
0038001C00
003FFFFC00
003FFFFC00
00F0000F00
00E0000F00
00C0000F00
01C0000380
01C0000380
0100000380
03800003C0
1FF0001FF8
00000003C0
0000000380
000000031C
000000031C
00000003FC
00000001F8
00000000F8
ENDCHAR

STARTCHAR jisx0212_2A29
ENCODING 10793
SWIDTH 960 0
DWIDTH 40 0
BBX 40 40 0 -6
BITMAP
00003C0000
00003C0000
0000420000
0000420000
0000420000
00003C0000
00003C0000
00003C0000
00003C0000
00003C0000
00007E0000
00007E0000
00004E0000
0001C78000
0001C38000
0001838000
0001838000
000781E000
000601E000
000601E000
000E007000
000E007000
0008007000
0008007000
0008007000
0038001C00
003C003C00
003FFFFC00
0070000E00
00F0000F00
00C0000F00
00C0000700
01C0000380
0180000380
0100000380
1FF0001FF8
0FE0001FF0
0000000000
0000000000
0000000000
ENDCHAR

STARTCHAR jisx0212_2A2A
ENCODING 10794
SWIDTH 960 0
DWIDTH 40 0
BBX 40 40 0 -6
BITMAP
0001F06000
0001F06000
0007FFE000
00060F8000
00060F8000
0000000000
0000000000
00003C0000
00003C0000
00003C0000
00007E0000
00007E0000
00004E0000
0001C78000
0001C38000
0001838000
0001838000
000781E000
000601E000
000601E000
000E007000
000E007000
0008007000
0008007000
0008007000
0038001C00
003C003C00
003FFFFC00
0070000E00
00F0000F00
00C0000F00
00C0000700
01C0000380
0180000380
0100000380
1FF0001FF8
0FE0001FF0
0000000000
0000000000
0000000000
ENDCHAR

STARTCHAR jisx0212_2A2B
ENCODING 10795
SWIDTH 960 0
DWIDTH 40 0
BBX 40 40 0 -6
BITMAP
0000038000
0000078000
00003F8000
0001F00000
0001F00000
0000000000
0000000000
0001FFE300
000F807F00
000F807F00
0038000F00
0038000700
00F0000380
00F0000180
00F0000080
01C0000080
01C0000080
01C0000000
01C0000000
01C0000000
01C0000000
01C0000000
01C0000000
01C0000000
01C0000000
01C0000000
01C0000000
01C0000080
00E0000080
00F0000080
00F0000380
0070000380
0038000F00
001F007C00
000F807C00
0001FFE000
0001FFC000
0000000000
0000000000
0000000000
ENDCHAR

STARTCHAR jisx0212_2A2C
ENCODING 10796
SWIDTH 960 0
DWIDTH 40 0
BBX 40 40 0 -6
BITMAP
00003E0000
00003F0000
0000738000
0001E1C000
0001C1E000
0000000000
0000000000
0001FFE300
000F807F00
000F807F00
0038000F00
0038000700
00F0000380
00F0000180
00F0000080
01C0000080
01C0000080
01C0000000
01C0000000
01C0000000
01C0000000
01C0000000
01C0000000
01C0000000
01C0000000
01C0000000
01C0000000
01C0000080
00E0000080
00F0000080
00F0000380
0070000380
0038000F00
001F007C00
000F807C00
0001FFE000
0001FFC000
0000000000
0000000000
0000000000
ENDCHAR

STARTCHAR jisx0212_2A2D
ENCODING 10797
SWIDTH 960 0
DWIDTH 40 0
BBX 40 40 0 -6
BITMAP
0001C1E000
0001E1C000
0000738000
00003F0000
00003E0000
0000000000
0000000000
0001FFE300
000F807F00
000F807F00
0038000F00
0038000700
00F0000380
00F0000180
00F0000080
01C0000080
01C0000080
01C0000000
01C0000000
01C0000000
01C0000000
01C0000000
01C0000000
01C0000000
01C0000000
01C0000000
01C0000000
01C0000080
00E0000080
00F0000080
00F0000380
0070000380
0038000F00
001F007C00
000F807C00
0001FFE000
0001FFC000
0000000000
0000000000
0000000000
ENDCHAR

STARTCHAR jisx0212_2A2E
ENCODING 10798
SWIDTH 960 0
DWIDTH 40 0
BBX 40 40 0 -6
BITMAP
0000000000
0000000000
0000000000
0001FFC200
0001FFE300
000F807F00
001F007F00
0038000F00
0070000380
00F0000380
00F0000080
00E0000080
01C0000080
01C0000000
01C0000000
01C0000000
01C0000000
01C0000000
01C0000000
01C0000000
01C0000000
01C0000000
01C0000000
01C0000080
01C0000080
00F0000080
00F0000180
00F0000380
0038000700
0038000F00
000F807C00
000F807C00
0001FFE000
00003C0000
00003C0000
00003E0000
00001F0000
0007838000
0001FF0000
0001FE0000
ENDCHAR

STARTCHAR jisx0212_2A2F
ENCODING 10799
SWIDTH 960 0
DWIDTH 40 0
BBX 40 40 0 -6
BITMAP
00003C0000
00003C0000
00007E0000
00003C0000
00003C0000
0000000000
0000000000
0001FFE300
000F807F00
000F807F00
0038000F00
0038000700
00F0000380
00F0000180
00F0000080
01C0000080
01C0000080
01C0000000
01C0000000
01C0000000
01C0000000
01C0000000
01C0000000
01C0000000
01C0000000
01C0000000
01C0000000
01C0000080
00E0000080
00F0000080
00F0000380
0070000380
0038000F00
001F007C00
000F807C00
0001FFE000
0001FFC000
0000000000
0000000000
0000000000
ENDCHAR

STARTCHAR jisx0212_2A30
ENCODING 10800
SWIDTH 960 0
DWIDTH 40 0
BBX 40 40 0 -6
BITMAP
0007838000
0003878000
0001CE0000
0000FC0000
00007C0000
0000000000
0000000000
07FFFF8000
00F001F000
00F001F000
00F0001C00
00F0001C00
00F0000F00
00F0000F00
00F0000F00
00F0000380
00F0000380
00F0000380
00F0000380
00F0000380
00F0000380
00F0000380
00F0000380
00F0000380
00F0000380
00F0000380
00F0000380
00F0000380
00F0000700
00F0000F00
00F0000F00
00F0000E00
00F0001C00
00F000F800
00F001F000
07FFFF8000
07FFFF8000
0000000000
0000000000
0000000000
ENDCHAR

STARTCHAR jisx0212_2A31
ENCODING 10801
SWIDTH 960 0
DWIDTH 40 0
BBX 40 40 0 -6
BITMAP
0000038000
0000078000
00003F8000
0001F00000
0001F00000
0000000000
0000000000
01FFFFFC00
003C003C00
0038001C00
0038000F00
0038000700
0038000300
0038000300
0038000300
0038006000
0038006000
0038006000
003800E000
003801E000
003FFFE000
003FFFE000
003801E000
0038006000
0038006000
0038006000
0038004000
0038000000
0038000080
0038000080
0038000080
0038000180
0038000380
0038000700
0038000F00
01FFFFFF00
01FFFFFE00
0000000000
0000000000
0000000000
ENDCHAR

STARTCHAR jisx0212_2A32
ENCODING 10802
SWIDTH 960 0
DWIDTH 40 0
BBX 40 40 0 -6
BITMAP
0001C00000
0001E00000
0001FC0000
00000F8000
00000F8000
0000000000
0000000000
01FFFFFC00
003C003C00
0038001C00
0038000F00
0038000700
0038000300
0038000300
0038000300
0038006000
0038006000
0038006000
003800E000
003801E000
003FFFE000
003FFFE000
003801E000
0038006000
0038006000
0038006000
0038004000
0038000000
0038000080
0038000080
0038000080
0038000180
0038000380
0038000700
0038000F00
01FFFFFF00
01FFFFFE00
0000000000
0000000000
0000000000
ENDCHAR

STARTCHAR jisx0212_2A33
ENCODING 10803
SWIDTH 960 0
DWIDTH 40 0
BBX 40 40 0 -6
BITMAP
000781E000
000781E000
000FC3F000
000781E000
000781E000
0000000000
0000000000
01FFFFFC00
003C003C00
0038001C00
0038000F00
0038000700
0038000300
0038000300
0038000300
0038006000
0038006000
0038006000
003800E000
003801E000
003FFFE000
003FFFE000
003801E000
0038006000
0038006000
0038006000
0038004000
0038000000
0038000080
0038000080
0038000080
0038000180
0038000380
0038000700
0038000F00
01FFFFFF00
01FFFFFE00
0000000000
0000000000
0000000000
ENDCHAR

STARTCHAR jisx0212_2A34
ENCODING 10804
SWIDTH 960 0
DWIDTH 40 0
BBX 40 40 0 -6
BITMAP
00007C0000
0000FC0000
0001CE0000
0003878000
0007838000
0000000000
0000000000
01FFFFFC00
003C003C00
0038001C00
0038000F00
0038000700
0038000300
0038000300
0038000300
0038006000
0038006000
0038006000
003800E000
003801E000
003FFFE000
003FFFE000
003801E000
0038006000
0038006000
0038006000
0038004000
0038000000
0038000080
0038000080
0038000080
0038000180
0038000380
0038000700
0038000F00
01FFFFFF00
01FFFFFE00
0000000000
0000000000
0000000000
ENDCHAR

STARTCHAR jisx0212_2A35
ENCODING 10805
SWIDTH 960 0
DWIDTH 40 0
BBX 40 40 0 -6
BITMAP
0007838000
0003878000
0001CE0000
0000FC0000
00007C0000
0000000000
0000000000
01FFFFFC00
003C003C00
0038001C00
0038000F00
0038000700
0038000300
0038000300
0038000300
0038006000
0038006000
0038006000
003800E000
003801E000
003FFFE000
003FFFE000
003801E000
0038006000
0038006000
0038006000
0038004000
0038000000
0038000080
0038000080
0038000080
0038000180
0038000380
0038000700
0038000F00
01FFFFFF00
01FFFFFE00
0000000000
0000000000
0000000000
ENDCHAR

STARTCHAR jisx0212_2A36
ENCODING 10806
SWIDTH 960 0
DWIDTH 40 0
BBX 40 40 0 -6
BITMAP
00003C0000
00003C0000
00007E0000
00003C0000
00003C0000
0000000000
0000000000
01FFFFFC00
003C003C00
0038001C00
0038000F00
0038000700
0038000300
0038000300
0038000300
0038006000
0038006000
0038006000
003800E000
003801E000
003FFFE000
003FFFE000
003801E000
0038006000
0038006000
0038006000
0038004000
0038000000
0038000080
0038000080
0038000080
0038000180
0038000380
0038000700
0038000F00
01FFFFFF00
01FFFFFE00
0000000000
0000000000
0000000000
ENDCHAR

STARTCHAR jisx0212_2A37
ENCODING 10807
SWIDTH 960 0
DWIDTH 40 0
BBX 40 40 0 -6
BITMAP
0007FFE000
0003FFC000
0000000000
0000000000
0000000000
0000000000
0000000000
01FFFFFC00
003C003C00
0038001C00
0038000F00
0038000700
0038000300
0038000300
0038000300
0038006000
0038006000
0038006000
003800E000
003801E000
003FFFE000
003FFFE000
003801E000
0038006000
0038006000
0038006000
0038004000
0038000000
0038000080
0038000080
0038000080
0038000180
0038000380
0038000700
0038000F00
01FFFFFF00
01FFFFFE00
0000000000
0000000000
0000000000
ENDCHAR

STARTCHAR jisx0212_2A38
ENCODING 10808
SWIDTH 960 0
DWIDTH 40 0
BBX 40 40 0 -6
BITMAP
0000000000
0000000000
0000000000
01FFFFFC00
01FFFFFC00
0038001C00
0038001C00
0038000F00
0038000300
0038000300
0038000300
0038000200
0038006000
0038006000
0038006000
003801E000
003C01E000
003FFFE000
003C01E000
003801E000
0038006000
0038006000
0038006000
0038000000
0038000000
0038000080
0038000080
0038000080
0038000380
0038000380
0038000F00
003C000F00
01FFFFFF00
0000078000
0000038000
0000021C00
0000033C00
000003FC00
000001F800
000001F000
ENDCHAR

STARTCHAR jisx0212_2A3A
ENCODING 10810
SWIDTH 960 0
DWIDTH 40 0
BBX 40 40 0 -6
BITMAP
00003E0000
00003F0000
0000738000
0001E1C000
0001C1E000
0000000000
0000000000
0001FFE300
000F807F00
000F807F00
0038000F00
0038000700
00F0000380
00F0000180
00F0000080
01C0000080
01C0000080
01C0000000
01C0000000
01C0000000
01C0000000
01C0000000
01C001FFF8
01C00003C0
01C0000380
01C0000380
01C0000380
01C0000380
00E0000380
00F0000380
00F0000380
0070000380
0038000F80
001F007F80
000F807F80
0001FFE080
0001FFC080
0000000000
0000000000
0000000000
ENDCHAR

STARTCHAR jisx0212_2A3B
ENCODING 10811
SWIDTH 960 0
DWIDTH 40 0
BBX 40 40 0 -6
BITMAP
0001818000
0001818000
0001FF8000
0000FF0000
00007E0000
0000000000
0000000000
0001FFE300
000F807F00
000F807F00
0038000F00
0038000700
00F0000380
00F0000180
00F0000080
01C0000080
01C0000080
01C0000000
01C0000000
01C0000000
01C0000000
01C0000000
01C001FFF8
01C00003C0
01C0000380
01C0000380
01C0000380
01C0000380
00E0000380
00F0000380
00F0000380
0070000380
0038000F80
001F007F80
000F807F80
0001FFE080
0001FFC080
0000000000
0000000000
0000000000
ENDCHAR

STARTCHAR jisx0212_2A3C
ENCODING 10812
SWIDTH 960 0
DWIDTH 40 0
BBX 40 40 0 -6
BITMAP
0000000000
0000000000
0000000000
0001FFC200
0001FFE300
000F807F00
001F007F00
0038000F00
0070000380
00F0000380
00F0000080
00E0000080
01C0000080
01C0000000
01C0000000
01C0000000
01C0000000
01C0000000
01C000FFF0
01C001FFF8
01C0000380
01C0000380
01C0000380
01C0000380
01C0000380
00F0000380
00F0000380
00F0000380
0038000780
0038000F80
000F807F80
000F807F80
0001FFE080
00003C0000
00003C0000
00003E0000
00001F0000
0007838000
0001FF0000
0001FE0000
ENDCHAR

STARTCHAR jisx0212_2A3D
ENCODING 10813
SWIDTH 960 0
DWIDTH 40 0
BBX 40 40 0 -6
BITMAP
00003C0000
00003C0000
00007E0000
00003C0000
00003C0000
0000000000
0000000000
0001FFE300
000F807F00
000F807F00
0038000F00
0038000700
00F0000380
00F0000180
00F0000080
01C0000080
01C0000080
01C0000000
01C0000000
01C0000000
01C0000000
01C0000000
01C001FFF8
01C00003C0
01C0000380
01C0000380
01C0000380
01C0000380
00E0000380
00F0000380
00F0000380
0070000380
0038000F80
001F007F80
000F807F80
0001FFE080
0001FFC080
0000000000
0000000000
0000000000
ENDCHAR

STARTCHAR jisx0212_2A3E
ENCODING 10814
SWIDTH 960 0
DWIDTH 40 0
BBX 40 40 0 -6
BITMAP
00007C0000
0000FC0000
0001CE0000
0003878000
0007838000
0000000000
0000000000
1FF8007FE0
03C0000F00
01C0000F00
01C0000F00
01C0000F00
01C0000F00
01C0000F00
01C0000F00
01C0000F00
01C0000F00
01C0000F00
01C0000F00
01C0000F00
01FFFFFF00
01FFFFFF00
01C0000F00
01C0000F00
01C0000F00
01C0000F00
01C0000F00
01C0000F00
01C0000F00
01C0000F00
01C0000F00
01C0000F00
01C0000F00
01C0000F00
01C0000F00
1FF8007FE0
0FF8007FE0
0000000000
0000000000
0000000000
ENDCHAR

STARTCHAR jisx0212_2A3F
ENCODING 10815
SWIDTH 960 0
DWIDTH 40 0
BBX 40 40 0 -6
BITMAP
0000038000
0000078000
00003F8000
0001F00000
0001F00000
0000000000
0000000000
0001FF8000
00003C0000
00003C0000
00003C0000
00003C0000
00003C0000
00003C0000
00003C0000
00003C0000
00003C0000
00003C0000
00003C0000
00003C0000
00003C0000
00003C0000
00003C0000
00003C0000
00003C0000
00003C0000
00003C0000
00003C0000
00003C0000
00003C0000
00003C0000
00003C0000
00003C0000
00003C0000
00003C0000
0001FF8000
0001FF8000
0000000000
0000000000
0000000000
ENDCHAR

STARTCHAR jisx0212_2A40
ENCODING 10816
SWIDTH 960 0
DWIDTH 40 0
BBX 40 40 0 -6
BITMAP
0001C00000
0001E00000
0001FC0000
00000F8000
00000F8000
0000000000
0000000000
0001FF8000
00003C0000
00003C0000
00003C0000
00003C0000
00003C0000
00003C0000
00003C0000
00003C0000
00003C0000
00003C0000
00003C0000
00003C0000
00003C0000
00003C0000
00003C0000
00003C0000
00003C0000
00003C0000
00003C0000
00003C0000
00003C0000
00003C0000
00003C0000
00003C0000
00003C0000
00003C0000
00003C0000
0001FF8000
0001FF8000
0000000000
0000000000
0000000000
ENDCHAR

STARTCHAR jisx0212_2A41
ENCODING 10817
SWIDTH 960 0
DWIDTH 40 0
BBX 40 40 0 -6
BITMAP
000781E000
000781E000
000FC3F000
000781E000
000781E000
0000000000
0000000000
0001FF8000
00003C0000
00003C0000
00003C0000
00003C0000
00003C0000
00003C0000
00003C0000
00003C0000
00003C0000
00003C0000
00003C0000
00003C0000
00003C0000
00003C0000
00003C0000
00003C0000
00003C0000
00003C0000
00003C0000
00003C0000
00003C0000
00003C0000
00003C0000
00003C0000
00003C0000
00003C0000
00003C0000
0001FF8000
0001FF8000
0000000000
0000000000
0000000000
ENDCHAR

STARTCHAR jisx0212_2A42
ENCODING 10818
SWIDTH 960 0
DWIDTH 40 0
BBX 40 40 0 -6
BITMAP
00007C0000
0000FC0000
0001CE0000
0003878000
0007838000
0000000000
0000000000
0001FF8000
00003C0000
00003C0000
00003C0000
00003C0000
00003C0000
00003C0000
00003C0000
00003C0000
00003C0000
00003C0000
00003C0000
00003C0000
00003C0000
00003C0000
00003C0000
00003C0000
00003C0000
00003C0000
00003C0000
00003C0000
00003C0000
00003C0000
00003C0000
00003C0000
00003C0000
00003C0000
00003C0000
0001FF8000
0001FF8000
0000000000
0000000000
0000000000
ENDCHAR

STARTCHAR jisx0212_2A43
ENCODING 10819
SWIDTH 960 0
DWIDTH 40 0
BBX 40 40 0 -6
BITMAP
0007838000
0003878000
0001CE0000
0000FC0000
00007C0000
0000000000
0000000000
0001FF8000
00003C0000
00003C0000
00003C0000
00003C0000
00003C0000
00003C0000
00003C0000
00003C0000
00003C0000
00003C0000
00003C0000
00003C0000
00003C0000
00003C0000
00003C0000
00003C0000
00003C0000
00003C0000
00003C0000
00003C0000
00003C0000
00003C0000
00003C0000
00003C0000
00003C0000
00003C0000
00003C0000
0001FF8000
0001FF8000
0000000000
0000000000
0000000000
ENDCHAR

STARTCHAR jisx0212_2A44
ENCODING 10820
SWIDTH 960 0
DWIDTH 40 0
BBX 40 40 0 -6
BITMAP
00003C0000
00003C0000
00007E0000
00003C0000
00003C0000
0000000000
0000000000
0001FF8000
00003C0000
00003C0000
00003C0000
00003C0000
00003C0000
00003C0000
00003C0000
00003C0000
00003C0000
00003C0000
00003C0000
00003C0000
00003C0000
00003C0000
00003C0000
00003C0000
00003C0000
00003C0000
00003C0000
00003C0000
00003C0000
00003C0000
00003C0000
00003C0000
00003C0000
00003C0000
00003C0000
0001FF8000
0001FF8000
0000000000
0000000000
0000000000
ENDCHAR

STARTCHAR jisx0212_2A45
ENCODING 10821
SWIDTH 960 0
DWIDTH 40 0
BBX 40 40 0 -6
BITMAP
0007FFE000
0003FFC000
0000000000
0000000000
0000000000
0000000000
0000000000
0001FF8000
00003C0000
00003C0000
00003C0000
00003C0000
00003C0000
00003C0000
00003C0000
00003C0000
00003C0000
00003C0000
00003C0000
00003C0000
00003C0000
00003C0000
00003C0000
00003C0000
00003C0000
00003C0000
00003C0000
00003C0000
00003C0000
00003C0000
00003C0000
00003C0000
00003C0000
00003C0000
00003C0000
0001FF8000
0001FF8000
0000000000
0000000000
0000000000
ENDCHAR

STARTCHAR jisx0212_2A46
ENCODING 10822
SWIDTH 960 0
DWIDTH 40 0
BBX 40 40 0 -6
BITMAP
0000000000
0000000000
0000000000
0001FF8000
0001FF8000
00003C0000
00003C0000
00003C0000
00003C0000
00003C0000
00003C0000
00003C0000
00003C0000
00003C0000
00003C0000
00003C0000
00003C0000
00003C0000
00003C0000
00003C0000
00003C0000
00003C0000
00003C0000
00003C0000
00003C0000
00003C0000
00003C0000
00003C0000
00003C0000
00003C0000
00003C0000
00003C0000
0001FF8000
00003C0000
00003C0000
000031E000
000031E000
00003FE000
00000F8000
00000F8000
ENDCHAR

STARTCHAR jisx0212_2A47
ENCODING 10823
SWIDTH 960 0
DWIDTH 40 0
BBX 40 40 0 -6
BITMAP
0001F06000
0001F06000
0007FFE000
00060F8000
00060F8000
0000000000
0000000000
0001FF8000
00003C0000
00003C0000
00003C0000
00003C0000
00003C0000
00003C0000
00003C0000
00003C0000
00003C0000
00003C0000
00003C0000
00003C0000
00003C0000
00003C0000
00003C0000
00003C0000
00003C0000
00003C0000
00003C0000
00003C0000
00003C0000
00003C0000
00003C0000
00003C0000
00003C0000
00003C0000
00003C0000
0001FF8000
0001FF8000
0000000000
0000000000
0000000000
ENDCHAR

STARTCHAR jisx0212_2A48
ENCODING 10824
SWIDTH 960 0
DWIDTH 40 0
BBX 40 40 0 -6
BITMAP
00007C0000
0000FC0000
0001CE0000
0003878000
0007838000
0000000000
0000000000
00000FFC00
000001E000
000001E000
000001E000
000001E000
000001E000
000001E000
000001E000
000001E000
000001E000
000001E000
000001E000
000001E000
000001E000
000001E000
000001E000
000001E000
000001E000
000001E000
000001E000
003801E000
007E01E000
00FE01E000
00F8038000
0078038000
0038038000
001E0F0000
000E0E0000
0007FC0000
0003F80000
0000000000
0000000000
0000000000
ENDCHAR

STARTCHAR jisx0212_2A49
ENCODING 10825
SWIDTH 960 0
DWIDTH 40 0
BBX 40 40 0 -6
BITMAP
0000000000
0000000000
0000000000
07FE00FF80
07FE01FF80
00F0001C00
00F0003C00
00F0007000
00F000E000
00F001E000
00F0038000
00F0078000
00F00E0000
00F01C0000
00F03C0000
00F07C0000
00F0FC0000
00F1FE0000
00F38E0000
00F78E0000
00FE038000
00FE038000
00F803E000
00F001F000
00F001F000
00F0007000
00F0007800
00F0001C00
00F0001E00
00F0001F00
00F00C0F80
00F00C0FC0
07FE3C7FF8
00003E0000
00003E0000
0000038000
0000038000
0007838000
0001FF0000
0001FE0000
ENDCHAR

STARTCHAR jisx0212_2A4A
ENCODING 10826
SWIDTH 960 0
DWIDTH 40 0
BBX 40 40 0 -6
BITMAP
0000038000
0000078000
00003F8000
0001F00000
0001F00000
0000000000
0000000000
01FF800000
003C000000
0038000000
0038000000
0038000000
0038000000
0038000000
0038000000
0038000000
0038000000
0038000000
0038000000
0038000000
0038000000
0038000000
0038000000
0038000000
0038000000
0038000000
0038000000
0038000000
0038000080
0038000080
0038000080
0038000180
0038000380
0038000700
0038000F00
01FFFFFF00
01FFFFFE00
0000000000
0000000000
0000000000
ENDCHAR

STARTCHAR jisx0212_2A4B
ENCODING 10827
SWIDTH 960 0
DWIDTH 40 0
BBX 40 40 0 -6
BITMAP
0007838000
0003878000
0001CE0000
0000FC0000
00007C0000
0000000000
0000000000
01FF800000
003C000000
0038000000
0038000000
0038000000
0038000000
0038000000
0038000000
0038000000
0038000000
0038000000
0038000000
0038000000
0038000000
0038000000
0038000000
0038000000
0038000000
0038000000
0038000000
0038000000
0038000080
0038000080
0038000080
0038000180
0038000380
0038000700
0038000F00
01FFFFFF00
01FFFFFE00
0000000000
0000000000
0000000000
ENDCHAR

STARTCHAR jisx0212_2A4C
ENCODING 10828
SWIDTH 960 0
DWIDTH 40 0
BBX 40 40 0 -6
BITMAP
0000000000
0000000000
0000000000
01FF000000
01FF800000
0038000000
0038000000
0038000000
0038000000
0038000000
0038000000
0038000000
0038000000
0038000000
0038000000
0038000000
0038000000
0038000000
0038000000
0038000000
0038000000
0038000000
0038000000
0038000000
0038000000
0038000080
0038000080
0038000080
0038000380
0038000380
0038000F00
003C000F00
01FFFFFF00
00003C0000
00003C0000
00003E0000
00001F0000
0007838000
0001FF0000
0001FE0000
ENDCHAR

STARTCHAR jisx0212_2A4D
ENCODING 10829
SWIDTH 960 0
DWIDTH 40 0
BBX 40 40 0 -6
BITMAP
0000038000
0000078000
00003F8000
0001F00000
0001F00000
0000000000
0000000000
1FC0001FE0
03E0000300
01F0000300
01F8000300
01FC000300
013E000300
011E000300
010E000300
0107800300
0107800300
0107C00300
0101F00300
0101F00300
0100700300
0100700300
01003C0300
01003E0300
01003E0300
01000F8300
01000F8300
0100038300
010001C300
010001E300
010001F300
010000FB00
0100007F00
0100003F00
0100001F00
1FF0000F00
0FE0000600
0000000000
0000000000
0000000000
ENDCHAR

STARTCHAR jisx0212_2A4E
ENCODING 10830
SWIDTH 960 0
DWIDTH 40 0
BBX 40 40 0 -6
BITMAP
0007838000
0003878000
0001CE0000
0000FC0000
00007C0000
0000000000
0000000000
1FC0001FE0
03E0000300
01F0000300
01F8000300
01FC000300
013E000300
011E000300
010E000300
0107800300
0107800300
0107C00300
0101F00300
0101F00300
0100700300
0100700300
01003C0300
01003E0300
01003E0300
01000F8300
01000F8300
0100038300
010001C300
010001E300
010001F300
010000FB00
0100007F00
0100003F00
0100001F00
1FF0000F00
0FE0000600
0000000000
0000000000
0000000000
ENDCHAR

STARTCHAR jisx0212_2A4F
ENCODING 10831
SWIDTH 960 0
DWIDTH 40 0
BBX 40 40 0 -6
BITMAP
0000000000
0000000000
0000000000
0FC0001FE0
1FC0001FE0
01F0000300
01F0000300
01F8000300
01BE000300
013E000300
010E000300
010E000300
0107800300
0107C00300
0107C00300
0101F00300
0101F00300
0100700300
0100380300
01003C0300
01003E0300
01001F0300
01000F8300
0100078300
0100038300
010001E300
010001E300
010001F300
0100007F00
0100007F00
01000C1F00
03800C1F00
1FF03C0F00
00003E0000
00003E0000
0000038000
0000038000
0007838000
0001FF0000
0001FE0000
ENDCHAR

STARTCHAR jisx0212_2A50
ENCODING 10832
SWIDTH 960 0
DWIDTH 40 0
BBX 40 40 0 -6
BITMAP
0001F06000
0001F06000
0007FFE000
00060F8000
00060F8000
0000000000
0000000000
1FC0001FE0
03E0000300
01F0000300
01F8000300
01FC000300
013E000300
011E000300
010E000300
0107800300
0107800300
0107C00300
0101F00300
0101F00300
0100700300
0100700300
01003C0300
01003E0300
01003E0300
01000F8300
01000F8300
0100038300
010001C300
010001E300
010001F300
010000FB00
0100007F00
0100003F00
0100001F00
1FF0000F00
0FE0000600
0000000000
0000000000
0000000000
ENDCHAR

STARTCHAR jisx0212_2A51
ENCODING 10833
SWIDTH 960 0
DWIDTH 40 0
BBX 40 40 0 -6
BITMAP
00000E0000
00000E0000
00007E0000
0003E00000
0007C00000
0000000000
0000000000
0007FF8000
003E01F000
003E01F000
00F0001C00
00E0001C00
01C0000F00
01C0000F00
01C0000F00
0700000380
0700000380
0700000380
0700000380
0700000380
0700000380
0700000380
0700000380
0700000380
0700000380
0700000380
0700000380
0700000380
03C0000700
01C0000F00
01C0000F00
01C0000E00
00F0001C00
003E00F800
003E01F000
0007FF8000
0003FF8000
0000000000
0000000000
0000000000
ENDCHAR

STARTCHAR jisx0212_2A52
ENCODING 10834
SWIDTH 960 0
DWIDTH 40 0
BBX 40 40 0 -6
BITMAP
0007800000
0007800000
0007F00000
00003E0000
00003E0000
0000000000
0000000000
0007FF8000
003E01F000
003E01F000
00F0001C00
00E0001C00
01C0000F00
01C0000F00
01C0000F00
0700000380
0700000380
0700000380
0700000380
0700000380
0700000380
0700000380
0700000380
0700000380
0700000380
0700000380
0700000380
0700000380
03C0000700
01C0000F00
01C0000F00
01C0000E00
00F0001C00
003E00F800
003E01F000
0007FF8000
0003FF8000
0000000000
0000000000
0000000000
ENDCHAR

STARTCHAR jisx0212_2A53
ENCODING 10835
SWIDTH 960 0
DWIDTH 40 0
BBX 40 40 0 -6
BITMAP
000E038000
001E078000
003F8FE000
001E078000
000E038000
0000000000
0000000000
0007FF8000
003E01F000
003E01F000
00F0001C00
00E0001C00
01C0000F00
01C0000F00
01C0000F00
0700000380
0700000380
0700000380
0700000380
0700000380
0700000380
0700000380
0700000380
0700000380
0700000380
0700000380
0700000380
0700000380
03C0000700
01C0000F00
01C0000F00
01C0000E00
00F0001C00
003E00F800
003E01F000
0007FF8000
0003FF8000
0000000000
0000000000
0000000000
ENDCHAR

STARTCHAR jisx0212_2A54
ENCODING 10836
SWIDTH 960 0
DWIDTH 40 0
BBX 40 40 0 -6
BITMAP
00007C0000
0000FC0000
0001CE0000
0003878000
0007838000
0000000000
0000000000
0007FF8000
003E01F000
003E01F000
00F0001C00
00E0001C00
01C0000F00
01C0000F00
01C0000F00
0700000380
0700000380
0700000380
0700000380
0700000380
0700000380
0700000380
0700000380
0700000380
0700000380
0700000380
0700000380
0700000380
03C0000700
01C0000F00
01C0000F00
01C0000E00
00F0001C00
003E00F800
003E01F000
0007FF8000
0003FF8000
0000000000
0000000000
0000000000
ENDCHAR

STARTCHAR jisx0212_2A55
ENCODING 10837
SWIDTH 960 0
DWIDTH 40 0
BBX 40 40 0 -6
BITMAP
0007838000
0003878000
0001CE0000
0000FC0000
00007C0000
0000000000
0000000000
0007FF8000
003E01F000
003E01F000
00F0001C00
00E0001C00
01C0000F00
01C0000F00
01C0000F00
0700000380
0700000380
0700000380
0700000380
0700000380
0700000380
0700000380
0700000380
0700000380
0700000380
0700000380
0700000380
0700000380
03C0000700
01C0000F00
01C0000F00
01C0000E00
00F0001C00
003E00F800
003E01F000
0007FF8000
0003FF8000
0000000000
0000000000
0000000000
ENDCHAR

STARTCHAR jisx0212_2A56
ENCODING 10838
SWIDTH 960 0
DWIDTH 40 0
BBX 40 40 0 -6
BITMAP
0001C07000
0001C07000
000FC3F000
003C0F0000
00380E0000
0000000000
0000000000
0007FF8000
003E01F000
003E01F000
00F0001C00
00E0001C00
01C0000F00
01C0000F00
01C0000F00
0700000380
0700000380
0700000380
0700000380
0700000380
0700000380
0700000380
0700000380
0700000380
0700000380
0700000380
0700000380
0700000380
03C0000700
01C0000F00
01C0000F00
01C0000E00
00F0001C00
003E00F800
003E01F000
0007FF8000
0003FF8000
0000000000
0000000000
0000000000
ENDCHAR

STARTCHAR jisx0212_2A57
ENCODING 10839
SWIDTH 960 0
DWIDTH 40 0
BBX 40 40 0 -6
BITMAP
000FFF8000
000FFF8000
0000000000
0000000000
0000000000
0000000000
0000000000
0007FF8000
003E01F000
003E01F000
00F0001C00
00E0001C00
01C0000F00
01C0000F00
01C0000F00
0700000380
0700000380
0700000380
0700000380
0700000380
0700000380
0700000380
0700000380
0700000380
0700000380
0700000380
0700000380
0700000380
03C0000700
01C0000F00
01C0000F00
01C0000E00
00F0001C00
003E00F800
003E01F000
0007FF8000
0003FF8000
0000000000
0000000000
0000000000
ENDCHAR

STARTCHAR jisx0212_2A58
ENCODING 10840
SWIDTH 960 0
DWIDTH 40 0
BBX 40 40 0 -6
BITMAP
0007C18000
0007E18000
000FFF8000
000C3F0000
00083E0000
0000000000
0000000000
0007FF8000
003E01F000
003E01F000
00F0001C00
00E0001C00
01C0000F00
01C0000F00
01C0000F00
0700000380
0700000380
0700000380
0700000380
0700000380
0700000380
0700000380
0700000380
0700000380
0700000380
0700000380
0700000380
0700000380
03C0000700
01C0000F00
01C0000F00
01C0000E00
00F0001C00
003E00F800
003E01F000
0007FF8000
0003FF8000
0000000000
0000000000
0000000000
ENDCHAR

STARTCHAR jisx0212_2A59
ENCODING 10841
SWIDTH 960 0
DWIDTH 40 0
BBX 40 40 0 -6
BITMAP
0000038000
0000078000
00003F8000
0001F00000
0001F00000
0000000000
0000000000
01FFFFF000
003C003C00
0038001C00
0038000F00
0038000F00
0038000F00
0038000F00
0038000F00
0038000F00
0038000F00
0038000F00
0038001C00
0038001C00
003FFFF000
003FFFF000
0038007000
0038003000
0038001000
0038001C00
0038001C00
0038001C00
0038001C00
0038001C00
0038001C00
0038001C00
0038001C18
0038000E38
0038000F78
01FF8003E0
01FF0003E0
0000000000
0000000000
0000000000
ENDCHAR

STARTCHAR jisx0212_2A5A
ENCODING 10842
SWIDTH 960 0
DWIDTH 40 0
BBX 40 40 0 -6
BITMAP
0007838000
0003878000
0001CE0000
0000FC0000
00007C0000
0000000000
0000000000
01FFFFF000
003C003C00
0038001C00
0038000F00
0038000F00
0038000F00
0038000F00
0038000F00
0038000F00
0038000F00
0038000F00
0038001C00
0038001C00
003FFFF000
003FFFF000
0038007000
0038003000
0038001000
0038001C00
0038001C00
0038001C00
0038001C00
0038001C00
0038001C00
0038001C00
0038001C18
0038000E38
0038000F78
01FF8003E0
01FF0003E0
0000000000
0000000000
0000000000
ENDCHAR

STARTCHAR jisx0212_2A5B
ENCODING 10843
SWIDTH 960 0
DWIDTH 40 0
BBX 40 40 0 -6
BITMAP
0000000000
0000000000
0000000000
01FFFFF000
01FFFFF000
0038001C00
0038001C00
0038000F00
0038000F00
0038000F00
0038000F00
0038000F00
0038000F00
0038000F00
0038000F00
0038001C00
003C003C00
003FFFF000
003C007000
0038007000
0038001000
0038001800
0038001C00
0038001C00
0038001C00
0038001C00
0038001C00
0038001C00
0038001C10
0038001C18
00380C0F78
003C0C0770
01FFBC03E0
00003E0000
00003E0000
0000038000
0000038000
0007838000
0001FF0000
0001FE0000
ENDCHAR

STARTCHAR jisx0212_2A5C
ENCODING 10844
SWIDTH 960 0
DWIDTH 40 0
BBX 40 40 0 -6
BITMAP
0000038000
0000078000
00003F8000
0001F00000
0001F00000
0000000000
0000000000
0007FE1000
003E07F000
003E03F000
0038007000
0038007800
00F0001C00
00F0000C00
00F0000C00
00F0000C00
0070000400
0038000000
003FC00000
003FC00000
0007FE0000
0003FF0000
00003FE000
000001FC00
000001FC00
0000001F00
0000001F00
00C0000F00
00C0000F00
00C0000F00
00F0000F00
0070000E00
0038001C00
003F007C00
003F807C00
0031FFE000
0021FFC000
0000000000
0000000000
0000000000
ENDCHAR

STARTCHAR jisx0212_2A5D
ENCODING 10845
SWIDTH 960 0
DWIDTH 40 0
BBX 40 40 0 -6
BITMAP
00007C0000
0000FC0000
0001CE0000
0003878000
0007838000
0000000000
0000000000
0007FE1000
003E07F000
003E03F000
0038007000
0038007800
00F0001C00
00F0000C00
00F0000C00
00F0000C00
0070000400
0038000000
003FC00000
003FC00000
0007FE0000
0003FF0000
00003FE000
000001FC00
000001FC00
0000001F00
0000001F00
00C0000F00
00C0000F00
00C0000F00
00F0000F00
0070000E00
0038001C00
003F007C00
003F807C00
0031FFE000
0021FFC000
0000000000
0000000000
0000000000
ENDCHAR

STARTCHAR jisx0212_2A5E
ENCODING 10846
SWIDTH 960 0
DWIDTH 40 0
BBX 40 40 0 -6
BITMAP
0007838000
0003878000
0001CE0000
0000FC0000
00007C0000
0000000000
0000000000
0007FE1000
003E07F000
003E03F000
0038007000
0038007800
00F0001C00
00F0000C00
00F0000C00
00F0000C00
0070000400
0038000000
003FC00000
003FC00000
0007FE0000
0003FF0000
00003FE000
000001FC00
000001FC00
0000001F00
0000001F00
00C0000F00
00C0000F00
00C0000F00
00F0000F00
0070000E00
0038001C00
003F007C00
003F807C00
0031FFE000
0021FFC000
0000000000
0000000000
0000000000
ENDCHAR

STARTCHAR jisx0212_2A5F
ENCODING 10847
SWIDTH 960 0
DWIDTH 40 0
BBX 40 40 0 -6
BITMAP
0000000000
0000000000
0000000000
0003FE1000
0007FE1000
003E03F000
003E03F000
0038007000
0070003C00
00F0001C00
00F0000C00
00F0000C00
00F0000C00
0038000000
0038000000
003FC00000
003FE00000
0007FE0000
00003FC000
00003FE000
000001FC00
000000FC00
0000001F00
0040000F00
00C0000F00
00C0000F00
00C0000F00
00F0000F00
0038001C00
0038001C00
003F807C00
003F807C00
0031FFE000
00003C0000
00003C0000
00003E0000
00001F0000
0007838000
0001FF0000
0001FE0000
ENDCHAR

STARTCHAR jisx0212_2A60
ENCODING 10848
SWIDTH 960 0
DWIDTH 40 0
BBX 40 40 0 -6
BITMAP
0007838000
0003878000
0001CE0000
0000FC0000
00007C0000
0000000000
0000000000
01FFFFFF80
01C03C0380
01C03C0380
07003C00E0
07003C00E0
06003C0060
06003C0060
06003C0060
00003C0000
00003C0000
00003C0000
00003C0000
00003C0000
00003C0000
00003C0000
00003C0000
00003C0000
00003C0000
00003C0000
00003C0000
00003C0000
00003C0000
00003C0000
00003C0000
00003C0000
00003C0000
00003C0000
00003C0000
0001FF8000
0001FF8000
0000000000
0000000000
0000000000
ENDCHAR

STARTCHAR jisx0212_2A61
ENCODING 10849
SWIDTH 960 0
DWIDTH 40 0
BBX 40 40 0 -6
BITMAP
0000000000
0000000000
0000000000
01FFFFFF80
01FFFFFF80
01C03C0380
03C03C03C0
07003C00E0
06003C0060
06003C0060
06003C0060
04003C0020
00003C0000
00003C0000
00003C0000
00003C0000
00003C0000
00003C0000
00003C0000
00003C0000
00003C0000
00003C0000
00003C0000
00003C0000
00003C0000
00003C0000
00003C0000
00003C0000
00003C0000
00003C0000
00003C0000
00003C0000
0001FF8000
00003C0000
00003C0000
00003E0000
00001F0000
0007838000
0001FF0000
0001FE0000
ENDCHAR

STARTCHAR jisx0212_2A62
ENCODING 10850
SWIDTH 960 0
DWIDTH 40 0
BBX 40 40 0 -6
BITMAP
0000038000
0000078000
00003F8000
0001F00000
0001F00000
0000000000
0000000000
07FE001FE0
00F0000300
00F0000300
00F0000300
00F0000300
00F0000300
00F0000300
00F0000300
00F0000300
00F0000300
00F0000300
00F0000300
00F0000300
00F0000300
00F0000300
00F0000300
00F0000300
00F0000300
00F0000300
00F0000300
00F0000300
00F0000700
00F0000F00
0038000C00
0038000C00
0038001C00
001F00F800
000F81F000
0001FF8000
0001FF8000
0000000000
0000000000
0000000000
ENDCHAR

STARTCHAR jisx0212_2A63
ENCODING 10851
SWIDTH 960 0
DWIDTH 40 0
BBX 40 40 0 -6
BITMAP
0001C00000
0001E00000
0001FC0000
00000F8000
00000F8000
0000000000
0000000000
07FE001FE0
00F0000300
00F0000300
00F0000300
00F0000300
00F0000300
00F0000300
00F0000300
00F0000300
00F0000300
00F0000300
00F0000300
00F0000300
00F0000300
00F0000300
00F0000300
00F0000300
00F0000300
00F0000300
00F0000300
00F0000300
00F0000700
00F0000F00
0038000C00
0038000C00
0038001C00
001F00F800
000F81F000
0001FF8000
0001FF8000
0000000000
0000000000
0000000000
ENDCHAR

STARTCHAR jisx0212_2A64
ENCODING 10852
SWIDTH 960 0
DWIDTH 40 0
BBX 40 40 0 -6
BITMAP
000781E000
000781E000
000FC3F000
000781E000
000781E000
0000000000
0000000000
07FE001FE0
00F0000300
00F0000300
00F0000300
00F0000300
00F0000300
00F0000300
00F0000300
00F0000300
00F0000300
00F0000300
00F0000300
00F0000300
00F0000300
00F0000300
00F0000300
00F0000300
00F0000300
00F0000300
00F0000300
00F0000300
00F0000700
00F0000F00
0038000C00
0038000C00
0038001C00
001F00F800
000F81F000
0001FF8000
0001FF8000
0000000000
0000000000
0000000000
ENDCHAR

STARTCHAR jisx0212_2A65
ENCODING 10853
SWIDTH 960 0
DWIDTH 40 0
BBX 40 40 0 -6
BITMAP
00003E0000
00003F0000
0000738000
0001E1C000
0001C1E000
0000000000
0000000000
07FE001FE0
00F0000300
00F0000300
00F0000300
00F0000300
00F0000300
00F0000300
00F0000300
00F0000300
00F0000300
00F0000300
00F0000300
00F0000300
00F0000300
00F0000300
00F0000300
00F0000300
00F0000300
00F0000300
00F0000300
00F0000300
00F0000700
00F0000F00
0038000C00
0038000C00
0038001C00
001F00F800
000F81F000
0001FF8000
0001FF8000
0000000000
0000000000
0000000000
ENDCHAR

STARTCHAR jisx0212_2A66
ENCODING 10854
SWIDTH 960 0
DWIDTH 40 0
BBX 40 40 0 -6
BITMAP
0001818000
0001818000
0001FF8000
0000FF0000
00007E0000
0000000000
0000000000
07FE001FE0
00F0000300
00F0000300
00F0000300
00F0000300
00F0000300
00F0000300
00F0000300
00F0000300
00F0000300
00F0000300
00F0000300
00F0000300
00F0000300
00F0000300
00F0000300
00F0000300
00F0000300
00F0000300
00F0000300
00F0000300
00F0000700
00F0000F00
0038000C00
0038000C00
0038001C00
001F00F800
000F81F000
0001FF8000
0001FF8000
0000000000
0000000000
0000000000
ENDCHAR

STARTCHAR jisx0212_2A67
ENCODING 10855
SWIDTH 960 0
DWIDTH 40 0
BBX 40 40 0 -6
BITMAP
0001C1E000
0001E1C000
0000738000
00003F0000
00003E0000
0000000000
0000000000
07FE001FE0
00F0000300
00F0000300
00F0000300
00F0000300
00F0000300
00F0000300
00F0000300
00F0000300
00F0000300
00F0000300
00F0000300
00F0000300
00F0000300
00F0000300
00F0000300
00F0000300
00F0000300
00F0000300
00F0000300
00F0000300
00F0000700
00F0000F00
0038000C00
0038000C00
0038001C00
001F00F800
000F81F000
0001FF8000
0001FF8000
0000000000
0000000000
0000000000
ENDCHAR

STARTCHAR jisx0212_2A68
ENCODING 10856
SWIDTH 960 0
DWIDTH 40 0
BBX 40 40 0 -6
BITMAP
0000701C00
0000F03C00
0007F1FC00
000E038000
000E038000
0000000000
0000000000
07FE001FE0
00F0000300
00F0000300
00F0000300
00F0000300
00F0000300
00F0000300
00F0000300
00F0000300
00F0000300
00F0000300
00F0000300
00F0000300
00F0000300
00F0000300
00F0000300
00F0000300
00F0000300
00F0000300
00F0000300
00F0000300
00F0000700
00F0000F00
0038000C00
0038000C00
0038001C00
001F00F800
000F81F000
0001FF8000
0001FF8000
0000000000
0000000000
0000000000
ENDCHAR

STARTCHAR jisx0212_2A69
ENCODING 10857
SWIDTH 960 0
DWIDTH 40 0
BBX 40 40 0 -6
BITMAP
0007FFE000
0003FFC000
0000000000
0000000000
0000000000
0000000000
0000000000
07FE001FE0
00F0000300
00F0000300
00F0000300
00F0000300
00F0000300
00F0000300
00F0000300
00F0000300
00F0000300
00F0000300
00F0000300
00F0000300
00F0000300
00F0000300
00F0000300
00F0000300
00F0000300
00F0000300
00F0000300
00F0000300
00F0000700
00F0000F00
0038000C00
0038000C00
0038001C00
001F00F800
000F81F000
0001FF8000
0001FF8000
0000000000
0000000000
0000000000
ENDCHAR

STARTCHAR jisx0212_2A6A
ENCODING 10858
SWIDTH 960 0
DWIDTH 40 0
BBX 40 40 0 -6
BITMAP
0000000000
0000000000
0000000000
07FE001FE0
07FE001FE0
00F0000300
00F0000300
00F0000300
00F0000300
00F0000300
00F0000300
00F0000300
00F0000300
00F0000300
00F0000300
00F0000300
00F0000300
00F0000300
00F0000300
00F0000300
00F0000300
00F0000300
00F0000300
00F0000300
00F0000300
00F0000F00
0070000E00
0038000C00
0038001C00
0038001C00
000F81F000
000F81F000
0001FF8000
00003C0000
00003C0000
000031E000
000031E000
00003FE000
00000F8000
00000F8000
ENDCHAR

STARTCHAR jisx0212_2A6B
ENCODING 10859
SWIDTH 960 0
DWIDTH 40 0
BBX 40 40 0 -6
BITMAP
00003C0000
00003C0000
0000420000
0000420000
0000420000
00003C0000
0000180000
07FE001FE0
00F0000300
00F0000300
00F0000300
00F0000300
00F0000300
00F0000300
00F0000300
00F0000300
00F0000300
00F0000300
00F0000300
00F0000300
00F0000300
00F0000300
00F0000300
00F0000300
00F0000300
00F0000300
00F0000300
00F0000300
00F0000700
00F0000F00
0038000C00
0038000C00
0038001C00
001F00F800
000F81F000
0001FF8000
0001FF8000
0000000000
0000000000
0000000000
ENDCHAR

STARTCHAR jisx0212_2A6C
ENCODING 10860
SWIDTH 960 0
DWIDTH 40 0
BBX 40 40 0 -6
BITMAP
0001F06000
0001F06000
0007FFE000
00060F8000
00060F8000
0000000000
0000000000
07FE001FE0
00F0000300
00F0000300
00F0000300
00F0000300
00F0000300
00F0000300
00F0000300
00F0000300
00F0000300
00F0000300
00F0000300
00F0000300
00F0000300
00F0000300
00F0000300
00F0000300
00F0000300
00F0000300
00F0000300
00F0000300
00F0000700
00F0000F00
0038000C00
0038000C00
0038001C00
001F00F800
000F81F000
0001FF8000
0001FF8000
0000000000
0000000000
0000000000
ENDCHAR

STARTCHAR jisx0212_2A6D
ENCODING 10861
SWIDTH 960 0
DWIDTH 40 0
BBX 40 40 0 -6
BITMAP
000001E000
000001E000
00000FE000
00007C0000
00007C0000
000781E000
000781E000
000FC3F000
000781E000
000781E000
07FE001FE0
07FE001FE0
00F0000300
00F0000300
00F0000300
00F0000300
00F0000300
00F0000300
00F0000300
00F0000300
00F0000300
00F0000300
00F0000300
00F0000300
00F0000300
00F0000300
00F0000300
00F0000300
00F0000700
00F0000F00
0038000C00
0038000C00
0038001C00
001F00F800
000F81F000
0001FF8000
0001FF8000
0000000000
0000000000
0000000000
ENDCHAR

STARTCHAR jisx0212_2A6E
ENCODING 10862
SWIDTH 960 0
DWIDTH 40 0
BBX 40 40 0 -6
BITMAP
0007800000
0007800000
0007F00000
00003E0000
00003E0000
000781E000
000781E000
000FC3F000
000781E000
000781E000
07FE001FE0
07FE001FE0
00F0000300
00F0000300
00F0000300
00F0000300
00F0000300
00F0000300
00F0000300
00F0000300
00F0000300
00F0000300
00F0000300
00F0000300
00F0000300
00F0000300
00F0000300
00F0000300
00F0000700
00F0000F00
0038000C00
0038000C00
0038001C00
001F00F800
000F81F000
0001FF8000
0001FF8000
0000000000
0000000000
0000000000
ENDCHAR

STARTCHAR jisx0212_2A6F
ENCODING 10863
SWIDTH 960 0
DWIDTH 40 0
BBX 40 40 0 -6
BITMAP
0007838000
0003878000
0001CE0000
0000FC0000
00007C0000
000781E000
000781E000
000FC3F000
000781E000
000781E000
07FE001FE0
07FE001FE0
00F0000300
00F0000300
00F0000300
00F0000300
00F0000300
00F0000300
00F0000300
00F0000300
00F0000300
00F0000300
00F0000300
00F0000300
00F0000300
00F0000300
00F0000300
00F0000300
00F0000700
00F0000F00
0038000C00
0038000C00
0038001C00
001F00F800
000F81F000
0001FF8000
0001FF8000
0000000000
0000000000
0000000000
ENDCHAR

STARTCHAR jisx0212_2A70
ENCODING 10864
SWIDTH 960 0
DWIDTH 40 0
BBX 40 40 0 -6
BITMAP
0007FFE000
0003FFC000
0000000000
0000000000
0000000000
000781E000
000781E000
000FC3F000
000781E000
000781E000
07FE001FE0
07FE001FE0
00F0000300
00F0000300
00F0000300
00F0000300
00F0000300
00F0000300
00F0000300
00F0000300
00F0000300
00F0000300
00F0000300
00F0000300
00F0000300
00F0000300
00F0000300
00F0000300
00F0000700
00F0000F00
0038000C00
0038000C00
0038001C00
001F00F800
000F81F000
0001FF8000
0001FF8000
0000000000
0000000000
0000000000
ENDCHAR

STARTCHAR jisx0212_2A71
ENCODING 10865
SWIDTH 960 0
DWIDTH 40 0
BBX 40 40 0 -6
BITMAP
00007C0000
0000FC0000
0001CE0000
0003878000
0007838000
0000000000
0000000000
FFC03C03FC
1E003C0060
1E003C0060
1E003C0060
1E003C0060
1E003C0060
07007E00E0
07007E00E0
07004E0080
07004E0080
07004E0080
03C1C78380
01C1C38380
01C1838300
01C1838300
01C1838300
01C1838300
01C1838300
00F781EF00
00F701EE00
00F601EC00
00F601EC00
00F601EC00
003E007C00
003E007C00
0038007000
0038007000
0038007000
0038007000
0038007000
0000000000
0000000000
0000000000
ENDCHAR

STARTCHAR jisx0212_2A72
ENCODING 10866
SWIDTH 960 0
DWIDTH 40 0
BBX 40 40 0 -6
BITMAP
0000038000
0000078000
00003F8000
0001F00000
0001F00000
0000000000
0000000000
07FE007FE0
00F0000F00
00F0000F00
0038001C00
0038001C00
0038001000
001E007000
000E007000
000E006000
000E006000
000781E000
0007818000
0007818000
0001C38000
0001C38000
0001C20000
0000FE0000
00007E0000
00007C0000
00007C0000
00003C0000
00003C0000
00003C0000
00003C0000
00003C0000
00003C0000
00003C0000
00003C0000
0001FF8000
0001FF8000
0000000000
0000000000
0000000000
ENDCHAR

STARTCHAR jisx0212_2A73
ENCODING 10867
SWIDTH 960 0
DWIDTH 40 0
BBX 40 40 0 -6
BITMAP
000781E000
000781E000
000FC3F000
000781E000
000781E000
0000000000
0000000000
07FE007FE0
00F0000F00
00F0000F00
0038001C00
0038001C00
0038001000
001E007000
000E007000
000E006000
000E006000
000781E000
0007818000
0007818000
0001C38000
0001C38000
0001C20000
0000FE0000
00007E0000
00007C0000
00007C0000
00003C0000
00003C0000
00003C0000
00003C0000
00003C0000
00003C0000
00003C0000
00003C0000
0001FF8000
0001FF8000
0000000000
0000000000
0000000000
ENDCHAR

STARTCHAR jisx0212_2A74
ENCODING 10868
SWIDTH 960 0
DWIDTH 40 0
BBX 40 40 0 -6
BITMAP
00007C0000
0000FC0000
0001CE0000
0003878000
0007838000
0000000000
0000000000
07FE007FE0
00F0000F00
00F0000F00
0038001C00
0038001C00
0038001000
001E007000
000E007000
000E006000
000E006000
000781E000
0007818000
0007818000
0001C38000
0001C38000
0001C20000
0000FE0000
00007E0000
00007C0000
00007C0000
00003C0000
00003C0000
00003C0000
00003C0000
00003C0000
00003C0000
00003C0000
00003C0000
0001FF8000
0001FF8000
0000000000
0000000000
0000000000
ENDCHAR

STARTCHAR jisx0212_2A75
ENCODING 10869
SWIDTH 960 0
DWIDTH 40 0
BBX 40 40 0 -6
BITMAP
0000038000
0000078000
00003F8000
0001F00000
0001F00000
0000000000
0000000000
003FFFFF00
003C003F00
0038001F00
00F0007C00
00E0007C00
00C0007000
00C000E000
00C001E000
000003E000
000007C000
00000F8000
00001F0000
00003E0000
00003C0000
00003C0000
00007C0000
0001F00000
0001F00000
0007C00000
0007C00000
0007800000
000E000080
000E000080
003E000080
003E000180
00F8000380
01F0000700
01F0000F00
01FFFFFF00
01FFFFFE00
0000000000
0000000000
0000000000
ENDCHAR

STARTCHAR jisx0212_2A76
ENCODING 10870
SWIDTH 960 0
DWIDTH 40 0
BBX 40 40 0 -6
BITMAP
0007838000
0003878000
0001CE0000
0000FC0000
00007C0000
0000000000
0000000000
003FFFFF00
003C003F00
0038001F00
00F0007C00
00E0007C00
00C0007000
00C000E000
00C001E000
000003E000
000007C000
00000F8000
00001F0000
00003E0000
00003C0000
00003C0000
00007C0000
0001F00000
0001F00000
0007C00000
0007C00000
0007800000
000E000080
000E000080
003E000080
003E000180
00F8000380
01F0000700
01F0000F00
01FFFFFF00
01FFFFFE00
0000000000
0000000000
0000000000
ENDCHAR

STARTCHAR jisx0212_2A77
ENCODING 10871
SWIDTH 960 0
DWIDTH 40 0
BBX 40 40 0 -6
BITMAP
00003C0000
00003C0000
00007E0000
00003C0000
00003C0000
0000000000
0000000000
003FFFFF00
003C003F00
0038001F00
00F0007C00
00E0007C00
00C0007000
00C000E000
00C001E000
000003E000
000007C000
00000F8000
00001F0000
00003E0000
00003C0000
00003C0000
00007C0000
0001F00000
0001F00000
0007C00000
0007C00000
0007800000
000E000080
000E000080
003E000080
003E000180
00F8000380
01F0000700
01F0000F00
01FFFFFF00
01FFFFFE00
0000000000
0000000000
0000000000
ENDCHAR

STARTCHAR jisx0212_2B21
ENCODING 11041
SWIDTH 960 0
DWIDTH 40 0
BBX 40 40 0 -6
BITMAP
0000000000
0000000000
0000000000
0000038000
0000038000
00003F8000
00003F8000
0001F00000
0000000000
0000000000
0000000000
0000000000
0000000000
000FFF8000
000FFF8000
003E01E000
003E00E000
003F807000
001E007000
000E007000
000001F000
000001F000
00003FF000
0003F07000
0007F07000
003E007000
003E007000
00F8007000
00F0007000
00F0007000
00F0007000
00F0007000
00F001F300
003803FF00
003803FF00
000FFE1C00
000FFE1C00
0000000000
0000000000
0000000000
ENDCHAR

STARTCHAR jisx0212_2B22
ENCODING 11042
SWIDTH 960 0
DWIDTH 40 0
BBX 40 40 0 -6
BITMAP
0000000000
0000000000
0000000000
0001C00000
0001C00000
0001FC0000
0001FC0000
00000F8000
0000000000
0000000000
0000000000
0000000000
0000000000
000FFF8000
000FFF8000
003E01E000
003E00E000
003F807000
001E007000
000E007000
000001F000
000001F000
00003FF000
0003F07000
0007F07000
003E007000
003E007000
00F8007000
00F0007000
00F0007000
00F0007000
00F0007000
00F001F300
003803FF00
003803FF00
000FFE1C00
000FFE1C00
0000000000
0000000000
0000000000
ENDCHAR

STARTCHAR jisx0212_2B23
ENCODING 11043
SWIDTH 960 0
DWIDTH 40 0
BBX 40 40 0 -6
BITMAP
0000000000
0000000000
0000000000
000300C000
000781E000
000FC3F000
000FC3F000
000781E000
0000000000
0000000000
0000000000
0000000000
0000000000
000FFF8000
000FFF8000
003E01E000
003E00E000
003F807000
001E007000
000E007000
000001F000
000001F000
00003FF000
0003F07000
0007F07000
003E007000
003E007000
00F8007000
00F0007000
00F0007000
00F0007000
00F0007000
00F001F300
003803FF00
003803FF00
000FFE1C00
000FFE1C00
0000000000
0000000000
0000000000
ENDCHAR

STARTCHAR jisx0212_2B24
ENCODING 11044
SWIDTH 960 0
DWIDTH 40 0
BBX 40 40 0 -6
BITMAP
0000000000
0000000000
0000000000
0000780000
00007C0000
0001CE0000
0001CF0000
0007838000
0000000000
0000000000
0000000000
0000000000
0000000000
000FFF8000
000FFF8000
003E01E000
003E00E000
003F807000
001E007000
000E007000
000001F000
000001F000
00003FF000
0003F07000
0007F07000
003E007000
003E007000
00F8007000
00F0007000
00F0007000
00F0007000
00F0007000
00F001F300
003803FF00
003803FF00
000FFE1C00
000FFE1C00
0000000000
0000000000
0000000000
ENDCHAR

STARTCHAR jisx0212_2B25
ENCODING 11045
SWIDTH 960 0
DWIDTH 40 0
BBX 40 40 0 -6
BITMAP
0000000000
0000000000
0000000000
0001008000
0001818000
0001FF8000
0001FF8000
00007E0000
0000000000
0000000000
0000000000
0000000000
0000000000
000FFF8000
000FFF8000
003E01E000
003E00E000
003F807000
001E007000
000E007000
000001F000
000001F000
00003FF000
0003F07000
0007F07000
003E007000
003E007000
00F8007000
00F0007000
00F0007000
00F0007000
00F0007000
00F001F300
003803FF00
003803FF00
000FFE1C00
000FFE1C00
0000000000
0000000000
0000000000
ENDCHAR

STARTCHAR jisx0212_2B26
ENCODING 11046
SWIDTH 960 0
DWIDTH 40 0
BBX 40 40 0 -6
BITMAP
0000000000
0000000000
0000000000
0003038000
0007838000
0001CE0000
0001EE0000
00007C0000
0000000000
0000000000
0000000000
0000000000
0000000000
000FFF8000
000FFF8000
003E01E000
003E00E000
003F807000
001E007000
000E007000
000001F000
000001F000
00003FF000
0003F07000
0007F07000
003E007000
003E007000
00F8007000
00F0007000
00F0007000
00F0007000
00F0007000
00F001F300
003803FF00
003803FF00
000FFE1C00
000FFE1C00
0000000000
0000000000
0000000000
ENDCHAR

STARTCHAR jisx0212_2B27
ENCODING 11047
SWIDTH 960 0
DWIDTH 40 0
BBX 40 40 0 -6
BITMAP
0000000000
0000000000
0000000000
0000000000
0000000000
0007FFE000
0003FFC000
0000000000
0000000000
0000000000
0000000000
0000000000
0000000000
000FFF8000
000FFF8000
003E01E000
003E00E000
003F807000
001E007000
000E007000
000001F000
000001F000
00003FF000
0003F07000
0007F07000
003E007000
003E007000
00F8007000
00F0007000
00F0007000
00F0007000
00F0007000
00F001F300
003803FF00
003803FF00
000FFE1C00
000FFE1C00
0000000000
0000000000
0000000000
ENDCHAR

STARTCHAR jisx0212_2B28
ENCODING 11048
SWIDTH 960 0
DWIDTH 40 0
BBX 40 40 0 -6
BITMAP
0000000000
0000000000
0000000000
0000000000
0000000000
0000000000
0000000000
0000000000
0000000000
0000000000
0000000000
0000000000
0000000000
000FFF8000
000FFF8000
003E01E000
003E00E000
003F807000
001E007000
000E007000
000001F000
000001F000
00007FF000
000FE07000
000FC07000
00F8007000
00F8007000
00F0007000
00F0007000
00F0007000
00F001F300
007001FB00
003803FF00
001FFF7C00
000FFE7C00
0000006000
0000006000
0000007F00
0000003F00
0000001F00
ENDCHAR

STARTCHAR jisx0212_2B29
ENCODING 11049
SWIDTH 960 0
DWIDTH 40 0
BBX 40 40 0 -6
BITMAP
0000000000
0000000000
0000000000
0000180000
00003C0000
0000420000
0000420000
0000420000
00003C0000
00003C0000
0000000000
0000000000
0000000000
000FFF8000
000FFF8000
003E01E000
003E00E000
003F807000
001E007000
000E007000
000001F000
000001F000
00003FF000
0003F07000
0007F07000
003E007000
003E007000
00F8007000
00F0007000
00F0007000
00F0007000
00F0007000
00F001F300
003803FF00
003803FF00
000FFE1C00
000FFE1C00
0000000000
0000000000
0000000000
ENDCHAR

STARTCHAR jisx0212_2B2A
ENCODING 11050
SWIDTH 960 0
DWIDTH 40 0
BBX 40 40 0 -6
BITMAP
0000000000
0000000000
0000000000
0001F04000
0001F06000
0007FFE000
0007FFC000
00060F8000
0000000000
0000000000
0000000000
0000000000
0000000000
000FFF8000
000FFF8000
003E01E000
003E00E000
003F807000
001E007000
000E007000
000001F000
000001F000
00003FF000
0003F07000
0007F07000
003E007000
003E007000
00F8007000
00F0007000
00F0007000
00F0007000
00F0007000
00F001F300
003803FF00
003803FF00
000FFE1C00
000FFE1C00
0000000000
0000000000
0000000000
ENDCHAR

STARTCHAR jisx0212_2B2B
ENCODING 11051
SWIDTH 960 0
DWIDTH 40 0
BBX 40 40 0 -6
BITMAP
0000000000
0000000000
0000000000
00000E0000
00000E0000
00007E0000
0000FE0000
0007C00000
0000000000
0000000000
0000000000
0000000000
0000000000
0001FE0000
0001FE0000
000F83E000
001F03E000
0038007000
003800FC00
003801FC00
00F001FC00
00F000FC00
00F0007000
00F0000000
00F0000000
00F0000000
00F0000000
00F0000000
00F0000400
00F0000C00
0038001C00
0038003C00
0038007000
001F03E000
000F83E000
0001FE0000
0001FE0000
0000000000
0000000000
0000000000
ENDCHAR

STARTCHAR jisx0212_2B2C
ENCODING 11052
SWIDTH 960 0
DWIDTH 40 0
BBX 40 40 0 -6
BITMAP
0000000000
0000000000
0000000000
0000780000
00007C0000
0001CE0000
0001CF0000
0007838000
0000000000
0000000000
0000000000
0000000000
0000000000
0001FE0000
0001FE0000
000F83E000
001F03E000
0038007000
003800FC00
003801FC00
00F001FC00
00F000FC00
00F0007000
00F0000000
00F0000000
00F0000000
00F0000000
00F0000000
00F0000400
00F0000C00
0038001C00
0038003C00
0038007000
001F03E000
000F83E000
0001FE0000
0001FE0000
0000000000
0000000000
0000000000
ENDCHAR

STARTCHAR jisx0212_2B2D
ENCODING 11053
SWIDTH 960 0
DWIDTH 40 0
BBX 40 40 0 -6
BITMAP
0000000000
0000000000
0000000000
0003038000
0007838000
0001CE0000
0001EE0000
00007C0000
0000000000
0000000000
0000000000
0000000000
0000000000
0001FE0000
0001FE0000
000F83E000
001F03E000
0038007000
003800FC00
003801FC00
00F001FC00
00F000FC00
00F0007000
00F0000000
00F0000000
00F0000000
00F0000000
00F0000000
00F0000400
00F0000C00
0038001C00
0038003C00
0038007000
001F03E000
000F83E000
0001FE0000
0001FE0000
0000000000
0000000000
0000000000
ENDCHAR

STARTCHAR jisx0212_2B2E
ENCODING 11054
SWIDTH 960 0
DWIDTH 40 0
BBX 40 40 0 -6
BITMAP
0000000000
0000000000
0000000000
0000000000
0000000000
0000000000
0000000000
0000000000
0000000000
0000000000
0000000000
0000000000
0000000000
0001FE0000
0001FE0000
000F83E000
001F03E000
0038007000
003800FC00
003801FC00
00F001FC00
00F000FC00
00F0007000
00F0000000
00F0000000
00F0000000
00F0000000
00F0000C00
0038001C00
0038001C00
0038007000
003C007000
000F83E000
0001FF0000
0001FE0000
00003C0000
00001C0000
00078E0000
0001FC0000
0001FC0000
ENDCHAR

STARTCHAR jisx0212_2B2F
ENCODING 11055
SWIDTH 960 0
DWIDTH 40 0
BBX 40 40 0 -6
BITMAP
0000000000
0000000000
0000000000
0000180000
00003C0000
00007E0000
00007E0000
00003C0000
0000000000
0000000000
0000000000
0000000000
0000000000
0001FE0000
0001FE0000
000F83E000
001F03E000
0038007000
003800FC00
003801FC00
00F001FC00
00F000FC00
00F0007000
00F0000000
00F0000000
00F0000000
00F0000000
00F0000000
00F0000400
00F0000C00
0038001C00
0038003C00
0038007000
001F03E000
000F83E000
0001FE0000
0001FE0000
0000000000
0000000000
0000000000
ENDCHAR

STARTCHAR jisx0212_2B30
ENCODING 11056
SWIDTH 960 0
DWIDTH 40 0
BBX 40 40 0 -6
BITMAP
0007838000
0003878000
0001CE0000
0000FC1C00
00007C1C00
000001FC00
000000FC00
0000001C00
0000001C00
0000001C00
0000001C00
0000001C00
0000001C00
0001FE1C00
0001FE1C00
000F83FC00
001F03FC00
0038007C00
0038003C00
0038001C00
00F0001C00
00F0001C00
00F0001C00
00F0001C00
00F0001C00
00F0001C00
00F0001C00
00F0001C00
00F0001C00
00F0001C00
0038001C00
0038003C00
0038007C00
001F03FC00
000F83FC00
0001FE1F80
0001FE1F80
0000000000
0000000000
0000000000
ENDCHAR

STARTCHAR jisx0212_2B31
ENCODING 11057
SWIDTH 960 0
DWIDTH 40 0
BBX 40 40 0 -6
BITMAP
0000000000
0000000000
0000000000
00000E0000
00000E0000
00007E0000
0000FE0000
0007C00000
0000000000
0000000000
0000000000
0000000000
0000000000
0001FE0000
0001FE0000
000F83E000
001F03E000
0038007000
0038007000
0038007000
00F0001C00
00F0001C00
00F0001C00
00FFFFFC00
00FFFFFC00
00F0000000
00F0000000
00F0000000
00F0000400
00F0000C00
0038001C00
0038003C00
0038007000
001F03E000
000F83E000
0001FE0000
0001FE0000
0000000000
0000000000
0000000000
ENDCHAR

STARTCHAR jisx0212_2B32
ENCODING 11058
SWIDTH 960 0
DWIDTH 40 0
BBX 40 40 0 -6
BITMAP
0000000000
0000000000
0000000000
0003000000
0007800000
0007F00000
0003F00000
00003E0000
0000000000
0000000000
0000000000
0000000000
0000000000
0001FE0000
0001FE0000
000F83E000
001F03E000
0038007000
0038007000
0038007000
00F0001C00
00F0001C00
00F0001C00
00FFFFFC00
00FFFFFC00
00F0000000
00F0000000
00F0000000
00F0000400
00F0000C00
0038001C00
0038003C00
0038007000
001F03E000
000F83E000
0001FE0000
0001FE0000
0000000000
0000000000
0000000000
ENDCHAR

STARTCHAR jisx0212_2B33
ENCODING 11059
SWIDTH 960 0
DWIDTH 40 0
BBX 40 40 0 -6
BITMAP
0000000000
0000000000
0000000000
000E038000
000E038000
003F8FE000
003F0FC000
000E038000
0000000000
0000000000
0000000000
0000000000
0000000000
0001FE0000
0001FE0000
000F83E000
001F03E000
0038007000
0038007000
0038007000
00F0001C00
00F0001C00
00F0001C00
00FFFFFC00
00FFFFFC00
00F0000000
00F0000000
00F0000000
00F0000400
00F0000C00
0038001C00
0038003C00
0038007000
001F03E000
000F83E000
0001FE0000
0001FE0000
0000000000
0000000000
0000000000
ENDCHAR

STARTCHAR jisx0212_2B34
ENCODING 11060
SWIDTH 960 0
DWIDTH 40 0
BBX 40 40 0 -6
BITMAP
0000000000
0000000000
0000000000
0000780000
00007C0000
0001CE0000
0001CF0000
0007838000
0000000000
0000000000
0000000000
0000000000
0000000000
0001FE0000
0001FE0000
000F83E000
001F03E000
0038007000
0038007000
0038007000
00F0001C00
00F0001C00
00F0001C00
00FFFFFC00
00FFFFFC00
00F0000000
00F0000000
00F0000000
00F0000400
00F0000C00
0038001C00
0038003C00
0038007000
001F03E000
000F83E000
0001FE0000
0001FE0000
0000000000
0000000000
0000000000
ENDCHAR

STARTCHAR jisx0212_2B35
ENCODING 11061
SWIDTH 960 0
DWIDTH 40 0
BBX 40 40 0 -6
BITMAP
0000000000
0000000000
0000000000
0003038000
0007838000
0001CE0000
0001EE0000
00007C0000
0000000000
0000000000
0000000000
0000000000
0000000000
0001FE0000
0001FE0000
000F83E000
001F03E000
0038007000
0038007000
0038007000
00F0001C00
00F0001C00
00F0001C00
00FFFFFC00
00FFFFFC00
00F0000000
00F0000000
00F0000000
00F0000400
00F0000C00
0038001C00
0038003C00
0038007000
001F03E000
000F83E000
0001FE0000
0001FE0000
0000000000
0000000000
0000000000
ENDCHAR

STARTCHAR jisx0212_2B36
ENCODING 11062
SWIDTH 960 0
DWIDTH 40 0
BBX 40 40 0 -6
BITMAP
0000000000
0000000000
0000000000
0000700000
0000700000
0001FC0000
0001F80000
0000700000
0000000000
0000000000
0000000000
0000000000
0000000000
0001FE0000
0001FE0000
000F83E000
001F03E000
0038007000
0038007000
0038007000
00F0001C00
00F0001C00
00F0001C00
00FFFFFC00
00FFFFFC00
00F0000000
00F0000000
00F0000000
00F0000400
00F0000C00
0038001C00
0038003C00
0038007000
001F03E000
000F83E000
0001FE0000
0001FE0000
0000000000
0000000000
0000000000
ENDCHAR

STARTCHAR jisx0212_2B37
ENCODING 11063
SWIDTH 960 0
DWIDTH 40 0
BBX 40 40 0 -6
BITMAP
0000000000
0000000000
0000000000
0000000000
0000000000
000FFF8000
000FFF8000
0000000000
0000000000
0000000000
0000000000
0000000000
0000000000
0001FE0000
0001FE0000
000F83E000
001F03E000
0038007000
0038007000
0038007000
00F0001C00
00F0001C00
00F0001C00
00FFFFFC00
00FFFFFC00
00F0000000
00F0000000
00F0000000
00F0000400
00F0000C00
0038001C00
0038003C00
0038007000
001F03E000
000F83E000
0001FE0000
0001FE0000
0000000000
0000000000
0000000000
ENDCHAR

STARTCHAR jisx0212_2B38
ENCODING 11064
SWIDTH 960 0
DWIDTH 40 0
BBX 40 40 0 -6
BITMAP
0000000000
0000000000
0000000000
0000000000
0000000000
0000000000
0000000000
0000000000
0000000000
0000000000
0000000000
0000000000
0000000000
0001FE0000
0001FE0000
000F83E000
001F03E000
0038007000
0038007000
0038007000
00F0001C00
00F0003C00
00FFFFFC00
00F0000000
00F0000000
00F0000000
00F0000000
00F0000C00
0038001C00
0038001C00
0038007000
003C007000
000F83E000
0001FF0000
0001FE0000
0000020000
0000030000
000003F000
000001F000
000001F000
ENDCHAR

STARTCHAR jisx0212_2B39
ENCODING 11065
SWIDTH 960 0
DWIDTH 40 0
BBX 40 40 0 -6
BITMAP
0000000000
0000000000
0000000000
0000038000
0000038000
00003F8000
00003F8000
0001F00000
0000000000
0000000000
0000000000
0000000000
0000000000
0001FF9E00
0001FF9F00
000781E380
000700E380
000E007380
000E007000
000E007000
000E007000
000E007000
000E007000
000700E000
000781E000
000FFF8000
001FFF8000
0038000000
003FFFC000
003FFFE000
000FFFFC00
001FFFFC00
0038001F00
0070000F00
00F0000F00
00F0000F00
0070000E00
003E007C00
0007FFE000
0007FFE000
ENDCHAR

STARTCHAR jisx0212_2B3A
ENCODING 11066
SWIDTH 960 0
DWIDTH 40 0
BBX 40 40 0 -6
BITMAP
0000000000
0000000000
0000000000
0000780000
00007C0000
0001CE0000
0001CF0000
0007838000
0000000000
0000000000
0000000000
0000000000
0000000000
0001FF9E00
0001FF9F00
000781E380
000700E380
000E007380
000E007000
000E007000
000E007000
000E007000
000E007000
000700E000
000781E000
000FFF8000
001FFF8000
0038000000
003FFFC000
003FFFE000
000FFFFC00
001FFFFC00
0038001F00
0070000F00
00F0000F00
00F0000F00
0070000E00
003E007C00
0007FFE000
0007FFE000
ENDCHAR

STARTCHAR jisx0212_2B3B
ENCODING 11067
SWIDTH 960 0
DWIDTH 40 0
BBX 40 40 0 -6
BITMAP
0000000000
0000000000
0000000000
0001008000
0001818000
0001FF8000
0001FF8000
00007E0000
0000000000
0000000000
0000000000
0000000000
0000000000
0001FF9E00
0001FF9F00
000781E380
000700E380
000E007380
000E007000
000E007000
000E007000
000E007000
000E007000
000700E000
000781E000
000FFF8000
001FFF8000
0038000000
003FFFC000
003FFFE000
000FFFFC00
001FFFFC00
0038001F00
0070000F00
00F0000F00
00F0000F00
0070000E00
003E007C00
0007FFE000
0007FFE000
ENDCHAR

STARTCHAR jisx0212_2B3D
ENCODING 11069
SWIDTH 960 0
DWIDTH 40 0
BBX 40 40 0 -6
BITMAP
0000000000
0000000000
0000000000
0000180000
00003C0000
00007E0000
00007E0000
00003C0000
0000000000
0000000000
0000000000
0000000000
0000000000
0001FF9E00
0001FF9F00
000781E380
000700E380
000E007380
000E007000
000E007000
000E007000
000E007000
000E007000
000700E000
000781E000
000FFF8000
001FFF8000
0038000000
003FFFC000
003FFFE000
000FFFFC00
001FFFFC00
0038001F00
0070000F00
00F0000F00
00F0000F00
0070000E00
003E007C00
0007FFE000
0007FFE000
ENDCHAR

STARTCHAR jisx0212_2B3E
ENCODING 11070
SWIDTH 960 0
DWIDTH 40 0
BBX 40 40 0 -6
BITMAP
00003E0000
00003F0000
0000738000
0039E1C000
0039C1E000
01F8000000
01F8000000
0038000000
0038000000
0038000000
0038000000
0038000000
0038000000
00387F8000
00387F8000
003FC1F000
003FC0F000
003E007000
003C003C00
0038001C00
0038001C00
0038001C00
0038001C00
0038001C00
0038001C00
0038001C00
0038001C00
0038001C00
0038001C00
0038001C00
0038001C00
0038001C00
0038001C00
0038001C00
0038001C00
01FF81FF80
01FF00FF80
0000000000
0000000000
0000000000
ENDCHAR

STARTCHAR jisx0212_2B3F
ENCODING 11071
SWIDTH 960 0
DWIDTH 40 0
BBX 40 40 0 -6
BITMAP
0000000000
0000000000
0000000000
0000038000
0000038000
00003F8000
00003F8000
0001F00000
0000000000
0000000000
0000000000
0000000000
0000000000
0000180000
00003C0000
0001FC0000
0001FC0000
00003C0000
00003C0000
00003C0000
00003C0000
00003C0000
00003C0000
00003C0000
00003C0000
00003C0000
00003C0000
00003C0000
00003C0000
00003C0000
00003C0000
00003C0000
00003C0000
00003C0000
00003C0000
0001FF8000
0001FF8000
0000000000
0000000000
0000000000
ENDCHAR

STARTCHAR jisx0212_2B40
ENCODING 11072
SWIDTH 960 0
DWIDTH 40 0
BBX 40 40 0 -6
BITMAP
0000000000
0000000000
0000000000
0001C00000
0001C00000
0001FC0000
0001FC0000
00000F8000
0000000000
0000000000
0000000000
0000000000
0000000000
0000180000
00003C0000
0001FC0000
0001FC0000
00003C0000
00003C0000
00003C0000
00003C0000
00003C0000
00003C0000
00003C0000
00003C0000
00003C0000
00003C0000
00003C0000
00003C0000
00003C0000
00003C0000
00003C0000
00003C0000
00003C0000
00003C0000
0001FF8000
0001FF8000
0000000000
0000000000
0000000000
ENDCHAR

STARTCHAR jisx0212_2B41
ENCODING 11073
SWIDTH 960 0
DWIDTH 40 0
BBX 40 40 0 -6
BITMAP
0000000000
0000000000
0000000000
000300C000
000781E000
000FC3F000
000FC3F000
000781E000
0000000000
0000000000
0000000000
0000000000
0000000000
0000180000
00003C0000
0001FC0000
0001FC0000
00003C0000
00003C0000
00003C0000
00003C0000
00003C0000
00003C0000
00003C0000
00003C0000
00003C0000
00003C0000
00003C0000
00003C0000
00003C0000
00003C0000
00003C0000
00003C0000
00003C0000
00003C0000
0001FF8000
0001FF8000
0000000000
0000000000
0000000000
ENDCHAR

STARTCHAR jisx0212_2B42
ENCODING 11074
SWIDTH 960 0
DWIDTH 40 0
BBX 40 40 0 -6
BITMAP
0000000000
0000000000
0000000000
0000780000
00007C0000
0001CE0000
0001CF0000
0007838000
0000000000
0000000000
0000000000
0000000000
0000000000
0000180000
00003C0000
0001FC0000
0001FC0000
00003C0000
00003C0000
00003C0000
00003C0000
00003C0000
00003C0000
00003C0000
00003C0000
00003C0000
00003C0000
00003C0000
00003C0000
00003C0000
00003C0000
00003C0000
00003C0000
00003C0000
00003C0000
0001FF8000
0001FF8000
0000000000
0000000000
0000000000
ENDCHAR

STARTCHAR jisx0212_2B43
ENCODING 11075
SWIDTH 960 0
DWIDTH 40 0
BBX 40 40 0 -6
BITMAP
0000000000
0000000000
0000000000
0003038000
0007838000
0001CE0000
0001EE0000
00007C0000
0000000000
0000000000
0000000000
0000000000
0000000000
0000180000
00003C0000
0001FC0000
0001FC0000
00003C0000
00003C0000
00003C0000
00003C0000
00003C0000
00003C0000
00003C0000
00003C0000
00003C0000
00003C0000
00003C0000
00003C0000
00003C0000
00003C0000
00003C0000
00003C0000
00003C0000
00003C0000
0001FF8000
0001FF8000
0000000000
0000000000
0000000000
ENDCHAR

STARTCHAR jisx0212_2B45
ENCODING 11077
SWIDTH 960 0
DWIDTH 40 0
BBX 40 40 0 -6
BITMAP
0000000000
0000000000
0000000000
0000000000
0000000000
0007FFE000
0003FFC000
0000000000
0000000000
0000000000
0000000000
0000000000
0000000000
0000180000
00003C0000
0001FC0000
0001FC0000
00003C0000
00003C0000
00003C0000
00003C0000
00003C0000
00003C0000
00003C0000
00003C0000
00003C0000
00003C0000
00003C0000
00003C0000
00003C0000
00003C0000
00003C0000
00003C0000
00003C0000
00003C0000
0001FF8000
0001FF8000
0000000000
0000000000
0000000000
ENDCHAR

STARTCHAR jisx0212_2B46
ENCODING 11078
SWIDTH 960 0
DWIDTH 40 0
BBX 40 40 0 -6
BITMAP
0000000000
0000000000
0000000000
0000180000
00003C0000
00007E0000
00007E0000
00003C0000
0000000000
0000000000
0000000000
0000000000
0000000000
0000180000
00003C0000
0001FC0000
0001FC0000
00003C0000
00003C0000
00003C0000
00003C0000
00003C0000
00003C0000
00003C0000
00003C0000
00003C0000
00003C0000
00003C0000
00003C0000
00003C0000
00003C0000
00003C0000
00003C0000
0001FF8000
0001FF8000
0000300000
0000300000
00003F8000
00000F8000
00000F8000
ENDCHAR

STARTCHAR jisx0212_2B47
ENCODING 11079
SWIDTH 960 0
DWIDTH 40 0
BBX 40 40 0 -6
BITMAP
0000000000
0000000000
0000000000
0001F04000
0001F06000
0007FFE000
0007FFC000
00060F8000
0000000000
0000000000
0000000000
0000000000
0000000000
0000180000
00003C0000
0001FC0000
0001FC0000
00003C0000
00003C0000
00003C0000
00003C0000
00003C0000
00003C0000
00003C0000
00003C0000
00003C0000
00003C0000
00003C0000
00003C0000
00003C0000
00003C0000
00003C0000
00003C0000
00003C0000
00003C0000
0001FF8000
0001FF8000
0000000000
0000000000
0000000000
ENDCHAR

STARTCHAR jisx0212_2B48
ENCODING 11080
SWIDTH 960 0
DWIDTH 40 0
BBX 40 40 0 -6
BITMAP
0000000000
0000000000
0000000000
0000780000
00007C0000
0001CE0000
0001CF0000
0007838000
0000000000
0000000000
0000000000
0000000000
0000000000
00000E0000
00000E0000
00007E0000
00007E0000
00000E0000
00000E0000
00000E0000
00000E0000
00000E0000
00000E0000
00000E0000
00000E0000
00000E0000
00000E0000
00000E0000
00000E0000
00000E0000
00000E0000
00000E0000
00000E0000
000E0E0000
000E0E0000
003F8E0000
003F0E0000
000E3C0000
0007F00000
0007F00000
ENDCHAR

STARTCHAR jisx0212_2B49
ENCODING 11081
SWIDTH 960 0
DWIDTH 40 0
BBX 40 40 0 -6
BITMAP
0000000000
0000000000
0000000000
000E000000
000E000000
00FE000000
007E000000
000E000000
000E000000
000E000000
000E000000
000E000000
000E000000
000E0FFC00
000E0FFC00
000E01E000
000E01C000
000E038000
000E0F0000
000E0E0000
000E3C0000
000E3C0000
000E7E0000
000FEE0000
000FCE0000
000F838000
000F038000
000E01E000
000E01E000
000E01E000
000E007000
001E007800
00FFC3FF00
0000300000
0000300000
00003C0000
00001C0000
00078E0000
0001FC0000
0001FC0000
ENDCHAR

STARTCHAR jisx0212_2B4A
ENCODING 11082
SWIDTH 960 0
DWIDTH 40 0
BBX 40 40 0 -6
BITMAP
0000038000
0000078000
00003F8000
0001F00000
0001F00000
0000000000
0000000000
00003C0000
0001FC0000
0001FC0000
00003C0000
00003C0000
00003C0000
00003C0000
00003C0000
00003C0000
00003C0000
00003C0000
00003C0000
00003C0000
00003C0000
00003C0000
00003C0000
00003C0000
00003C0000
00003C0000
00003C0000
00003C0000
00003C0000
00003C0000
00003C0000
00003C0000
00003C0000
00003C0000
00003C0000
0001FF8000
0001FF8000
0000000000
0000000000
0000000000
ENDCHAR

STARTCHAR jisx0212_2B4B
ENCODING 11083
SWIDTH 960 0
DWIDTH 40 0
BBX 40 40 0 -6
BITMAP
0007838000
0003878000
0001CE0000
0000FC0000
00007C0000
0000000000
0000000000
00003C0000
0001FC0000
0001FC0000
00003C0000
00003C0000
00003C0000
00003C0000
00003C0000
00003C0000
00003C0000
00003C0000
00003C0000
00003C0000
00003C0000
00003C0000
00003C0000
00003C0000
00003C0000
00003C0000
00003C0000
00003C0000
00003C0000
00003C0000
00003C0000
00003C0000
00003C0000
00003C0000
00003C0000
0001FF8000
0001FF8000
0000000000
0000000000
0000000000
ENDCHAR

STARTCHAR jisx0212_2B4C
ENCODING 11084
SWIDTH 960 0
DWIDTH 40 0
BBX 40 40 0 -6
BITMAP
0000000000
0000000000
0000000000
0000180000
00003C0000
0001FC0000
0001FC0000
00003C0000
00003C0000
00003C0000
00003C0000
00003C0000
00003C0000
00003C0000
00003C0000
00003C0000
00003C0000
00003C0000
00003C0000
00003C0000
00003C0000
00003C0000
00003C0000
00003C0000
00003C0000
00003C0000
00003C0000
00003C0000
00003C0000
00003C0000
00003C0000
00003C0000
0001FF8000
00000C0000
00000C0000
00000E0000
00000F0000
0001C38000
0000FF0000
00007E0000
ENDCHAR

STARTCHAR jisx0212_2B4D
ENCODING 11085
SWIDTH 960 0
DWIDTH 40 0
BBX 40 40 0 -6
BITMAP
0000000000
0000000000
0000000000
0000038000
0000038000
00003F8000
00003F8000
0001F00000
0000000000
0000000000
0000000000
0000000000
0000000000
00387F8000
00387F8000
01FFC1F000
01FFC0F000
003E007000
003C003C00
0038001C00
0038001C00
0038001C00
0038001C00
0038001C00
0038001C00
0038001C00
0038001C00
0038001C00
0038001C00
0038001C00
0038001C00
0038001C00
0038001C00
0038001C00
0038001C00
01FF81FF80
01FF00FF80
0000000000
0000000000
0000000000
ENDCHAR

STARTCHAR jisx0212_2B4E
ENCODING 11086
SWIDTH 960 0
DWIDTH 40 0
BBX 40 40 0 -6
BITMAP
0000000000
0000000000
0000000000
0003038000
0007838000
0001CE0000
0001EE0000
00007C0000
0000000000
0000000000
0000000000
0000000000
0000000000
00387F8000
00387F8000
01FFC1F000
01FFC0F000
003E007000
003C003C00
0038001C00
0038001C00
0038001C00
0038001C00
0038001C00
0038001C00
0038001C00
0038001C00
0038001C00
0038001C00
0038001C00
0038001C00
0038001C00
0038001C00
0038001C00
0038001C00
01FF81FF80
01FF00FF80
0000000000
0000000000
0000000000
ENDCHAR

STARTCHAR jisx0212_2B4F
ENCODING 11087
SWIDTH 960 0
DWIDTH 40 0
BBX 40 40 0 -6
BITMAP
0000000000
0000000000
0000000000
0000000000
0000000000
0000000000
0000000000
0000000000
0000000000
0000000000
0000000000
0000000000
0000000000
00387F8000
00387F8000
01FFC1F000
01FFC0F000
003E007000
003C003C00
0038001C00
0038001C00
0038001C00
0038001C00
0038001C00
0038001C00
0038001C00
0038001C00
0038001C00
0038001C00
0038001C00
0038001C00
0038001C00
0038001C00
01FF10FF80
01FFB1FF80
00003C0000
00001C0000
00078E0000
0001FC0000
0001FC0000
ENDCHAR

STARTCHAR jisx0212_2B50
ENCODING 11088
SWIDTH 960 0
DWIDTH 40 0
BBX 40 40 0 -6
BITMAP
0000000000
0000000000
0000000000
0001F04000
0001F06000
0007FFE000
0007FFC000
00060F8000
0000000000
0000000000
0000000000
0000000000
0000000000
00387F8000
00387F8000
01FFC1F000
01FFC0F000
003E007000
003C003C00
0038001C00
0038001C00
0038001C00
0038001C00
0038001C00
0038001C00
0038001C00
0038001C00
0038001C00
0038001C00
0038001C00
0038001C00
0038001C00
0038001C00
0038001C00
0038001C00
01FF81FF80
01FF00FF80
0000000000
0000000000
0000000000
ENDCHAR

STARTCHAR jisx0212_2B51
ENCODING 11089
SWIDTH 960 0
DWIDTH 40 0
BBX 40 40 0 -6
BITMAP
0000000000
0000000000
0000000000
00000E0000
00000E0000
00007E0000
0000FE0000
0007C00000
0000000000
0000000000
0000000000
0000000000
0000000000
0001FE0000
0001FE0000
000F83E000
001F03E000
0038007000
0038007000
0038007000
00F0001C00
00F0001C00
00F0001C00
00F0001C00
00F0001C00
00F0001C00
00F0001C00
00F0001C00
00F0001C00
00F0001C00
0038007000
0038007000
0038007000
001F03E000
000F83E000
0001FE0000
0001FE0000
0000000000
0000000000
0000000000
ENDCHAR

STARTCHAR jisx0212_2B52
ENCODING 11090
SWIDTH 960 0
DWIDTH 40 0
BBX 40 40 0 -6
BITMAP
0000000000
0000000000
0000000000
0003000000
0007800000
0007F00000
0003F00000
00003E0000
0000000000
0000000000
0000000000
0000000000
0000000000
0001FE0000
0001FE0000
000F83E000
001F03E000
0038007000
0038007000
0038007000
00F0001C00
00F0001C00
00F0001C00
00F0001C00
00F0001C00
00F0001C00
00F0001C00
00F0001C00
00F0001C00
00F0001C00
0038007000
0038007000
0038007000
001F03E000
000F83E000
0001FE0000
0001FE0000
0000000000
0000000000
0000000000
ENDCHAR

STARTCHAR jisx0212_2B53
ENCODING 11091
SWIDTH 960 0
DWIDTH 40 0
BBX 40 40 0 -6
BITMAP
0000000000
0000000000
0000000000
000E038000
000E038000
003F8FE000
003F0FC000
000E038000
0000000000
0000000000
0000000000
0000000000
0000000000
0001FE0000
0001FE0000
000F83E000
001F03E000
0038007000
0038007000
0038007000
00F0001C00
00F0001C00
00F0001C00
00F0001C00
00F0001C00
00F0001C00
00F0001C00
00F0001C00
00F0001C00
00F0001C00
0038007000
0038007000
0038007000
001F03E000
000F83E000
0001FE0000
0001FE0000
0000000000
0000000000
0000000000
ENDCHAR

STARTCHAR jisx0212_2B54
ENCODING 11092
SWIDTH 960 0
DWIDTH 40 0
BBX 40 40 0 -6
BITMAP
0000000000
0000000000
0000000000
0000780000
00007C0000
0001CE0000
0001CF0000
0007838000
0000000000
0000000000
0000000000
0000000000
0000000000
0001FE0000
0001FE0000
000F83E000
001F03E000
0038007000
0038007000
0038007000
00F0001C00
00F0001C00
00F0001C00
00F0001C00
00F0001C00
00F0001C00
00F0001C00
00F0001C00
00F0001C00
00F0001C00
0038007000
0038007000
0038007000
001F03E000
000F83E000
0001FE0000
0001FE0000
0000000000
0000000000
0000000000
ENDCHAR

STARTCHAR jisx0212_2B55
ENCODING 11093
SWIDTH 960 0
DWIDTH 40 0
BBX 40 40 0 -6
BITMAP
0000000000
0000000000
0000000000
0003038000
0007838000
0001CE0000
0001EE0000
00007C0000
0000000000
0000000000
0000000000
0000000000
0000000000
0001FE0000
0001FE0000
000F83E000
001F03E000
0038007000
0038007000
0038007000
00F0001C00
00F0001C00
00F0001C00
00F0001C00
00F0001C00
00F0001C00
00F0001C00
00F0001C00
00F0001C00
00F0001C00
0038007000
0038007000
0038007000
001F03E000
000F83E000
0001FE0000
0001FE0000
0000000000
0000000000
0000000000
ENDCHAR

STARTCHAR jisx0212_2B56
ENCODING 11094
SWIDTH 960 0
DWIDTH 40 0
BBX 40 40 0 -6
BITMAP
0000000000
0000000000
0000000000
0001C07000
0001C07000
000FC3F000
001FC7F000
00380E0000
0000000000
0000000000
0000000000
0000000000
0000000000
0001FE0000
0001FE0000
000F83E000
001F03E000
0038007000
0038007000
0038007000
00F0001C00
00F0001C00
00F0001C00
00F0001C00
00F0001C00
00F0001C00
00F0001C00
00F0001C00
00F0001C00
00F0001C00
0038007000
0038007000
0038007000
001F03E000
000F83E000
0001FE0000
0001FE0000
0000000000
0000000000
0000000000
ENDCHAR

STARTCHAR jisx0212_2B57
ENCODING 11095
SWIDTH 960 0
DWIDTH 40 0
BBX 40 40 0 -6
BITMAP
0000000000
0000000000
0000000000
0000000000
0000000000
000FFF8000
000FFF8000
0000000000
0000000000
0000000000
0000000000
0000000000
0000000000
0001FE0000
0001FE0000
000F83E000
001F03E000
0038007000
0038007000
0038007000
00F0001C00
00F0001C00
00F0001C00
00F0001C00
00F0001C00
00F0001C00
00F0001C00
00F0001C00
00F0001C00
00F0001C00
0038007000
0038007000
0038007000
001F03E000
000F83E000
0001FE0000
0001FE0000
0000000000
0000000000
0000000000
ENDCHAR

STARTCHAR jisx0212_2B58
ENCODING 11096
SWIDTH 960 0
DWIDTH 40 0
BBX 40 40 0 -6
BITMAP
0000000000
0000000000
0000000000
0003C08000
0007C18000
000FFF8000
000FFF8000
00083E0000
0000000000
0000000000
0000000000
0000000000
0000000000
0001FE0000
0001FE0000
000F83E000
001F03E000
0038007000
0038007000
0038007000
00F0001C00
00F0001C00
00F0001C00
00F0001C00
00F0001C00
00F0001C00
00F0001C00
00F0001C00
00F0001C00
00F0001C00
0038007000
0038007000
0038007000
001F03E000
000F83E000
0001FE0000
0001FE0000
0000000000
0000000000
0000000000
ENDCHAR

STARTCHAR jisx0212_2B59
ENCODING 11097
SWIDTH 960 0
DWIDTH 40 0
BBX 40 40 0 -6
BITMAP
0000000000
0000000000
0000000000
0000038000
0000038000
00003F8000
00003F8000
0001F00000
0000000000
0000000000
0000000000
0000000000
0000000000
0001C0C000
0001C1E000
000FCFF000
000FEFF000
0001FDF000
0001F06000
0001F06000
0001C00000
0001C00000
0001C00000
0001C00000
0001C00000
0001C00000
0001C00000
0001C00000
0001C00000
0001C00000
0001C00000
0001C00000
0001C00000
0001C00000
0001C00000
000FFC0000
000FF80000
0000000000
0000000000
0000000000
ENDCHAR

STARTCHAR jisx0212_2B5A
ENCODING 11098
SWIDTH 960 0
DWIDTH 40 0
BBX 40 40 0 -6
BITMAP
0000000000
0000000000
0000000000
0003038000
0007838000
0001CE0000
0001EE0000
00007C0000
0000000000
0000000000
0000000000
0000000000
0000000000
0001C0C000
0001C1E000
000FCFF000
000FEFF000
0001FDF000
0001F06000
0001F06000
0001C00000
0001C00000
0001C00000
0001C00000
0001C00000
0001C00000
0001C00000
0001C00000
0001C00000
0001C00000
0001C00000
0001C00000
0001C00000
0001C00000
0001C00000
000FFC0000
000FF80000
0000000000
0000000000
0000000000
ENDCHAR

STARTCHAR jisx0212_2B5B
ENCODING 11099
SWIDTH 960 0
DWIDTH 40 0
BBX 40 40 0 -6
BITMAP
0000000000
0000000000
0000000000
0000000000
0000000000
0000000000
0000000000
0000000000
0000000000
0000000000
0000000000
0000000000
0000000000
0001C0C000
0001C1E000
000FCFF000
000FEFF000
0001FDF000
0001F06000
0001F06000
0001C00000
0001C00000
0001C00000
0001C00000
0001C00000
0001C00000
0001C00000
0001C00000
0001C00000
0001C00000
0001C00000
0001C00000
0001C00000
000FF80000
000FFC0000
0000700000
0000700000
000E3C0000
0007F00000
0007F00000
ENDCHAR

STARTCHAR jisx0212_2B5C
ENCODING 11100
SWIDTH 960 0
DWIDTH 40 0
BBX 40 40 0 -6
BITMAP
0000000000
0000000000
0000000000
00000E0000
00000E0000
00007E0000
0000FE0000
0007C00000
0000000000
0000000000
0000000000
0000000000
0000000000
0003FF9000
0007FF9000
000E01F000
001E00F000
0038007000
0038003000
0038001000
003E001000
003E001000
000FF00000
0001FF8000
0001FF8000
00000FF000
00000FF800
0030007C00
0030003C00
0030001C00
0038001C00
0038001C00
0038001C00
003F007800
003F807000
0031FFE000
0021FFC000
0000000000
0000000000
0000000000
ENDCHAR

STARTCHAR jisx0212_2B5D
ENCODING 11101
SWIDTH 960 0
DWIDTH 40 0
BBX 40 40 0 -6
BITMAP
0000000000
0000000000
0000000000
0000780000
00007C0000
0001CE0000
0001CF0000
0007838000
0000000000
0000000000
0000000000
0000000000
0000000000
0003FF9000
0007FF9000
000E01F000
001E00F000
0038007000
0038003000
0038001000
003E001000
003E001000
000FF00000
0001FF8000
0001FF8000
00000FF000
00000FF800
0030007C00
0030003C00
0030001C00
0038001C00
0038001C00
0038001C00
003F007800
003F807000
0031FFE000
0021FFC000
0000000000
0000000000
0000000000
ENDCHAR

STARTCHAR jisx0212_2B5E
ENCODING 11102
SWIDTH 960 0
DWIDTH 40 0
BBX 40 40 0 -6
BITMAP
0000000000
0000000000
0000000000
0003038000
0007838000
0001CE0000
0001EE0000
00007C0000
0000000000
0000000000
0000000000
0000000000
0000000000
0003FF9000
0007FF9000
000E01F000
001E00F000
0038007000
0038003000
0038001000
003E001000
003E001000
000FF00000
0001FF8000
0001FF8000
00000FF000
00000FF800
0030007C00
0030003C00
0030001C00
0038001C00
0038001C00
0038001C00
003F007800
003F807000
0031FFE000
0021FFC000
0000000000
0000000000
0000000000
ENDCHAR

STARTCHAR jisx0212_2B5F
ENCODING 11103
SWIDTH 960 0
DWIDTH 40 0
BBX 40 40 0 -6
BITMAP
0000000000
0000000000
0000000000
0000000000
0000000000
0000000000
0000000000
0000000000
0000000000
0000000000
0000000000
0000000000
0000000000
0003FF9000
0007FF9000
000E01F000
001E00F000
0038007000
0038003000
0038001000
003E001000
003E001000
000FF00000
0001FF8000
0001FF8000
00300FF000
00300FF800
0030007C00
0038003C00
0038001C00
0038001C00
003C003C00
003F807000
0031FFE000
0031FFE000
00000E0000
00000F0000
0001C38000
0000FF0000
00007E0000
ENDCHAR

STARTCHAR jisx0212_2B60
ENCODING 11104
SWIDTH 960 0
DWIDTH 40 0
BBX 40 40 0 -6
BITMAP
0007838000
0003878000
0001CE0000
0000FC0000
00007C0000
0000000000
0000000000
0000300000
0000700000
0000700000
0000700000
0000700000
0000700000
0000700000
0000700000
0007FF8000
0003FF8000
0000700000
0000700000
0000700000
0000700000
0000700000
0000700000
0000700000
0000700000
0000700000
0000700000
0000700000
0000700000
0000700000
0000701000
0000703000
0000707000
000078E000
00007DE000
00003F8000
00001F8000
0000000000
0000000000
0000000000
ENDCHAR

STARTCHAR jisx0212_2B61
ENCODING 11105
SWIDTH 960 0
DWIDTH 40 0
BBX 40 40 0 -6
BITMAP
0000000000
0000000000
0000000000
0000100000
0000300000
0000700000
0000700000
0000700000
0000700000
0000700000
0000700000
0000700000
0000700000
0003FF8000
0007FF8000
0000700000
0000700000
0000700000
0000700000
0000700000
0000700000
0000700000
0000700000
0000700000
0000700000
0000700000
0000700000
0000700000
0000701000
0000701000
0000707000
0000707000
00007DE000
00003F8000
00003F8000
0000038000
0000038000
000071E000
00003F8000
00003F8000
ENDCHAR

STARTCHAR jisx0212_2B62
ENCODING 11106
SWIDTH 960 0
DWIDTH 40 0
BBX 40 40 0 -6
BITMAP
0000000000
0000000000
0000000000
0000038000
0000038000
00003F8000
00003F8000
0001F00000
0000000000
0000000000
0000000000
0000000000
0000000000
0038001C00
0038001C00
01F801FC00
01F800FC00
0038001C00
0038001C00
0038001C00
0038001C00
0038001C00
0038001C00
0038001C00
0038001C00
0038001C00
0038001C00
0038001C00
0038001C00
0038001C00
0038001C00
003C003C00
000E007C00
000F03FC00
000F83FC00
0001FE1F80
0001FE1F80
0000000000
0000000000
0000000000
ENDCHAR

STARTCHAR jisx0212_2B63
ENCODING 11107
SWIDTH 960 0
DWIDTH 40 0
BBX 40 40 0 -6
BITMAP
0000000000
0000000000
0000000000
0001C00000
0001C00000
0001FC0000
0001FC0000
00000F8000
0000000000
0000000000
0000000000
0000000000
0000000000
0038001C00
0038001C00
01F801FC00
01F800FC00
0038001C00
0038001C00
0038001C00
0038001C00
0038001C00
0038001C00
0038001C00
0038001C00
0038001C00
0038001C00
0038001C00
0038001C00
0038001C00
0038001C00
003C003C00
000E007C00
000F03FC00
000F83FC00
0001FE1F80
0001FE1F80
0000000000
0000000000
0000000000
ENDCHAR

STARTCHAR jisx0212_2B64
ENCODING 11108
SWIDTH 960 0
DWIDTH 40 0
BBX 40 40 0 -6
BITMAP
0000000000
0000000000
0000000000
000300C000
000781E000
000FC3F000
000FC3F000
000781E000
0000000000
0000000000
0000000000
0000000000
0000000000
0038001C00
0038001C00
01F801FC00
01F800FC00
0038001C00
0038001C00
0038001C00
0038001C00
0038001C00
0038001C00
0038001C00
0038001C00
0038001C00
0038001C00
0038001C00
0038001C00
0038001C00
0038001C00
003C003C00
000E007C00
000F03FC00
000F83FC00
0001FE1F80
0001FE1F80
0000000000
0000000000
0000000000
ENDCHAR

STARTCHAR jisx0212_2B65
ENCODING 11109
SWIDTH 960 0
DWIDTH 40 0
BBX 40 40 0 -6
BITMAP
0000000000
0000000000
0000000000
0000780000
00007C0000
0001CE0000
0001CF0000
0007838000
0000000000
0000000000
0000000000
0000000000
0000000000
0038001C00
0038001C00
01F801FC00
01F800FC00
0038001C00
0038001C00
0038001C00
0038001C00
0038001C00
0038001C00
0038001C00
0038001C00
0038001C00
0038001C00
0038001C00
0038001C00
0038001C00
0038001C00
003C003C00
000E007C00
000F03FC00
000F83FC00
0001FE1F80
0001FE1F80
0000000000
0000000000
0000000000
ENDCHAR

STARTCHAR jisx0212_2B66
ENCODING 11110
SWIDTH 960 0
DWIDTH 40 0
BBX 40 40 0 -6
BITMAP
0000000000
0000000000
0000000000
0001008000
0001818000
0001FF8000
0001FF8000
00007E0000
0000000000
0000000000
0000000000
0000000000
0000000000
0038001C00
0038001C00
01F801FC00
01F800FC00
0038001C00
0038001C00
0038001C00
0038001C00
0038001C00
0038001C00
0038001C00
0038001C00
0038001C00
0038001C00
0038001C00
0038001C00
0038001C00
0038001C00
003C003C00
000E007C00
000F03FC00
000F83FC00
0001FE1F80
0001FE1F80
0000000000
0000000000
0000000000
ENDCHAR

STARTCHAR jisx0212_2B67
ENCODING 11111
SWIDTH 960 0
DWIDTH 40 0
BBX 40 40 0 -6
BITMAP
0000000000
0000000000
0000000000
0003038000
0007838000
0001CE0000
0001EE0000
00007C0000
0000000000
0000000000
0000000000
0000000000
0000000000
0038001C00
0038001C00
01F801FC00
01F800FC00
0038001C00
0038001C00
0038001C00
0038001C00
0038001C00
0038001C00
0038001C00
0038001C00
0038001C00
0038001C00
0038001C00
0038001C00
0038001C00
0038001C00
003C003C00
000E007C00
000F03FC00
000F83FC00
0001FE1F80
0001FE1F80
0000000000
0000000000
0000000000
ENDCHAR

STARTCHAR jisx0212_2B68
ENCODING 11112
SWIDTH 960 0
DWIDTH 40 0
BBX 40 40 0 -6
BITMAP
0000000000
0000000000
0000000000
0001C07000
0001C07000
000FC3F000
001FC7F000
00380E0000
0000000000
0000000000
0000000000
0000000000
0000000000
0038001C00
0038001C00
01F801FC00
01F800FC00
0038001C00
0038001C00
0038001C00
0038001C00
0038001C00
0038001C00
0038001C00
0038001C00
0038001C00
0038001C00
0038001C00
0038001C00
0038001C00
0038001C00
003C003C00
000E007C00
000F03FC00
000F83FC00
0001FE1F80
0001FE1F80
0000000000
0000000000
0000000000
ENDCHAR

STARTCHAR jisx0212_2B69
ENCODING 11113
SWIDTH 960 0
DWIDTH 40 0
BBX 40 40 0 -6
BITMAP
0000000000
0000000000
0000000000
0000000000
0000000000
0007FFE000
0003FFC000
0000000000
0000000000
0000000000
0000000000
0000000000
0000000000
0038001C00
0038001C00
01F801FC00
01F800FC00
0038001C00
0038001C00
0038001C00
0038001C00
0038001C00
0038001C00
0038001C00
0038001C00
0038001C00
0038001C00
0038001C00
0038001C00
0038001C00
0038001C00
003C003C00
000E007C00
000F03FC00
000F83FC00
0001FE1F80
0001FE1F80
0000000000
0000000000
0000000000
ENDCHAR

STARTCHAR jisx0212_2B6A
ENCODING 11114
SWIDTH 960 0
DWIDTH 40 0
BBX 40 40 0 -6
BITMAP
0000000000
0000000000
0000000000
0000000000
0000000000
0000000000
0000000000
0000000000
0000000000
0000000000
0000000000
0000000000
0000000000
0038001C00
0038001C00
01F801FC00
01F800FC00
0038001C00
0038001C00
0038001C00
0038001C00
0038001C00
0038001C00
0038001C00
0038001C00
0038001C00
0038001C00
0038001C00
0038001C00
0038001C00
000E007C00
000E007C00
000F83FC00
0001FF3F80
0001FE1F80
0000001000
0000001800
0000001F80
0000000F80
0000000F80
ENDCHAR

STARTCHAR jisx0212_2B6B
ENCODING 11115
SWIDTH 960 0
DWIDTH 40 0
BBX 40 40 0 -6
BITMAP
0000000000
0000000000
0000000000
0000180000
00003C0000
0000420000
0000420000
0000420000
00003C0000
00003C0000
0000000000
0000000000
0000000000
0038001C00
0038001C00
01F801FC00
01F800FC00
0038001C00
0038001C00
0038001C00
0038001C00
0038001C00
0038001C00
0038001C00
0038001C00
0038001C00
0038001C00
0038001C00
0038001C00
0038001C00
0038001C00
003C003C00
000E007C00
000F03FC00
000F83FC00
0001FE1F80
0001FE1F80
0000000000
0000000000
0000000000
ENDCHAR

STARTCHAR jisx0212_2B6C
ENCODING 11116
SWIDTH 960 0
DWIDTH 40 0
BBX 40 40 0 -6
BITMAP
0000000000
0000000000
0000000000
0001F04000
0001F06000
0007FFE000
0007FFC000
00060F8000
0000000000
0000000000
0000000000
0000000000
0000000000
0038001C00
0038001C00
01F801FC00
01F800FC00
0038001C00
0038001C00
0038001C00
0038001C00
0038001C00
0038001C00
0038001C00
0038001C00
0038001C00
0038001C00
0038001C00
0038001C00
0038001C00
0038001C00
003C003C00
000E007C00
000F03FC00
000F83FC00
0001FE1F80
0001FE1F80
0000000000
0000000000
0000000000
ENDCHAR

STARTCHAR jisx0212_2B6D
ENCODING 11117
SWIDTH 960 0
DWIDTH 40 0
BBX 40 40 0 -6
BITMAP
0000038000
0000078000
00003F8000
0001F00000
0001F00000
0000000000
0000000000
000781E000
000FC3F000
000FC3F000
000781E000
000300C000
0000000000
0038001C00
0038001C00
01F801FC00
01F800FC00
0038001C00
0038001C00
0038001C00
0038001C00
0038001C00
0038001C00
0038001C00
0038001C00
0038001C00
0038001C00
0038001C00
0038001C00
0038001C00
0038001C00
003C003C00
000E007C00
000F03FC00
000F83FC00
0001FE1F80
0001FE1F80
0000000000
0000000000
0000000000
ENDCHAR

STARTCHAR jisx0212_2B6E
ENCODING 11118
SWIDTH 960 0
DWIDTH 40 0
BBX 40 40 0 -6
BITMAP
0001C00000
0001E00000
0001FC0000
00000F8000
00000F8000
0000000000
0000000000
000781E000
000FC3F000
000FC3F000
000781E000
000300C000
0000000000
0038001C00
0038001C00
01F801FC00
01F800FC00
0038001C00
0038001C00
0038001C00
0038001C00
0038001C00
0038001C00
0038001C00
0038001C00
0038001C00
0038001C00
0038001C00
0038001C00
0038001C00
0038001C00
003C003C00
000E007C00
000F03FC00
000F83FC00
0001FE1F80
0001FE1F80
0000000000
0000000000
0000000000
ENDCHAR

STARTCHAR jisx0212_2B6F
ENCODING 11119
SWIDTH 960 0
DWIDTH 40 0
BBX 40 40 0 -6
BITMAP
0007838000
0003878000
0001CE0000
0000FC0000
00007C0000
000781E000
000781E000
000FC3F000
000781E000
000781E000
0000000000
0000000000
0000000000
0038001C00
0038001C00
01F801FC00
01F800FC00
0038001C00
0038001C00
0038001C00
0038001C00
0038001C00
0038001C00
0038001C00
0038001C00
0038001C00
0038001C00
0038001C00
0038001C00
0038001C00
0038001C00
003C003C00
000E007C00
000F03FC00
000F83FC00
0001FE1F80
0001FE1F80
0000000000
0000000000
0000000000
ENDCHAR

STARTCHAR jisx0212_2B70
ENCODING 11120
SWIDTH 960 0
DWIDTH 40 0
BBX 40 40 0 -6
BITMAP
0007FFE000
0003FFC000
0000000000
0000000000
0000000000
000781E000
000781E000
000FC3F000
000781E000
000781E000
0000000000
0000000000
0000000000
0038001C00
0038001C00
01F801FC00
01F800FC00
0038001C00
0038001C00
0038001C00
0038001C00
0038001C00
0038001C00
0038001C00
0038001C00
0038001C00
0038001C00
0038001C00
0038001C00
0038001C00
0038001C00
003C003C00
000E007C00
000F03FC00
000F83FC00
0001FE1F80
0001FE1F80
0000000000
0000000000
0000000000
ENDCHAR

STARTCHAR jisx0212_2B71
ENCODING 11121
SWIDTH 960 0
DWIDTH 40 0
BBX 40 40 0 -6
BITMAP
0000000000
0000000000
0000000000
0000780000
00007C0000
0001CE0000
0001CF0000
0007838000
0000000000
0000000000
0000000000
0000000000
0000000000
3FE01807F0
3FF03C0FF8
07003C0080
07003C0180
07007C0380
03C06E0300
01C04E0300
01C04E0300
01C0CE0300
01C1CE0F00
00E1878C00
00F1838C00
00F1838C00
00F1838C00
00F7839C00
003E01F800
003E01F000
003E01F000
003E01F000
003E01F000
001C006000
0008006000
0008006000
0008004000
0000000000
0000000000
0000000000
ENDCHAR

STARTCHAR jisx0212_2B72
ENCODING 11122
SWIDTH 960 0
DWIDTH 40 0
BBX 40 40 0 -6
BITMAP
0000000000
0000000000
0000000000
0000038000
0000038000
00003F8000
00003F8000
0001F00000
0000000000
0000000000
0000000000
0000000000
0000000000
007FC07F80
00FFC07F80
000E000C00
000E000C00
000E001C00
0007001800
0007801000
0007807000
0003807000
0001C06000
0001C0E000
0001C1E000
0000718000
0000718000
0000738000
00003F0000
00003E0000
00003E0000
00001E0000
00000C0000
00081C0000
00083C0000
003E300000
003E300000
003E700000
001FE00000
000FC00000
ENDCHAR

STARTCHAR jisx0212_2B73
ENCODING 11123
SWIDTH 960 0
DWIDTH 40 0
BBX 40 40 0 -6
BITMAP
0000000000
0000000000
0000000000
0001C07000
0001C07000
0007F1FC00
0003F0FC00
0001C07000
0000000000
0000000000
0000000000
0000000000
0000000000
007FC07F80
00FFC07F80
000E000C00
000E000C00
000E001C00
0007001800
0007801000
0007807000
0003807000
0001C06000
0001C0E000
0001C1E000
0000718000
0000718000
0000738000
00003F0000
00003E0000
00003E0000
00001E0000
00000C0000
00081C0000
00083C0000
003E300000
003E300000
003E700000
001FE00000
000FC00000
ENDCHAR

STARTCHAR jisx0212_2B74
ENCODING 11124
SWIDTH 960 0
DWIDTH 40 0
BBX 40 40 0 -6
BITMAP
0000000000
0000000000
0000000000
00001E0000
00003E0000
0000738000
0000F38000
0001C1E000
0000000000
0000000000
0000000000
0000000000
0000000000
007FC07F80
00FFC07F80
000E000C00
000E000C00
000E001C00
0007001800
0007801000
0007807000
0003807000
0001C06000
0001C0E000
0001C1E000
0000718000
0000718000
0000738000
00003F0000
00003E0000
00003E0000
00001E0000
00000C0000
00081C0000
00083C0000
003E300000
003E300000
003E700000
001FE00000
000FC00000
ENDCHAR

STARTCHAR jisx0212_2B75
ENCODING 11125
SWIDTH 960 0
DWIDTH 40 0
BBX 40 40 0 -6
BITMAP
0000000000
0000000000
0000000000
0000038000
0000038000
00003F8000
00003F8000
0001F00000
0000000000
0000000000
0000000000
0000000000
0000000000
000FFFFC00
000FFFFC00
000E007C00
000E007C00
000801F000
000803E000
000803E000
0000038000
0000078000
00000E0000
00001E0000
00003E0000
00007C0000
0000780000
0000700000
0001E00000
0001C00000
0007C00C00
0007C00C00
000F800C00
003E001C00
003E001C00
003FFFFC00
003FFFFC00
0000000000
0000000000
0000000000
ENDCHAR

STARTCHAR jisx0212_2B76
ENCODING 11126
SWIDTH 960 0
DWIDTH 40 0
BBX 40 40 0 -6
BITMAP
0000000000
0000000000
0000000000
0003038000
0007838000
0001CE0000
0001EE0000
00007C0000
0000000000
0000000000
0000000000
0000000000
0000000000
000FFFFC00
000FFFFC00
000E007C00
000E007C00
000801F000
000803E000
000803E000
0000038000
0000078000
00000E0000
00001E0000
00003E0000
00007C0000
0000780000
0000700000
0001E00000
0001C00000
0007C00C00
0007C00C00
000F800C00
003E001C00
003E001C00
003FFFFC00
003FFFFC00
0000000000
0000000000
0000000000
ENDCHAR

STARTCHAR jisx0212_2B77
ENCODING 11127
SWIDTH 960 0
DWIDTH 40 0
BBX 40 40 0 -6
BITMAP
0000000000
0000000000
0000000000
0000180000
00003C0000
00007E0000
00007E0000
00003C0000
0000000000
0000000000
0000000000
0000000000
0000000000
000FFFFC00
000FFFFC00
000E007C00
000E007C00
000801F000
000803E000
000803E000
0000038000
0000078000
00000E0000
00001E0000
00003E0000
00007C0000
0000780000
0000700000
0001E00000
0001C00000
0007C00C00
0007C00C00
000F800C00
003E001C00
003E001C00
003FFFFC00
003FFFFC00
0000000000
0000000000
0000000000
ENDCHAR

STARTCHAR jisx0212_3021
ENCODING 12321
SWIDTH 960 0
DWIDTH 40 0
BBX 40 40 0 -6
BITMAP
0000000010
0000000010
000000003C
000000003C
FFFFFFFFFF
0003000000
0003000000
0003000000
0003000000
000F000000
000E000000
000E000000
000E000000
000E000000
003E000200
0038000780
0038000780
003FFFFFE0
00380003E0
00780003E0
0060000380
0060000380
0060000380
0000000380
0000000380
0000000380
0000000380
0000000380
0000000380
0000000380
0000000780
0000000600
0000000600
0000000600
0000781E00
00000FFC00
000000F000
000000F000
0000008000
0000008000
ENDCHAR

STARTCHAR jisx0212_3022
ENCODING 12322
SWIDTH 960 0
DWIDTH 40 0
BBX 40 40 0 -6
BITMAP
0000000000
0000000000
0000180000
0000180000
00001F8000
0000180000
0000180000
0000180000
0000180000
0000180000
0000180000
0000180000
0000180000
0000180000
0000180000
0000180000
0000180000
0000180000
0000180000
0000180000
0000180000
0000180000
0000180000
0000180000
0000180000
0000180000
0000180000
0000180000
0000180000
0000180000
0000180000
0000180000
0000180000
0000180000
0000180010
000018003C
000018003C
3FFFFFFFFF
0000000000
0000000000
ENDCHAR

STARTCHAR jisx0212_3023
ENCODING 12323
SWIDTH 960 0
DWIDTH 40 0
BBX 40 40 0 -6
BITMAP
0000000000
0000000000
0000000010
0000000010
000000003C
3FFFFFFFFF
0000180000
0000180000
0000180000
0000180000
0000180000
0000180000
0000180000
0000180000
0000180000
0000180000
0000180000
0000180000
0000180000
0000180000
0000180000
0000180000
0000180000
0000180000
0000180000
0000180000
0000180000
0000180000
0000180000
0000180000
0000180000
0000180000
0000180000
0000180000
0000180000
0000180000
0000180000
0000180000
0000180000
0000180000
ENDCHAR

STARTCHAR jisx0212_3024
ENCODING 12324
SWIDTH 960 0
DWIDTH 40 0
BBX 40 40 0 -6
BITMAP
0000000000
0000000000
0000000010
0000000010
000000003C
3FFFFFFFFF
000E007000
000E007000
000E007000
000E007000
000E007000
000E007000
000E007000
000E007000
000E007000
000E007000
000E007000
000E007000
000E007000
000E007000
000E007000
000E007000
003E007000
0038007000
0038007000
0038007000
0038007000
0038007000
0020007000
0060007000
0060007000
0040007000
01C0007000
0100007000
0700007000
0C00007000
0800007000
3800007000
2000007000
E000007000
ENDCHAR

STARTCHAR jisx0212_3025
ENCODING 12325
SWIDTH 960 0
DWIDTH 40 0
BBX 40 40 0 -6
BITMAP
0000000080
0000000080
00000003E0
00000003E0
0FFFFFFFF0
00000000F0
00000000E0
00000E00E0
00000E00E0
00000FC0E0
00000E00E0
00000E00E0
01C01E00E0
00401800E0
00781800E0
000FF800E0
0003F000E0
0003F000E0
0001F000E0
0001F800E0
0003FE00E0
00030E00E0
00030F80E0
00020380E0
000E03C0E0
003803C0E0
00200080E0
00600083E0
0040000380
01C0000380
070003FF80
0400001E00
0C00001E00
0000001000
0000001010
000000003C
000000003C
FFFFFFFFFF
0000000000
0000000000
ENDCHAR

STARTCHAR jisx0212_3026
ENCODING 12326
SWIDTH 960 0
DWIDTH 40 0
BBX 40 40 0 -6
BITMAP
0000000020
0000000020
00000000F0
00000000F0
3FFFFFFFFC
0000180000
0000180000
0000180000
0000180000
0000180200
0000180780
0000180780
07FFFFFFE0
0000180000
0000180000
0000180000
0000180000
0000180010
0000180010
000018003C
FFFFFFFFFF
0001F00000
0001F00000
0001C00000
0001C00000
0003C0C000
0003004000
0003007000
0002001000
000E001E00
000E000780
0008000380
00380003E0
00200003E0
002003FFF0
3FFFFE003C
0FFE00003C
0FFE00003C
0800000010
0800000010
ENDCHAR

STARTCHAR jisx0212_3027
ENCODING 12327
SWIDTH 960 0
DWIDTH 40 0
BBX 40 40 0 -6
BITMAP
0000000010
0000000010
000000003C
000000003C
FFFFFFFFFF
0003038000
0003038000
0003038000
0003038000
0003038000
0803038020
0803038020
0C030380F0
0C030380F0
0FFF03FFFC
0C0303803C
0C03038030
0C03038030
0C03038030
0C03038030
0C03038030
0C03038030
0C03038030
0C03038030
0FFF03FFF0
0C03038030
0C03038030
0C03038030
0003038000
000F038000
000E038000
000E038000
003E038000
0038038000
0078038000
01E0038000
0100038000
0F00038000
0800038000
F800038000
ENDCHAR

STARTCHAR jisx0212_3028
ENCODING 12328
SWIDTH 960 0
DWIDTH 40 0
BBX 40 40 0 -6
BITMAP
0000000010
0000000010
000000003C
000000003C
FFFFFFFFFF
000E00C000
000E00C000
000E00C000
000E00C000
200E00C010
380E00C03C
380E00C03C
3FFFFFFFFF
380E00C01F
380E00C01F
380E00C01C
380E00C01C
383F00C01C
383900C01C
3839C3F01C
3838739C1C
382073841C
386073861C
386042061C
38604E079C
39C00E039C
390008039C
390018039C
380010021C
3C0070021C
3801C0001C
380000001C
380000001C
380000001C
380000001C
3800001FFC
38000000F0
38000000F0
3800000020
3800000020
ENDCHAR

STARTCHAR jisx0212_3029
ENCODING 12329
SWIDTH 960 0
DWIDTH 40 0
BBX 40 40 0 -6
BITMAP
0000180000
0000180000
00001F8000
0000180000
0000180000
0000180000
0000180000
0000180000
0000180000
0000180000
0000180000
0000180000
0000180000
0000180000
0000180000
0000180000
0000180000
0000180000
0000180000
0000180000
0000180000
0000180000
0000180000
0000180000
0000180000
0000180000
0000180000
0000180000
0000180000
0000180000
0000180000
0000180000
0000180000
0000180000
0000180000
0000180000
0000180000
0000180000
0000180000
0000180000
ENDCHAR

STARTCHAR jisx0212_302A
ENCODING 12330
SWIDTH 960 0
DWIDTH 40 0
BBX 40 40 0 -6
BITMAP
0000001C00
0000001C00
0060001F80
0020001C00
003E007C00
000F007000
0003004000
0003C0C000
0003C08000
0003C38000
0001020000
0000000000
0000180000
0000180000
00001F8000
0000180000
0000180000
0000180000
0000180000
0000180000
0000180000
0000180000
0000180000
0000180000
0000180000
0000180000
0000180000
0000180000
0000180000
0000180000
0000180000
0000180000
0000180000
0000180000
0000180000
0000180000
0000180000
0000180000
0000180000
0000180000
ENDCHAR

STARTCHAR jisx0212_302B
ENCODING 12331
SWIDTH 960 0
DWIDTH 40 0
BBX 40 40 0 -6
BITMAP
0000000200
0000000200
0000000780
0000000780
FFFFFFFFE0
00000003E0
0000000380
000E000380
000E000380
000FC00380
000E000380
000E000380
000E020380
000E020380
000E0F8380
0FFFFFC380
000E000380
000E000380
000E000380
000E000380
000E000380
000E000380
000E008380
000E008380
000E03C3E0
3FFFFFF0E0
000E0000E0
000E0000E0
000E0000E0
000E0000E1
000E0000F1
000E000031
000E000031
000E000031
000E00003F
000E00001C
000E00001C
000E00001F
000E000007
000E000007
ENDCHAR

STARTCHAR jisx0212_302C
ENCODING 12332
SWIDTH 960 0
DWIDTH 40 0
BBX 40 40 0 -6
BITMAP
0000180000
0000180000
00001F8000
0000180000
0000180380
0000187FF0
0000187E00
00001FFE00
00001F8000
000FFF8000
0FFE180000
0000180000
0000180000
0000180000
0000180380
0000187FF0
0000187E00
00001FFE00
00001F8000
000FFF8000
0FFE180000
0000180000
0000180000
0000180000
0000180030
0000181FFF
0000181FE0
00001FFFE0
00001FC000
003FFFC000
FFF8180000
0000180000
0000180000
0000180000
0000180000
0000180000
0000180000
0000180000
0000180000
0000180000
ENDCHAR

STARTCHAR jisx0212_302D
ENCODING 12333
SWIDTH 960 0
DWIDTH 40 0
BBX 40 40 0 -6
BITMAP
0000180000
0000180000
00001F8000
0000180000
0000180000
0000180020
0000180020
00001800F0
00001800F0
3FFFFFFFFC
0000180000
0000180000
0000180000
0000180000
0000180000
0000180080
0000180080
00001803E0
00001803E0
0FFFFFFFF0
0000180000
0000180000
0000180000
0000180000
0000180000
0000180010
0000180010
000018003C
000018003C
FFFFFFFFFF
0000180000
0000180000
0000180000
0000180000
0000180000
0000180000
0000180000
0000180000
0000180000
0000180000
ENDCHAR

STARTCHAR jisx0212_302E
ENCODING 12334
SWIDTH 960 0
DWIDTH 40 0
BBX 40 40 0 -6
BITMAP
0001020000
0001020000
0041F3C400
0041C38400
0079C38780
0061C38600
0061C38600
0061C38600
0061C38600
0061C38600
0061C3861C
0061C3861C
FFFFFFFFFF
0038007C00
0038007C00
000E007000
000E007000
000F007000
0003004000
000300C080
00020083E0
00020083E0
0FFFFFFFF0
0000180000
0000180000
0000180000
0000180000
0000180010
0000180010
000018003C
FFFFFFFFFF
0000180000
0000180000
0000180000
0000180000
0000180000
0000180000
0000180000
0000180000
0000180000
ENDCHAR

STARTCHAR jisx0212_302F
ENCODING 12335
SWIDTH 960 0
DWIDTH 40 0
BBX 40 40 0 -6
BITMAP
0000000000
0000000000
0000000000
0000000000
0020000000
0020000000
0020000000
0060000000
0040000000
0048000000
01C8000000
01C8000000
01C8000000
01C8000000
07CE000000
0F02000000
0702000000
0703000000
0101000000
0101C00000
0001C00000
0000400000
0000700000
0000700000
0000780000
00001E0000
00000E0000
00000FC000
000003C000
000003F000
000000FE00
0000001E00
0000001FE0
00000007E0
00000007FF
00000000FC
0000000010
0000000010
0000000000
0000000000
ENDCHAR

STARTCHAR jisx0212_3030
ENCODING 12336
SWIDTH 960 0
DWIDTH 40 0
BBX 40 40 0 -6
BITMAP
0000008000
0000008000
000003C000
000003C000
01FFFFF000
000000C000
0000008000
0000008000
0000008000
0000008000
0000008000
0000008000
0000008000
0000008000
000000C000
000000C000
0000004000
0000004000
0000004000
0000007000
0000007000
0000007000
0000007C00
0000001C00
0000001C00
0000001E00
0000000600
0000000780
0000000780
0000000780
00000003E0
00000003E0
00000003F0
00000000F0
00000000FC
000000003F
0000000010
0000000010
0000000000
0000000000
ENDCHAR

STARTCHAR jisx0212_3031
ENCODING 12337
SWIDTH 960 0
DWIDTH 40 0
BBX 40 40 0 -6
BITMAP
0000007000
0000007000
0000007E00
0000007000
0000007000
0000007000
0000007000
000000F000
000000C000
000000C000
01C000C000
004000C000
007803C000
0008038000
000FC38000
0001FF8000
00001E0000
00001E0000
00000E0000
00000FC000
00001FF000
0000187000
0000787E00
0000701E00
0000701F80
0001F007E0
0001C003E0
0803C003E0
0803000080
080F000080
083E000000
0838000000
0878000000
0860000000
0FE0000000
3FC0000000
3C00000000
3C00000000
0000000000
0000000000
ENDCHAR

STARTCHAR jisx0212_3032
ENCODING 12338
SWIDTH 960 0
DWIDTH 40 0
BBX 40 40 0 -6
BITMAP
0000000200
0000000200
0000007F80
0000007F80
00000FFFE0
0003FFF000
0003F80000
01FFF80000
01C1C00000
FFC1C00000
0001C00000
0001C00000
0001C00000
0001C00000
0001C00000
0001C00010
0001C00010
0001C0003C
0001C0003C
0001CFFFFF
FFFFF80000
0001C00000
0001C00000
0001C00000
0001C00000
0001C00000
0001C00000
0001C00000
0001C00000
0001C00004
0001C00004
0001C00004
0001C0001C
0001C00010
0001C00010
0001F0003C
000070003C
00007FFFFF
00001FFFFC
00001FFFFC
ENDCHAR

STARTCHAR jisx0212_3033
ENCODING 12339
SWIDTH 960 0
DWIDTH 40 0
BBX 40 40 0 -6
BITMAP
0000000400
0000000400
000003FE00
000003FE00
0003FFFF80
0FFFF80000
0000180000
0000180000
0000180000
0000180000
00201800E0
00201800E0
007E1803FC
00781803E0
00781807E0
01E01E1E00
01C01E1C00
07C01E7C00
07001E4000
0F001FC000
3800188000
2000188000
E00818C000
0008184000
003F187000
003E187C00
0038181C00
0078181E00
0060180600
01E01807E0
07C01803F0
07001800F0
0F001800FF
080018003C
380018003C
E000180010
0000180000
0000180000
0000180000
0000180000
ENDCHAR

STARTCHAR jisx0212_3034
ENCODING 12340
SWIDTH 960 0
DWIDTH 40 0
BBX 40 40 0 -6
BITMAP
0700000000
0700000000
07E0000000
0700000000
0700000000
0700000000
0700000000
0700000000
0700000000
0700000000
0700000000
0700000000
0700000000
0700000000
0700000000
0700000000
0700000000
0700000000
0700000000
0700000000
0700000000
0700000000
0700000000
0700000000
0700000000
0700000000
0700000000
0700000020
0700000020
0700000020
07000000E0
0700000080
0700000080
0700000080
07C00003E0
01FFFFFFF0
007FFFFFE0
007FFFFFE0
0000000000
0000000000
ENDCHAR

STARTCHAR jisx0212_3035
ENCODING 12341
SWIDTH 960 0
DWIDTH 40 0
BBX 40 40 0 -6
BITMAP
0060000000
0060000000
007E000000
0060000000
0060000000
0060000000
0060000000
0060000200
0060000200
0060000780
0060007FE0
00600043E0
00600FC3E0
0060080380
0061F80380
007F000380
0060000380
0FE0000380
0860000380
F860000380
0060000380
0060000380
0060000780
0060000600
0060000600
0060000600
0060000600
006003FE00
0060007C00
0060007C04
0060004004
0060000004
006000001C
0060000010
0060000010
007800003C
003800003C
003FFFFFFF
000FFFFFFC
000FFFFFFC
ENDCHAR

STARTCHAR jisx0212_3036
ENCODING 12342
SWIDTH 960 0
DWIDTH 40 0
BBX 40 40 0 -6
BITMAP
0038038000
0038038000
003F03F000
0038038000
0038038000
0078038000
0060038000
0060038000
0060038000
0060038000
01C0038000
01C0038000
81C0038000
8100038000
E703038000
3C03F38000
0C03038000
0C0F038000
0C0E038000
0F0E038000
070E038000
0408038000
0438038000
0038038000
0038038000
0060038000
0060038000
0062038000
0042038000
01C3038004
01C1C38004
0101C38004
0701C3801C
0401C38010
043FF38010
FFE073803C
3C0073803C
3C0073FFFF
200040FFFC
200040FFFC
ENDCHAR

STARTCHAR jisx0212_3037
ENCODING 12343
SWIDTH 960 0
DWIDTH 40 0
BBX 40 40 0 -6
BITMAP
0060007000
0060007000
007E007E00
0060007000
0060007000
01E0007000
01C0007000
01C0007000
01C0007000
01C3007000
0701C07000
0700407000
0700707000
0400707000
040FF87000
FFF81E7000
3F000E7000
3F000E7000
2000087000
2000087000
0800407000
0800407000
0C01F07000
0C01F07000
0FFFF87000
0C00787000
0C00707000
0C00707000
0C00707000
0C00707004
0C00707004
0C00707004
0C00707004
0C00707004
0C0070701C
0FFFF0701C
0C0070701C
0C00707FFF
0C00701FFC
0C00701FFC
ENDCHAR

STARTCHAR jisx0212_3038
ENCODING 12344
SWIDTH 960 0
DWIDTH 40 0
BBX 40 40 0 -6
BITMAP
0060007000
0060007000
007E007E00
0060007000
0060007000
0060007000
0060007000
0060107000
0060107000
0060787000
007FFE7000
0060007000
0060007000
0060007000
0060007000
0060007000
0060007000
0060007000
0060007000
2060407000
3861F07000
3861F07000
3FFFF87000
3800787000
3800787000
3800707000
3800707000
3800707000
3800707000
3800707004
3800707004
3800707004
3800707004
3800707004
380070701C
3FFFF0701C
380070701C
3800707FFF
3800701FFC
3800701FFC
ENDCHAR

STARTCHAR jisx0212_3039
ENCODING 12345
SWIDTH 960 0
DWIDTH 40 0
BBX 40 40 0 -6
BITMAP
01E01000E0
01C01000E0
01C0181FFC
01C0181E00
01C31FFE00
FFFFF80010
01C0180010
01C018003C
01C018003C
01C01FFFFF
01CF180600
01C8180600
FFF8180600
3FC0180600
3FC0180600
21C0700600
01C0700600
01C0700600
01C0400600
01C1C00600
3FC3000600
0702000600
070E080600
0000080000
00001E0000
3FFFFF8000
0000780000
0000780000
0000700000
0001F00004
0003C00004
0003000004
000F00001C
000E000010
003E000010
007800003C
007800003C
007FFFFFFF
003FFFFFFC
003FFFFFFC
ENDCHAR

STARTCHAR jisx0212_303A
ENCODING 12346
SWIDTH 960 0
DWIDTH 40 0
BBX 40 40 0 -6
BITMAP
004000C000
004000C000
007800FC00
006000C000
006000C000
0061C0C000
0061C0C000
3FFFF0C000
080F00C000
080F00C000
0C0E00C000
040E00C000
040E00C000
040800C000
073800C000
073840C000
042040C000
0421F0C000
0421F0C000
FFFFF8C000
006000C000
006000C000
006000C000
006000C000
006000C000
0061C0C000
0061C0C000
3FFFF0C000
006000C000
006000C004
006000C004
006000C004
006000C01C
006000C010
006000C010
006000C03C
006000C03C
006000FFFF
0060007FFC
0060007FFC
ENDCHAR

STARTCHAR jisx0212_303B
ENCODING 12347
SWIDTH 960 0
DWIDTH 40 0
BBX 40 40 0 -6
BITMAP
007800C000
006000C000
006000FC00
006000C000
006070C000
FFFFF8C000
006000C000
006000C000
006000C000
006000C000
2061C0C000
2061C0C000
3FFFF0C000
3801F0C000
3801F0C000
3801C0C000
3801C0C000
3FFFC0C000
3801C0C000
3801C0C000
3801C0C000
3801C0C000
3801C0C000
3801C0C000
3FFFC0C000
3861C0C000
006000C000
006000C000
006000C000
006070C004
FFFFF8C004
006000C004
006000C01C
006000C010
006000C010
006000C03C
006000C03C
006000FFFF
0060007FFC
0060007FFC
ENDCHAR

STARTCHAR jisx0212_303C
ENCODING 12348
SWIDTH 960 0
DWIDTH 40 0
BBX 40 40 0 -6
BITMAP
0000707000
0000707000
080FF87E00
080E007000
0FFE007000
0C38707000
0C08107000
0C0E187000
080E087000
380E0E7000
38480E7000
2048007000
E078007000
8060007000
81E2007000
39C3C07000
0903007000
0F0F007000
070E007000
070E007000
0439C07000
0020407000
0060707000
0060707000
FFFFF87000
3F38187000
2038107000
2038107000
0038007000
0F39C07004
0C38707004
0C38707004
0C38787004
0838187004
383818701C
383818701C
203810701C
E038107FFF
8038001FFC
8038001FFC
ENDCHAR

STARTCHAR jisx0212_303D
ENCODING 12349
SWIDTH 960 0
DWIDTH 40 0
BBX 40 40 0 -6
BITMAP
0000000080
0000000080
00000003E0
00000003E0
0FFFFFFFF0
0000000000
0000000000
0000000000
0000000000
0000000000
0000000000
0000000000
0000000010
0000000010
000000003C
FFFFFFFFFF
0000180000
0000180000
0000180000
0000180000
0000180000
0000180000
0000180000
0000180000
0000180000
0000180000
0000180000
0000180000
0000180000
0000180000
0000180000
0000180000
0000180000
0000180000
0000180000
003FF80000
0001F00000
0001F00000
0000400000
0000400000
ENDCHAR

STARTCHAR jisx0212_303E
ENCODING 12350
SWIDTH 960 0
DWIDTH 40 0
BBX 40 40 0 -6
BITMAP
0000000200
0000000200
0000000780
0000000780
07FFFFFFE0
0000000000
0000000000
0000000000
0000000000
0000000000
0000000000
0000000000
0000000020
0000000020
00000000F0
3FFFFFFFFC
0000000000
0000000000
0000000000
0000000000
0000000000
0000000000
0000000200
0000000200
0000000780
07FFFFFFE0
0000000000
0000000000
0000000000
0000000000
0000000000
0000000000
0000000000
0000000000
0000000010
000000003C
000000003C
FFFFFFFFFF
0000000000
0000000000
ENDCHAR

STARTCHAR jisx0212_303F
ENCODING 12351
SWIDTH 960 0
DWIDTH 40 0
BBX 40 40 0 -6
BITMAP
0000180000
0000180000
00001F8000
0000180000
0C00180030
0FC018003F
0C00180030
0C00180030
0C00180030
0C00180030
0C00180030
0C00180030
0C00180030
0C00180030
0C00180030
0FFFFFFFF0
0C00000030
0C00000030
0C00000030
0C00000030
0000000000
0000000000
0000000200
0000000200
0000000780
07FFFFFFE0
0000000000
0000000000
0000000000
0000000000
0000000000
0000000000
0000000000
0000000000
0000000010
000000003C
000000003C
FFFFFFFFFF
0000000000
0000000000
ENDCHAR

STARTCHAR jisx0212_3040
ENCODING 12352
SWIDTH 960 0
DWIDTH 40 0
BBX 40 40 0 -6
BITMAP
0000700000
0000700000
00007E0000
0000700000
0001F00000
0001C0C000
0001004000
0003007C00
0002001C00
000E001E00
0FFFFFFF80
07FFC00380
07FFC003E0
04400000E0
04400010E0
0078001E00
0060001C00
01E0007C00
01C0007000
01C00070E0
070E00C030
0402008010
040300801C
040300801C
FFFFCFFFFF
3F01C3F007
2001020004
2001020204
0000000200
0000000780
07FFFFFFE0
0000000000
0000000000
0000000000
0000000020
00000000F0
00000000F0
3FFFFFFFFC
0000000000
0000000000
ENDCHAR

STARTCHAR jisx0212_3041
ENCODING 12353
SWIDTH 960 0
DWIDTH 40 0
BBX 40 40 0 -6
BITMAP
00001E0000
0000180000
0000180010
0000180010
000018003C
FFFFFFFFFF
0000000000
0000000000
0000000000
0100000380
01FFFFFFE0
01C0000380
01C0000380
01C0000380
01C0000380
01C0000380
01C0000380
01FFFFFF80
01C0000380
01C0000380
0800000020
0800000020
0C000000F0
0C000000F0
0FFFFFFFFC
0C0000003C
0C00000030
0C00000030
0C00000030
0C00000030
0FFFFFFFF0
0C00000030
0C00000030
0C00000030
0C00000030
0C00000030
0C00000030
0FFFFFFFF0
0C00000030
0C00000030
ENDCHAR

STARTCHAR jisx0212_3042
ENCODING 12354
SWIDTH 960 0
DWIDTH 40 0
BBX 40 40 0 -6
BITMAP
00001E0000
0000180000
000018001C
000018001C
FFFFFFFFFF
0020000000
0020000000
047FFFC0E0
044200C0E0
07C200C7F0
070278C0E0
070200C0E0
07E200C7E0
070200C0E0
070278C0E0
07E248C7E0
070248C0E0
070278C0E0
070200C0E0
070200C0E4
0FFFFFFFFF
0800000007
3800000007
3800000004
F84000061C
E07FFFFF90
0060000600
0060000600
0060000600
007FFFFE00
0060000600
0060000600
007FFFFE00
0060000600
0060000604
006000061F
006000061F
FFFFFFFFFF
0000000000
0000000000
ENDCHAR

STARTCHAR jisx0212_3043
ENCODING 12355
SWIDTH 960 0
DWIDTH 40 0
BBX 40 40 0 -6
BITMAP
01C0000000
01C0000000
01F8000010
01C0000010
01C000003C
01CFFFFFFF
01C0007000
07C0007000
0700007000
0700007000
0700007000
0700007000
0F00007000
0F00007000
0F00007000
0F00007000
0F00007000
3F00007000
2700007000
2700007000
E700007000
8700007000
8700007000
0700007000
0700007000
0700007000
0700007000
0700007000
0700007000
0700007000
0700007000
0700007000
0700007000
0700007000
0700007000
07007FF000
070003C000
070003C000
0700008000
0700008000
ENDCHAR

STARTCHAR jisx0212_3044
ENCODING 12356
SWIDTH 960 0
DWIDTH 40 0
BBX 40 40 0 -6
BITMAP
0000700000
0000700000
00007E0000
0000780000
0001F80000
0003CE0000
0003020000
0003038000
0002008000
000E00C000
0038007C00
0020001C00
0060001F80
0040000780
01C01807F0
0F001F83FF
080018003C
380018003C
2000180010
E000180010
0000180000
0000180000
0000180020
0000180020
00001800F0
3FFFFFFFFC
0000180000
0000180000
0000180000
0000180000
0000180000
0000180000
0000180000
0000180000
0000180000
0000180000
0000180000
0000180000
0000180000
0000180000
ENDCHAR

STARTCHAR jisx0212_3045
ENCODING 12357
SWIDTH 960 0
DWIDTH 40 0
BBX 40 40 0 -6
BITMAP
0000700000
0000700000
00007E0000
0000780000
0001F80000
0003CE0000
0003020000
0003038000
0002008000
000E00C000
0038007C00
0020001C00
0060001F80
0040000780
01C00007F0
0F001803FF
080018003C
38001F803C
2000180010
E000180010
0000180000
0000180000
07001800E0
07001800E0
07E01800FC
07001800E0
07001800E0
07001800E0
07001800E0
07001800E0
07001800E0
07001800E0
07001800E0
07001800E0
07001800E0
07FFFFFFE0
07000000E0
07000000E0
07000000E0
07000000E0
ENDCHAR

STARTCHAR jisx0212_3046
ENCODING 12358
SWIDTH 960 0
DWIDTH 40 0
BBX 40 40 0 -6
BITMAP
01C0000080
01C0000080
01F80007E0
01C00007E0
01C000FFF0
01C01FFC00
01C01E0000
07CFFE0000
07000E0000
07000E0000
07000E0000
07000E0000
0F000E0000
0F000E0000
0F000E0000
0F000E0010
0F000E0010
3F000E003C
27000E003C
27000FFFFF
E73FFE0000
87000E0000
87000E0000
07000E0000
07000E0000
07000E0000
07000E0000
07000E0004
07000E0004
07000E0004
07000E001C
07000E0010
07000E0010
07000E0010
07000E003C
07000FFFFF
070003FFFC
070003FFFC
0700000000
0700000000
ENDCHAR

STARTCHAR jisx0212_3047
ENCODING 12359
SWIDTH 960 0
DWIDTH 40 0
BBX 40 40 0 -6
BITMAP
01C0000020
01C0000020
01F80000F0
01C00000F0
01C3FFFFFC
01C000C000
01C000C000
07C000C000
070000C000
070000C000
070000C000
070000C000
0F0000C000
0F0000C000
0F0000C000
0F0000C010
0F0000C010
3F0000C03C
270000C03C
270FFFFFFF
E70000C000
870000C000
870000C000
070000C000
070000C000
070000C000
070000C000
070000C000
070000C000
070000C000
070000C000
070000C000
070000C000
070000C000
070000C000
070000C000
070000C000
070000C000
070000C000
070000C000
ENDCHAR

STARTCHAR jisx0212_3048
ENCODING 12360
SWIDTH 960 0
DWIDTH 40 0
BBX 40 40 0 -6
BITMAP
01C0180000
01C0180000
01F81F8000
01C0180000
01C0180000
01C0780010
01C0700010
07C070003C
070070003C
0701FFFFFF
0701C00000
0701000000
0F03000000
0F02000000
0F0E001000
0F38007C00
0F20007C00
3F23FFFE00
2700007000
2700007000
E70000F000
870000C000
870003C000
0700038000
0700038000
07000F8000
07000E0000
07001E0000
0700180000
0700180004
0700780004
0700700004
070070001C
0700700010
0701F00010
0701C0003C
0701C0003C
0701FFFFFF
07007FFFFC
07007FFFFC
ENDCHAR

STARTCHAR jisx0212_3049
ENCODING 12361
SWIDTH 960 0
DWIDTH 40 0
BBX 40 40 0 -6
BITMAP
01C0180000
01C0180000
01F81F8000
01C0180000
01C0180000
01C0780010
01C0700010
07C070003C
070070003C
07007FFFFF
0701C0001F
0701C0001C
0F01C0001C
0F0100001C
0F0300001C
0F0300001C
0F0200001C
3F0E18001C
270808001C
27380E001C
E72003801C
870003801C
870003C01C
070000C01C
070000F01C
070000F01C
070000401C
070000401C
070000001C
070000001C
070000003C
0700000030
0700000030
0700000030
07000000F0
070000FFE0
0700000780
0700000780
0700000400
0700000400
ENDCHAR

STARTCHAR jisx0212_304A
ENCODING 12362
SWIDTH 960 0
DWIDTH 40 0
BBX 40 40 0 -6
BITMAP
0060000000
0060000000
007E000000
0060000000
0060000020
01E00000F0
01C00000F0
01CFFFFFFC
01C0000000
01C0000000
07C0000000
0700000000
0700000000
0700000000
0F00000000
0F00000000
0F00000000
3F00000080
3F00000080
3F000003E0
E703FFFFF0
8700000000
8700000000
0700000000
0700000000
0700000000
0700000000
0700000000
0700000000
0700000000
0700000000
0700000000
0700000010
0700000010
070000003C
073FFFFFFF
0700000000
0700000000
0700000000
0700000000
ENDCHAR

STARTCHAR jisx0212_304B
ENCODING 12363
SWIDTH 960 0
DWIDTH 40 0
BBX 40 40 0 -6
BITMAP
006000C000
006000C000
007E00FC00
006000C000
006000C000
01E000C000
01C000C000
01C000C000
01C000C000
01C1C0C600
07C1F8C380
0701C0C080
0701C0C0E0
0701C0C020
0F01C0C030
0F03C0C01C
0F0300C01C
3F0300C01F
3F0300C007
3F0300C007
E70E00C087
870E00C084
870E00C0FC
070800C0E0
073800C3E0
07207FC380
0700038380
0700038780
0700020600
0700021E00
0700007C00
0700007000
070003F000
070003C000
07000FC000
07007E0000
0700700000
0703F00000
0702000000
073E000000
ENDCHAR

STARTCHAR jisx0212_304C
ENCODING 12364
SWIDTH 960 0
DWIDTH 40 0
BBX 40 40 0 -6
BITMAP
006003F000
006003C000
007E03C000
006003C000
00600FF000
01E00E1000
01C00E1000
01C01E1C00
01C0180400
01C0780600
07C0700780
0700400380
0701C003E0
07010000E0
0F030000FC
0F0E001C3F
0F08001C1C
3F387FFE1C
3F20000004
3FE0000004
E700000000
8700000000
87000000E0
07000000E0
070FFFFFF0
07000000E0
07000000E0
07000003E0
0700000380
0700000380
0700000780
0700000600
0700000600
0700000600
0700001E00
0700001C00
0700001C00
0700007C00
0700007000
0700007000
ENDCHAR

STARTCHAR jisx0212_304D
ENCODING 12365
SWIDTH 960 0
DWIDTH 40 0
BBX 40 40 0 -6
BITMAP
01C1C01C00
01C1C01C00
01F9F81F80
01C1C01C00
01C1C01C00
01C1C01C00
01C1C01C00
07C1C01C00
0701C01C00
0701C01C04
0701C01C1F
0701C01C1C
0F01C01C3C
0F01C01C30
0F01C39CF0
0F01FFFF80
0F01C01C00
3F01C01C00
2701C01C00
2701C01C00
E701C01C00
8701C01C00
8701C01C00
0701C01C00
0701C01C00
0701C01C00
0701C01C00
0701C01C00
0701C01C00
0701C01C04
0701C01C04
0701C01C04
0701C39C04
0701C21C04
0701FE1C1C
073FF01C1C
070F001C1C
070F001FFF
07080007FC
07080007FC
ENDCHAR

STARTCHAR jisx0212_304E
ENCODING 12366
SWIDTH 960 0
DWIDTH 40 0
BBX 40 40 0 -6
BITMAP
01C0700000
01C0700000
01F87E0000
01C0700000
01C0700020
01C1F000F0
01C1F000F0
07C1FFFFFC
0701C0C000
0701C0C000
070300C000
070300C000
0F0300C000
0F0200C000
0F0E00C000
0F3800C000
0F2000C000
3F2000C000
270000C000
270000C010
E70000C03C
870000C03C
873FFFFFFF
070000C000
070000C000
070000C000
070000C000
070000C000
070000C000
070000C000
070000C000
070000C000
070000C000
070000C000
070000C000
070000C000
070000C000
070000C000
070000C000
070000C000
ENDCHAR

STARTCHAR jisx0212_304F
ENCODING 12367
SWIDTH 960 0
DWIDTH 40 0
BBX 40 40 0 -6
BITMAP
01C0001C00
01C0001C00
01F87FFE00
01C0001000
01C0001000
01C0401C00
01C0400400
07C0780400
0700700400
0701F00600
0701C00380
0701C00080
0F03C000E0
0F030000E0
0F030000FC
0F0E00003F
0F0800001C
3F3800039C
2720000384
27E1FFFFE4
E700180380
8700180380
8700180380
0700180380
0700180380
0700180380
0700180380
0700780380
0700700380
0700700380
0700700380
0700400380
0701C00780
0701C00600
0701C00600
070303FE00
0702007C00
070E007C00
0708004000
0738004000
ENDCHAR

STARTCHAR jisx0212_3050
ENCODING 12368
SWIDTH 960 0
DWIDTH 40 0
BBX 40 40 0 -6
BITMAP
01E0000010
01C0000010
01C000003C
01C000003C
01CFFFFFFF
01C0700000
01C0700000
07C0700000
0700700000
0700700000
0700700200
0700700200
0F00700780
0F00700780
0F01FFFFE0
0F01C003E0
0F01C00380
3F01C00380
2701C00380
2701C00380
E701C00380
8701C00380
8703C00780
0703000600
0703000600
0703FFFE00
0703000600
0703000600
0703000600
0703000600
0700001E00
0700001C00
0700001C00
0700001C00
0700001C04
0700001C1F
0700001C1F
073FFFFFFF
0700000000
0700000000
ENDCHAR

STARTCHAR jisx0212_3051
ENCODING 12369
SWIDTH 960 0
DWIDTH 40 0
BBX 40 40 0 -6
BITMAP
01C0038000
01C0038000
01F803F000
01C0038000
01C0038000
01C0038010
01C0038010
07C003803C
070003803C
073FFFFFFF
0700180000
0700180000
0F001F8000
0F00180000
0F00180000
0F00180080
0F00180080
3F001803E0
27001803E0
27001FFFF0
E7001800F0
87001800E0
87001800E0
07001800E0
07007800E0
07007000E0
07007000E0
07007000E0
07007000E0
07007000E0
0701C000E0
0701C000E0
0701C000E0
07010000E0
07030003E0
070E03FF80
0708001E00
0738001E00
0700001000
07C0001000
ENDCHAR

STARTCHAR jisx0212_3052
ENCODING 12370
SWIDTH 960 0
DWIDTH 40 0
BBX 40 40 0 -6
BITMAP
01C0000600
01C0000600
01F80FFF80
01C0000400
01C0000400
01C1C00400
01C1C00400
07C1F80600
0701C00200
0701C00200
0703C00380
0703000380
0F030003E0
0F030000E0
0F030000F0
0F0E0E00FC
0F0E0E003C
3F0E0FC03F
27080E0010
27380E0010
E7200E0000
87000E0000
87001E0000
0700180000
0700180000
0700180600
0700180200
0700180380
0700100080
07007000E0
0700700030
0700400030
0700407FFC
070040701C
073FFFF01F
070FF8001F
0708000004
0708000004
0700000000
0700000000
ENDCHAR

STARTCHAR jisx0212_3053
ENCODING 12371
SWIDTH 960 0
DWIDTH 40 0
BBX 40 40 0 -6
BITMAP
01C000C000
01C000C000
01F800FC00
01C000C000
01C000C000
01C000C010
01C000C010
07C000C03C
070000C03C
073FFFFFFF
070000C000
070000C000
0F0000C000
0F0000C000
0F0200C020
0F0300C0F0
0F0300C0F0
3F03FFFFFC
270300C03C
270300C03C
E70300C030
870300C030
870300C030
070300C030
070300C030
070300C030
070300C030
070300C030
070300C030
070300C030
070300C7F0
070300C0E0
070300C0E0
070300C080
070300C080
070000C000
070000C000
070000C000
070000C000
070000C000
ENDCHAR

STARTCHAR jisx0212_3054
ENCODING 12372
SWIDTH 960 0
DWIDTH 40 0
BBX 40 40 0 -6
BITMAP
01C0000000
01C0000000
01F80000E0
01C00000E0
01C3FFFFF0
01C00003FC
01C00003E0
07C00007E0
0700000600
0700701E00
07001E7C00
07000E4000
0F000FC000
0F0003C000
0F0003C000
0F0000C01C
0F0000C01C
3F3FFFFFFF
270000C01F
270000C01F
E70000C03C
870000C030
870000C030
070000C020
070000C0E0
070000C080
070000C000
070000C000
070000C000
070000C000
070000C000
070000C000
070000C000
070000C000
070000C000
0701FFC000
07000F8000
07000F8000
0700020000
0700020000
ENDCHAR

STARTCHAR jisx0212_3055
ENCODING 12373
SWIDTH 960 0
DWIDTH 40 0
BBX 40 40 0 -6
BITMAP
01C00F8000
01C0038000
01F803F000
01C0007000
01C0007C00
01C0001E00
01C0000600
07C0000600
0700000000
0700180000
07001F8000
0700180000
0F00180000
0F00180000
0F00180000
0F00180000
0F00180000
3F00180080
2700180080
27021800E0
E702180030
8702180030
870218003C
070218001C
070E18001C
070E18001F
070E180007
073E180207
0738180207
0738180207
07F8180204
0720180200
0720180600
0700180600
0700180600
07001FFF80
07000FFE00
07000FFE00
0700000000
0700000000
ENDCHAR

STARTCHAR jisx0212_3056
ENCODING 12374
SWIDTH 960 0
DWIDTH 40 0
BBX 40 40 0 -6
BITMAP
01E0000600
01C0000600
01CFFFFF80
01C0700780
01C0700780
01C0700600
01C0700600
07C0700600
0700700600
0700700600
0700701E00
0700701C00
0F00701C00
0F00701C00
0F00701CE0
0F007FFFF0
0F007200F0
3F01F200F0
2701C200E0
2701C200E0
E701C203E0
8701C20380
8701C38380
0701C08380
0701C08780
070300C600
0703004600
0703007E00
0703007C00
0703007C00
070E00FE00
070E008600
070E038780
0708020380
07381E03F0
07207800FF
070040003C
07C3C0003C
0702000010
070E000010
ENDCHAR

STARTCHAR jisx0212_3057
ENCODING 12375
SWIDTH 960 0
DWIDTH 40 0
BBX 40 40 0 -6
BITMAP
01E2000010
01C2000010
01C300003C
01C300003C
01C3FFFFFF
01C3000000
01C3000000
07C3000000
0703000000
0703000000
0703080080
0703080080
0F030E03E0
0F030E03E0
0F030FFFF0
0F030E00F0
0F030E00E0
3F030E00E0
27030E00E0
27030E00E0
E7030E00E0
87030E00E0
87030E00E0
07030E00E0
07030E00E0
07030E1FE0
07030E0380
070F0E0380
070E0E0200
070E0E0204
070E0E0004
070E0E0004
070E0E001C
07080E001C
07380E001C
07380FFFFF
072003FFFC
072003FFFC
0700000000
07C0000000
ENDCHAR

STARTCHAR jisx0212_3058
ENCODING 12376
SWIDTH 960 0
DWIDTH 40 0
BBX 40 40 0 -6
BITMAP
01C0000020
01C0000020
01F84003F0
01C04003F0
01C0707FFC
01C07FFC00
01C0700000
07C0700000
0700700000
0700700000
0700700000
0700700000
0F00700010
0F00700010
0F0070003C
0F007FFFFF
0F00700380
3F00700380
2700700380
2700700380
E700700380
8700700380
8700700380
0700700380
0700700380
0700700380
0700700380
0701F00380
0701C00380
0701C00380
0701C00380
0701C00380
0701C00380
0701000380
0703000380
0703000380
0702000380
070E000380
0708000380
0738000380
ENDCHAR

STARTCHAR jisx0212_3059
ENCODING 12377
SWIDTH 960 0
DWIDTH 40 0
BBX 40 40 0 -6
BITMAP
01C0038000
01C0038000
01F803F000
01C0038000
01C0038000
01C0038000
01C0038000
07C0038020
0700038020
07000380F0
070FFFFFFC
0700038000
0F00038000
0F00038000
0F00038000
0F00038000
0F00038000
3F00038010
2700038010
270003803C
E73FFFFFFF
8700038000
8700038000
0700038000
07000FC000
07000E4000
07000E4000
07000E7000
0700081000
0700181C00
0700181E00
0700100600
0700700780
0700400380
0701C003F0
07030000FF
070200003C
073E00003C
0720000010
07E0000010
ENDCHAR

STARTCHAR jisx0212_305A
ENCODING 12378
SWIDTH 960 0
DWIDTH 40 0
BBX 40 40 0 -6
BITMAP
01C0180000
01C0180000
01F81F8000
01C0180000
01C0180000
01C0180010
01C0180010
07C018003C
070018003C
073FFFFFFF
0700180000
0700180000
0F00180000
0F00180000
0F00180000
0F00180380
0F00180380
3F001FFFE0
27001803E0
27007803F0
E7007E0380
8700720380
8700720380
0700720380
0700738780
0701F08600
0701C08600
0701C0FE00
0701C07C00
0701C07C00
0703007C00
0703007C00
070300FE00
0702008600
070E0387E0
07381E03FC
07201000FC
07E1F000FF
0701000010
070F000010
ENDCHAR

STARTCHAR jisx0212_305B
ENCODING 12379
SWIDTH 960 0
DWIDTH 40 0
BBX 40 40 0 -6
BITMAP
0000700000
0000700000
00007E0000
0000780000
0001F80000
0003CE0000
0003020000
0003038000
0002008000
000E00C000
0038007C00
0020001C00
0060001F80
0040000780
01C00007F0
0F000003FF
080000003C
383800C03C
203800C010
E03F00FC10
003800C000
003800C000
003800C000
003800C000
003800C000
007800F000
007800F000
007E03F000
0062039000
0063039C00
01C1C38600
01C1C20600
01C1CE0780
01010E0380
07010E03E0
0C001800FC
080010003C
3801F0003F
2001000010
E00F000010
ENDCHAR

STARTCHAR jisx0212_305C
ENCODING 12380
SWIDTH 960 0
DWIDTH 40 0
BBX 40 40 0 -6
BITMAP
01C0038000
01C0038000
01F803F000
01C0038000
01C0038000
01C0038000
01C0038000
07C0038000
0700038000
0700038030
070103803F
0701038030
0F010380F0
0F010380E0
0F010380E0
0F03038380
0F03038200
3F03038600
2703038400
270F039C00
E70E0FC000
870E0E4000
870E0E4000
07000E4000
07000E4000
07001E7000
0700181000
0700181000
0700181000
0700781C00
0700700600
0700400600
0701C00780
0701000380
07030003F0
070E0000FF
070800003C
073800003C
0700000010
07C0000010
ENDCHAR

STARTCHAR jisx0212_305D
ENCODING 12381
SWIDTH 960 0
DWIDTH 40 0
BBX 40 40 0 -6
BITMAP
01C1C00000
01C1C00000
01F9F80000
01C1C00000
01C1C00030
01C1C3FFFC
01C1C0403C
07C1C0403C
0701004030
07030E4030
073FFFC030
07030E4030
0F030E4030
0F030E4030
0F030E7030
0F030E1030
0F030E1030
3F0F0E10F0
270E0E10E0
270E0E10E0
E70E1E1CE0
870E1804E0
870E1804E0
070E1804E0
070E1807E0
073F180380
0738100380
0738700780
0738700780
07387807E0
0701CE1CE0
0701CE10E0
0701CE70F0
0701004030
070300C03C
070E03803F
070802001C
07381E001C
0720100004
0720700004
ENDCHAR

STARTCHAR jisx0212_305E
ENCODING 12382
SWIDTH 960 0
DWIDTH 40 0
BBX 40 40 0 -6
BITMAP
01C003F000
01C003C000
01F803C000
01C003C000
01C00FF000
01C00E1000
01C00E1000
07C01E1C00
0700180400
0700780600
0700700780
0700400380
0F01C003E0
0F010000E0
0F030080FC
0F0E00F03F
0F0800C01C
3F3800C01C
272000C004
27E100C004
E701F0C200
8701C0C200
8701C0C380
0701C0C080
0701C0C0E0
0703C0C030
070300C030
070300C03C
070300C01C
070300C01C
070E00C01F
070E00C01F
070E00C01F
070800C004
073800C004
07207FC000
07000F8000
07000F8000
0700020000
0700020000
ENDCHAR

STARTCHAR jisx0212_305F
ENCODING 12383
SWIDTH 960 0
DWIDTH 40 0
BBX 40 40 0 -6
BITMAP
01C0700000
01C0700000
01F87E0000
01C0700000
01C0700000
01C1F00000
01C1C00000
07C1C0001C
0701C0001C
0701FFFFFF
070300C01F
070300C010
0F0300C030
0F0200C020
0F0E00C020
0F0E00C080
0F0800C000
3F39C0C000
2721C0C000
2721F8C200
E701C0C380
8701C0C080
8701C0C0E0
0701C0C020
0703C0C030
070300C03C
070300C01C
070300C01C
070200C01C
070E00C01F
070E00C01F
070800C004
073800C004
072000C000
072000C000
0701FFC000
07000F8000
07000F8000
0700020000
0700020000
ENDCHAR

STARTCHAR jisx0212_3060
ENCODING 12384
SWIDTH 960 0
DWIDTH 40 0
BBX 40 40 0 -6
BITMAP
01E0020200
01C0020200
01C203C3E0
01C2038380
01C3C38380
01C3038380
01C3038380
07C3038380
0703038380
0703038380
0703038384
0703038384
0F0303839F
0F0303839F
0F3FFFFFFF
0F03038380
0F03038380
3F03038380
2703038380
2703038380
E703038380
8703038380
8703038380
0703038380
0703038380
0703038380
0703038380
070303FF80
0703038380
0703038380
0703038380
0703000000
0703000000
0703000000
0703000004
070300001F
070300001F
0703FFFFFF
0703000000
0703000000
ENDCHAR

STARTCHAR jisx0212_3061
ENCODING 12385
SWIDTH 960 0
DWIDTH 40 0
BBX 40 40 0 -6
BITMAP
0100000000
0100000000
01E2000010
01C2000010
01C300003C
01C3FFFFFF
01C30E1C1F
07C30E1C1F
07030E1C1C
07030E1C1C
07030E1C1C
07030E1C1C
0F030E1C1C
0F030E1C1C
0F030E1C1C
0F030E1C1C
0F030E1C1C
3F030E1C1C
27030E1C1C
27030E1C1C
E7030E1C1C
87030E1C1C
87030E1C1C
0703081C1C
0703181FFC
07031807FC
070310001C
0703F0001C
0703C0001C
0703C0001C
070300001C
070300001C
070300001C
070300001C
070300001C
0703FFFFFC
070300001C
070300001C
070300001C
070300001C
ENDCHAR

STARTCHAR jisx0212_3062
ENCODING 12386
SWIDTH 960 0
DWIDTH 40 0
BBX 40 40 0 -6
BITMAP
01C000C000
01C000C000
01F800FC00
01C000C000
01C000C000
01C000C000
01C000C000
07C000C000
070000C000
070200C010
070300C03C
070300C03C
0F03FFFFFF
0F0300C01F
0F0300C01F
0F0300C01C
0F0300C01C
3F0300C01C
270300C01C
270300C01C
E70300C01C
870300C01C
870300C01C
070300C01C
0703FFFFFC
070300C01C
070300C01C
070300C01C
070300C01C
070300C01C
070300C01C
070300C01C
070300C01C
070300C01C
070300C01C
0703FFFFFC
070300001C
070300001C
070300001C
070300001C
ENDCHAR

STARTCHAR jisx0212_3063
ENCODING 12387
SWIDTH 960 0
DWIDTH 40 0
BBX 40 40 0 -6
BITMAP
01C1000080
01C1000080
01F9C003E0
01C1C003E0
01C1FFFFF0
01C1C000F0
01C1C000E0
07C1C000E0
0701C000E0
0701C000E0
0701C000E0
0701C000E0
0F01C000E0
0F01C000E0
0F01FFFFE0
0F01C000E0
0F01C000E0
3F01C000E0
2701C000E0
2701C000E0
E701C000E0
8701C000E0
8701C000E0
0701C000E0
0701C000E0
0701FFFFE0
0701C000E0
0701C000E0
0701C000E0
0701C000E0
0701C000E0
0701C000E0
0701C000E0
0701C000E0
0701C000E0
0701C000E7
0701C000E7
073FFFFFFF
0700000000
0700000000
ENDCHAR

STARTCHAR jisx0212_3064
ENCODING 12388
SWIDTH 960 0
DWIDTH 40 0
BBX 40 40 0 -6
BITMAP
01C0000020
01C0000020
01F80000F0
01C00000F0
01C3FFFFFC
01C000C000
01C000C000
07C1C0C200
0701C0C200
0701F8C380
0701C0C0E0
0701C0C0E0
0F01C0C0F0
0F01C0C030
0F01C0C03C
0F0300C03C
0F0300C01C
3F0300C01C
270200C010
270200C010
E70E00C000
870800C000
870800C010
070000C010
070000C03C
073FFFFFFF
070000C000
070000C000
070000C000
070000C000
070000C000
070000C000
070000C000
070000C000
070000C000
070000C000
070000C000
070000C000
070000C000
070000C000
ENDCHAR

STARTCHAR jisx0212_3065
ENCODING 12389
SWIDTH 960 0
DWIDTH 40 0
BBX 40 40 0 -6
BITMAP
01E0000010
01C0000010
01C000003C
01C000003C
01CFFFFFFF
01C000C000
01C000C000
07C000FC00
070000C000
070003C000
0700038000
0700038000
0F000FF000
0F000FC000
0F000FC000
0F001FC600
0F0018C200
3F0078C3E0
270070C0E0
270070C0F0
E701C0C03C
870100C01C
870300C01F
070200C01F
070E00C01F
073800C004
070000C000
070000C000
070000C000
070000C000
070000C000
070000C000
070000C000
070000C000
070000C010
070000003C
070000003C
073FFFFFFF
0700000000
0700000000
ENDCHAR

STARTCHAR jisx0212_3066
ENCODING 12390
SWIDTH 960 0
DWIDTH 40 0
BBX 40 40 0 -6
BITMAP
01C1000020
01C1000020
01F9C000F0
01C1C000F0
01C1FFFFFC
01C1C0003C
01C1C00030
07C1C00030
0701C00030
0701C00030
0701C00030
0701C00030
0F01C00030
0F01C00030
0F01FFFFF0
0F01C00030
0F01C00030
3F01C00030
2701C00000
2701C00000
E701C00010
8701C00010
8701C0003C
0701C0003C
0701FFFFFF
0701C0001F
0701C0001C
0701C0001C
0701C0001C
0701C0001C
0701C0001C
0701C0001C
0701C0001C
0701C0001C
0701C0001C
0701FFFFFC
0701C0001C
0701C0001C
0701C0001C
0701C0001C
ENDCHAR

STARTCHAR jisx0212_3067
ENCODING 12391
SWIDTH 960 0
DWIDTH 40 0
BBX 40 40 0 -6
BITMAP
01E0000010
01C0000010
01C000003C
01C000003C
01CFFFFFFF
01C000C000
01C000C000
07C000C000
070000C000
070000C000
070000C000
070000C000
0F0000C000
0F0000C000
0F0100C000
0F01F0C020
0F01C0C020
3F01C0C0F0
2701C0C0F0
2701C0FFFC
E701C0C000
8701C0C000
8701C0C000
0701C0C000
0701C0C000
0701C0C000
0701C0C000
0701C0C000
0701C0C000
0701C0C000
0701C0C000
0701C0C000
0701C0C000
0701C0C000
0701C0C010
0701C0C03C
0701C0C03C
073FFFFFFF
0700000000
0700000000
ENDCHAR

STARTCHAR jisx0212_3068
ENCODING 12392
SWIDTH 960 0
DWIDTH 40 0
BBX 40 40 0 -6
BITMAP
01C00E0000
01C00E0000
01F80FC000
01C00E0000
01C00E0000
01C01E0010
01C0180010
07C018003C
070018003C
073FFFFFFF
0700780000
0700700000
0F00708000
0F00708000
0F01F0F000
0F01C0C020
0F01C0C020
3F03C0C0F0
2703C0C0F0
2703FFFFFC
E70FC0C03C
8709C0C030
8739C0C030
0721C0C030
07E1C0C030
07C1C0C030
0701C0C030
0701C0C030
0701C0C030
0701C0C030
0701C0C030
0701C0C030
0701C0C7F0
0701C0C0E0
0701C0C0E0
0701C0C080
070000C000
070000C000
070000C000
070000C000
ENDCHAR

STARTCHAR jisx0212_3069
ENCODING 12393
SWIDTH 960 0
DWIDTH 40 0
BBX 40 40 0 -6
BITMAP
01C0038000
01C0038000
01F803F000
01C0038000
01C0038000
01C0038020
01C0038020
07C00380F0
07000380F0
070FFFFFFC
0700038000
0700038000
0F00038000
0F00038000
0F00038000
0F00038010
0F00038010
3F0003803C
270003803C
273FFFFFFF
E7000E0000
87000E0000
87000FC000
07000E0000
07001E0000
0700180600
0700180200
0700180380
0700100080
07007000E0
07007000F0
0700400030
0701C0003C
070100003C
0701007FFC
073FFFF01F
070FF0001F
070FF0001F
0708000004
0708000004
ENDCHAR

STARTCHAR jisx0212_306A
ENCODING 12394
SWIDTH 960 0
DWIDTH 40 0
BBX 40 40 0 -6
BITMAP
01C0000010
01C0000010
01F800003C
01C000003C
01C3FFFFFF
01C00E001F
01C00E001C
07C00E001C
07000E001C
07000E001C
07000E001C
07000E001C
0F001E001C
0F0018001C
0F0018003C
0F00780030
0F00700030
3F01F07FF0
2701C003E0
2703C003E0
E70F000200
8709000000
873900001C
070100001C
0701FFFFFF
0701C0001F
0701C0001C
0701C0001C
0701C0001C
0701C0001C
0701C0001C
0701C0001C
0701C0001C
0701C0001C
0701C0001C
0701FFFFFC
0701C0001C
0701C0001C
0701C0001C
0701C0001C
ENDCHAR

STARTCHAR jisx0212_306B
ENCODING 12395
SWIDTH 960 0
DWIDTH 40 0
BBX 40 40 0 -6
BITMAP
01C0180600
01C0180600
01F81F87E0
01C0180600
01C0180600
01C0180600
01C0180600
07C0180600
0700180600
0700180604
070818061F
070818061C
0F0F18061C
0F0E180610
0F0E18C630
0F0E1FFFE0
0F0E180780
3F0E180780
270E180600
270E180600
E70E180600
870E180600
870E180600
070E180600
070E180600
070E180600
070E180600
070E180600
070E180600
070E180604
070E180604
070E180604
070E18C61C
070E18061C
070E1E061C
073FF007FF
070F0003FC
070F0003FC
0708000000
0708000000
ENDCHAR

STARTCHAR jisx0212_306C
ENCODING 12396
SWIDTH 960 0
DWIDTH 40 0
BBX 40 40 0 -6
BITMAP
01C0038000
01C0038000
01F803F000
01C0038000
01C0038000
01C2038080
01C2038080
07C30383E0
07030383E0
0703FFFFF0
07030380F0
07030380E0
0F030380E0
0F030380E0
0F030380E0
0F030380E0
0F030380E0
3F030380E0
27030380E0
27030380E0
E7030380E0
87030380E0
87030380E7
07030380E7
073FFFFFFF
07000E4000
07000E4000
07000E7000
0700081000
0700181C00
0700181E00
0700100600
0700700780
0700400380
0701C003F0
07030000FF
070200003C
073E00003C
0720000010
07E0000010
ENDCHAR

STARTCHAR jisx0212_306D
ENCODING 12397
SWIDTH 960 0
DWIDTH 40 0
BBX 40 40 0 -6
BITMAP
006000C000
006000C000
007E00FC00
006000C000
006000C000
01E000C000
01C000C000
01C000C010
01C000C010
01C000C03C
07C000FFFF
070000C000
070000C000
070000C000
0F0000C000
0F0000C000
0F0000C000
3F0000C000
3F0000C000
3F0200C020
E70300C0F0
870300C0F0
8703FFFFFC
070300003C
070300003C
0703000030
0703000030
0703000030
0703000030
0703000030
0703000030
0703000030
0703000030
0703000030
0703000030
0703FFFFF0
0703000030
0703000030
0703000030
0703000030
ENDCHAR

STARTCHAR jisx0212_306E
ENCODING 12398
SWIDTH 960 0
DWIDTH 40 0
BBX 40 40 0 -6
BITMAP
01C0700000
01C0100000
01F81E0000
01C00E0000
01C00F8000
01C003C380
01C000C380
07C000C3F0
0700000380
0700100380
07001E0780
0700180600
0F00180600
0F00180600
0F00181E00
0F00181C00
0F00181C00
3F02187C80
2702187080
27021870E0
E70218F030
870218C030
870E18C03C
070E18801C
070E1F801C
073E1F801F
07381E0007
07381E0007
0738180007
0738180087
0700780084
0700780080
0701F80380
0701180380
0703180380
070E1FFFE0
07080FFF80
07380FFF80
0700000000
07C0000000
ENDCHAR

STARTCHAR jisx0212_306F
ENCODING 12399
SWIDTH 960 0
DWIDTH 40 0
BBX 40 40 0 -6
BITMAP
00007E0000
0000780000
0000780000
0000700000
0001F20000
0003C38000
0003008000
000F00C000
000E004000
003E007C00
0078001F80
0060000780
01E00007F0
01000003F0
07000073FF
3C7FFFFC3C
2000000010
E000000010
0000000000
0000000020
00000000F0
00000000F0
3FFFFFFFFC
0000180000
0000180000
0060187000
0060181000
007E181C00
0060180400
01E0180780
01C01803E0
01001800E0
07001800F0
0400180030
0C0018003C
383FF8003C
2001F00010
E001F00010
0000400000
0000400000
ENDCHAR

STARTCHAR jisx0212_3070
ENCODING 12400
SWIDTH 960 0
DWIDTH 40 0
BBX 40 40 0 -6
BITMAP
01C00E0000
01C00E0000
01F80FC000
01C00E0000
01C00E0000
01C0180380
01C0180380
07C01FFFE0
07001003E0
07007003F0
0700780780
0700480600
0F01C80600
0F01080600
0F030E1E00
0F0E03FC00
0F0800F000
3F3800F000
270000F000
270003FC00
E7000F9F80
8700080780
87007807F0
07007000F0
0701F000FF
070F0FC03C
070800C004
073800FC04
0700001C00
0700001C00
0700000000
0700000000
07000003F0
0700000380
070000FF80
0701FFF000
07007E0000
07007E0000
0700400000
0700400000
ENDCHAR

STARTCHAR jisx0212_3071
ENCODING 12401
SWIDTH 960 0
DWIDTH 40 0
BBX 40 40 0 -6
BITMAP
01E2000010
01C2000010
01C300003C
01C300003C
01C3FFFFFF
01C300C01F
01C300C01C
07C300C01C
070300C01C
070300C01C
070300C01C
070300C01C
0F0300C01C
0F0300C01C
0F03FFFFFC
0F0300C01C
0F0300C01C
3F0300C01C
270300C01C
270300C01C
E70300C01C
870300C01C
870300C01C
070300C01C
0703FFFFFC
070300C01C
070300C01C
070300C01C
070300C01C
070F00C01C
070E00C01C
070E00C01C
070E00C01C
070800C01C
070800C01C
073800C3FC
072000C030
072000C030
0700000020
07C0000020
ENDCHAR

STARTCHAR jisx0212_3072
ENCODING 12402
SWIDTH 960 0
DWIDTH 40 0
BBX 40 40 0 -6
BITMAP
01E2000010
01C2000010
01C300003C
01C300003C
01C3FFFFFF
01C300001F
01C300001C
07C300001C
070300001C
070300001C
070308061C
070308061C
0F030FFF9C
0F030E061C
0F030E061C
0F030E061C
0F030E061C
3F030E061C
27030E061C
27030E061C
E7030E061C
87030E061C
87030E061C
07030E061C
07030E061C
07030E061C
07030E061C
07030FFE1C
07030E061C
07030E061C
07030E001C
070300001C
070300001C
070300001C
070300001C
0703FFFFFC
070300001C
070300001C
070300001C
070300001C
ENDCHAR

STARTCHAR jisx0212_3073
ENCODING 12403
SWIDTH 960 0
DWIDTH 40 0
BBX 40 40 0 -6
BITMAP
01C00E0000
01C00E0000
01F80FC000
01C00E0000
01C00E0030
01C00E1C3F
01C00E1C30
07CFFFFFF0
07000E00E0
07000E00E0
07000E0380
07000E0200
0F000E0604
0F000E0404
0F000E1C1F
0FFFFFFFFF
0F0000C000
3F0000C000
2700008000
2700138000
E7001E0080
8700180080
87001803F0
07001803E0
0701F807E0
0703187E00
0702184000
073E1FC000
0720180000
07E0180004
0700180004
0700180004
070018001C
0700180010
0700180010
070018003C
070018003C
07001FFFFF
07000FFFFC
07000FFFFC
ENDCHAR

STARTCHAR jisx0212_3074
ENCODING 12404
SWIDTH 960 0
DWIDTH 40 0
BBX 40 40 0 -6
BITMAP
01C003F000
01C003C000
01F803C000
01C003C000
01C00FF000
01C00E1000
01C00E1000
07C01E1C00
0700180400
0700780600
0700700780
0700400380
0F01C003E0
0F010000E0
0F030000FC
0F0E00063F
0F0800061C
3F39FFFF9C
2720000004
27E0000004
E700000000
8700000000
8702000080
0702000080
07030003E0
0703FFFFF0
07030000F0
07030000F0
07030000E0
07030000E0
07030000E0
07030000E0
07030000E0
07030000E0
07030000E0
07030000E0
07030000E0
0703FFFFE0
07030000E0
07030000E0
ENDCHAR

STARTCHAR jisx0212_3075
ENCODING 12405
SWIDTH 960 0
DWIDTH 40 0
BBX 40 40 0 -6
BITMAP
00007E0000
0000780000
0000780000
0000700000
0001F20000
0003C38000
0003008000
000F00C000
000E004000
003E007C00
0078001F80
0060000780
01E00007F0
01000003F0
070000C3FF
3C3FFFF03C
2000000010
E000000010
0000000000
0000000080
00000003E0
00000003E0
0FFFFFFFF0
0000180000
0000180000
0040180200
0040180200
0078180780
0060180780
00601FFFE0
0060180000
0060180000
0060180000
0060180000
0060180010
006018003C
006018003C
FFFFFFFFFF
0000000000
0000000000
ENDCHAR

STARTCHAR jisx0212_3076
ENCODING 12406
SWIDTH 960 0
DWIDTH 40 0
BBX 40 40 0 -6
BITMAP
01C1000080
01C1000080
01F9C003E0
01C1C003E0
01C1FFFFF0
01C1C000F0
01C1C000E0
07C1C000E0
0701C000E0
0701C000E0
0701FFFFE0
0701C000E0
0F01C000E0
0F01C000E0
0F01C000E0
0F01C000E0
0F01C000E0
3F01C000E0
2701C000E0
2701FFFFE0
E701C080F0
8701C08010
8701C0801F
0701C0801C
0701C0C03C
0701C040F0
0701C04080
0701C07380
0701C01000
0701C01C00
0701C01E00
0701C00600
0701C3C780
0701C20380
0701FE03F0
073FF000FF
070F00003C
070F00003C
0708000010
0708000010
ENDCHAR

STARTCHAR jisx0212_3077
ENCODING 12407
SWIDTH 960 0
DWIDTH 40 0
BBX 40 40 0 -6
BITMAP
01C0000380
01C0000380
01F8007FF0
01C0007E00
01C01FFE00
01CFF8C000
01C000C000
07C000C000
070000C000
070000C000
070000C010
070000C010
0F0000C03C
0F0000C03C
0F3FFFFFFF
0F0000C000
0F0000C000
3F0000C000
270000C000
270000C000
E70200C020
870200C020
870300C0F0
070300C0F0
0703FFFFFC
070300003C
0703000030
0703000030
0703000030
0703000030
0703000030
0703000030
0703000030
0703000030
0703000030
0703FFFFF0
0703000030
0703000030
0703000030
0703000030
ENDCHAR

STARTCHAR jisx0212_3078
ENCODING 12408
SWIDTH 960 0
DWIDTH 40 0
BBX 40 40 0 -6
BITMAP
01C0780000
01C0700000
01F8700000
01C0700000
01C0701C00
01C1FFFE00
01C1C01C00
07C1C01C00
0701001000
0703007010
070300C03C
070300C03C
0F0FFFFFFF
0F0F000000
0F3F000000
0FE3000000
0F03000000
3F030800E0
27030800E0
27030FFFF0
E7030E00E0
87030E00E0
87030E00E0
07030E00E0
07030E00E0
07030E00E0
07030E00E0
070F0E1FE0
070E0E0380
070E0E0384
070E0E0204
070E0E0004
070E0E001C
07080E001C
07380E001C
07380FFFFF
072003FFFC
072003FFFC
0700000000
07C0000000
ENDCHAR

STARTCHAR jisx0212_3079
ENCODING 12409
SWIDTH 960 0
DWIDTH 40 0
BBX 40 40 0 -6
BITMAP
0078038000
0060038000
0063FFC000
00600F8000
00600F8000
01E01E4000
01C0184000
01C0187000
01C0181000
01C0781C00
07C1F00780
0701C00380
0701C003E0
07010000E0
0F030000FC
0F0E00003F
0F0800001C
3F3800039C
3F20000384
3FE3FFFFE4
E700038000
8700038000
8700038000
0700038000
0700038000
07000380E0
07000380E0
0703FFFFF0
0700038000
0700038000
0700038000
0700038000
0700038000
0700038000
0700038010
070003803C
070003803C
073FFFFFFF
0700000000
0700000000
ENDCHAR

STARTCHAR jisx0212_307A
ENCODING 12410
SWIDTH 960 0
DWIDTH 40 0
BBX 40 40 0 -6
BITMAP
01C000C000
01C000C000
01F800FC00
01C000C000
01C000C000
01C000C000
01C0008000
07C1C38000
0701C38000
073FF3801C
070003FFFF
070002701F
0F000E701F
0F000E701C
0F000E701C
0F00187030
0F00107030
3F00107030
2700007020
27004070E0
E700007080
8700007000
8700187C00
0700107C00
0703F0FC00
07FF00C600
073800C600
073800C600
0720008200
0720038380
07000383E0
07000200E0
07000E00F0
07000800F0
07001800FC
070070003F
070040001C
0703C0001C
0702000004
070E000004
ENDCHAR

STARTCHAR jisx0212_307B
ENCODING 12411
SWIDTH 960 0
DWIDTH 40 0
BBX 40 40 0 -6
BITMAP
01C0000600
01C0000600
01F87FFF80
01C0000400
01C0000400
01C0400600
01C0400200
07C0780200
0700700200
0701F00380
0701C000E0
07010000E0
0F030000F0
0F030000F0
0F0F0003FF
0F39FFFF9C
0F21C00384
3FE1C00384
2701C00380
2701C00380
E701C00380
8701C00380
8701FFFF80
0701C00380
0701C00380
0701C00380
0701C00380
0701C00380
0701C00380
0701FFFF80
0701C00380
0701000380
0703000380
0703000380
0703000380
070E00FF80
0708000600
0738000600
0720000400
07E0000400
ENDCHAR

STARTCHAR jisx0212_307C
ENCODING 12412
SWIDTH 960 0
DWIDTH 40 0
BBX 40 40 0 -6
BITMAP
01C000C000
01C000C000
01F900FC00
01C100C000
01C1F0C000
01C1C0C020
01C1C0C020
07C1C0C0F0
0701C0C0F0
0703FFFFFC
070300C000
070300C000
0F0300C000
0F0200C000
0F0E00C000
0F0800C010
0F0000C010
3F0000C03C
270000C03C
273FFFFFFF
E700101000
8700101000
87001E1E00
0700181C00
0700181C00
0700181C00
0700181C00
0700181C00
0700181C00
0700181C04
0700701C04
0700701C04
0700701C1C
0700401C1C
0701C01C1C
0703001FFF
07020007FC
073E0007FC
0720000000
07E0000000
ENDCHAR

STARTCHAR jisx0212_307D
ENCODING 12413
SWIDTH 960 0
DWIDTH 40 0
BBX 40 40 0 -6
BITMAP
01C000C000
01C000C000
01F800FC00
01C000C000
01C000C010
01C200C03C
01C200C03C
07C3FFFFFF
0703000000
0703000000
0703000380
0703000380
0F03001FF0
0F03001E00
0F0303FE00
0F03FFC000
0F0300C000
3F0300C000
270300C000
270300C010
E70300C03C
870300C03C
870300FFFF
070300C000
0703FFC000
070300C000
070300C000
070300C000
070200C000
070E00C004
070E00C004
070800C004
070800C01C
070800C01C
073800C01C
072000FFFF
0700007FFC
07C0007FFC
0700000000
0700000000
ENDCHAR

STARTCHAR jisx0212_307E
ENCODING 12414
SWIDTH 960 0
DWIDTH 40 0
BBX 40 40 0 -6
BITMAP
01E0000010
01C0000010
01C000003C
01C000003C
01CFFFFFFF
01C003C000
01C0038000
07C0038000
0700020000
07000E0000
07000E0600
0700080200
0F001803E0
0F001000E0
0F001000F0
0F0FFFFFFC
0F03FE001C
3F03FE001C
2702000010
2702008010
E70000F000
870000C000
870000C020
070000C020
070000C0F0
0703FFFFFC
070000C000
070000C000
070000C000
070000C000
070000C000
070000C000
070000C000
070000C000
070000C004
070000C01F
070000C01F
073FFFFFFF
0700000000
0700000000
ENDCHAR

STARTCHAR jisx0212_3121
ENCODING 12577
SWIDTH 960 0
DWIDTH 40 0
BBX 40 40 0 -6
BITMAP
01C000C000
01C000C000
01F800FC00
01C000C000
01C000C004
01C000C01F
01C000C01F
07CFFFFFFF
070000F000
070000F000
070003C000
0700038000
0F00038000
0F00020000
0F030E0400
0F01F80780
0F00780600
3F00781E00
2700181C00
2700187C20
E70010F03C
870000C030
870003C0F0
07000380E0
07000F83E0
07001E0780
0700100600
0701F01E00
0701C01C00
0703C07C00
070E00F380
070000C080
070003C0F0
0700020030
07001E003C
070078001F
070040001F
0703C0001F
0702000004
070E000004
ENDCHAR

STARTCHAR jisx0212_3122
ENCODING 12578
SWIDTH 960 0
DWIDTH 40 0
BBX 40 40 0 -6
BITMAP
01C00E0000
01C00E0000
01F80FC000
01C00E0000
01C00E0010
01C00E003C
01C00E003C
07CFFFFFFF
0700181000
0700181000
0700701C00
0700700400
0F00700600
0F00400200
0F01C003E0
0F030070FC
0F0200703C
3F0E7FFC3F
2708000004
2738000004
E7000000E0
87000000E0
873FFFFFF0
0700700000
0700700000
07007000E0
07007000E0
0701FFFFF0
0701C000E0
0701C000E0
0703C000E0
07030000E0
07030003E0
0700000380
0700000380
070003FF80
0700001E00
0700001E00
0700001000
0700001000
ENDCHAR

STARTCHAR jisx0212_3123
ENCODING 12579
SWIDTH 960 0
DWIDTH 40 0
BBX 40 40 0 -6
BITMAP
01C0038000
01C0038000
01F803F000
01C0038000
01C00380E0
01C80380FC
01C80380E0
07CE0383E0
0702038380
0703038380
0703C38600
0701C38400
0F01C38400
0F01038000
0F01039010
0F0003803C
0F0003803C
3F3FFFFFFF
2700181C00
2700181C00
E700181C00
8700181C00
8700181C00
0700181C00
0700181C00
0700181C00
0700181C00
0700781C04
0700701C04
0700701C04
0701F01C04
0701C01C04
0701C01C1C
0701001C1C
0703001C1C
070E001FFF
07080007FC
07380007FC
0700000000
07C0000000
ENDCHAR

STARTCHAR jisx0212_3124
ENCODING 12580
SWIDTH 960 0
DWIDTH 40 0
BBX 40 40 0 -6
BITMAP
00007E0000
0000780000
0000780000
0000700000
0001F20000
0003C38000
0003008000
000F00C000
000E004000
003E007C00
0078039F80
0078038780
01FFFFC7F0
01000003F0
07000003FF
3C0000703C
2000007010
E1FFFFFC10
0000007000
0000007000
000000F000
000000C000
000000C380
000000C380
07FFFFFFE0
0000000010
0000000010
000000003C
000000003C
3FFFFFFFFF
0003C00000
0003000000
0003007000
0002001000
000E001E00
0FFFFFFFE0
07FFC000E0
07FFC000F0
0400000030
0400000030
ENDCHAR

STARTCHAR jisx0212_3125
ENCODING 12581
SWIDTH 960 0
DWIDTH 40 0
BBX 40 40 0 -6
BITMAP
01C000C000
01C000C000
01F800FC00
01C000C000
01C000C020
01C200C03C
01C200C030
07C300C0F0
070100C0E0
0701C0C0E0
0701F0C380
070070C200
0F0070C200
0F0040C000
0F0040C410
0F0000C03C
0F0000C03C
3F3FFFFFFF
270003F000
270003F000
E7000FF000
87000FC000
87000FC400
07000FC400
07001FC600
070078C380
070070C380
070070C3E0
070040C0E0
0701C0C0FC
070300C03F
070200C01C
070E00C01C
070800C004
073800C004
07C000C000
070000C000
070000C000
070000C000
070000C000
ENDCHAR

STARTCHAR jisx0212_3126
ENCODING 12582
SWIDTH 960 0
DWIDTH 40 0
BBX 40 40 0 -6
BITMAP
01C00E0000
01C00E0000
01F80FC000
01C00E0000
01C00E0000
01C00E0000
01C0080000
07C8180080
0708100080
070E1003E0
070FFFFFF0
070E1870F0
0F0E1870F0
0C0E1870E0
0C0E1870E0
0C0E1870E0
0C0E1870E0
3C0E1870E0
3C0E1870E0
3C0E1870E0
FC0E1870E0
8C0E1870E0
8C0E1870E0
0C0E1870E0
0C0E1870E0
0C0E1870E0
0C0E1870E0
0C0E1870E0
0C0E1870E0
0C0E1870E0
0C0E1870E0
0C0E1870E0
0C0E1870E0
0C0E1870E0
0C0E1870E0
0C0E1870E7
0C0E1870E7
0C7FFFFFFF
0C00000000
0C00000000
ENDCHAR

STARTCHAR jisx0212_3127
ENCODING 12583
SWIDTH 960 0
DWIDTH 40 0
BBX 40 40 0 -6
BITMAP
01C000C000
01C000C000
01F800FC00
01C000C000
01C000C000
01C200C01C
01C200C01C
07C3FFFFFF
070200001F
070E00001F
070E038030
070E038020
0F3E03F020
0F38038000
0F38038000
0F000F8010
0F000E0010
3F000E003C
27000E003C
273FFFFFFF
E700180380
8700180380
8700180380
0700180380
0700780780
0700700600
0700700600
0701FE0600
0701C20600
0701C3FE00
0701C07C00
0700007C00
070000FF80
070000C380
070003C3F0
07001F803C
070018001C
0703F8001F
0703000007
073F000007
ENDCHAR

STARTCHAR jisx0212_3128
ENCODING 12584
SWIDTH 960 0
DWIDTH 40 0
BBX 40 40 0 -6
BITMAP
01C003C000
01C0038000
01F8038000
01C0038000
01C00380E0
01C3FFFFF0
01C00380E0
07C00380E0
07000380E0
07000380E0
07000380E7
07000380E7
0F3FFFFFFF
0F000380E0
0F000380E0
0F000380E0
0F000380E0
3F000380E0
27000380E0
2703FFFFE0
E7000380E0
8700038000
8700038000
0700038000
0700038030
070FFFFFFC
0700038000
0700038000
0700038000
0700038010
070003803C
070003803C
073FFFFFFF
0700038000
0700038000
0700038000
0700038000
0700038000
0700038000
0700038000
ENDCHAR

STARTCHAR jisx0212_3129
ENCODING 12585
SWIDTH 960 0
DWIDTH 40 0
BBX 40 40 0 -6
BITMAP
01C0038000
01C0038000
01F803F000
01C0038000
01C00F8000
01C00E0600
01C0080200
07C01803E0
07001000E0
07001000F0
070FFFFFFC
0703FF801C
0F03FF801C
0F02408010
0F02408010
0F0078F000
0F0070C000
3F0070C020
270040C020
2701C0C0F0
E701FFFFFC
870100C000
870300C000
070200C000
070200C000
070800C010
070000C010
070000C03C
070000C03C
073FFFFFFF
070000C000
070000C000
070000C000
070000C000
070000C000
070000C000
070000C000
070000C000
070000C000
070000C000
ENDCHAR

STARTCHAR jisx0212_312A
ENCODING 12586
SWIDTH 960 0
DWIDTH 40 0
BBX 40 40 0 -6
BITMAP
01E2000010
01C2000010
01C300003C
01C300003C
01C3FFFFFF
01C300001F
01C300001C
07C300001C
070300001C
070300039C
07031FFFFC
070300001C
0F0300001C
0F0300001C
0F0300001C
0F0308061C
0F0308061C
3F030FFF9C
27030E061C
27030E061C
E7030E061C
87030E061C
87030E061C
07030E061C
07030E061C
07030E061C
07030E061C
07030FFE1C
07030E061C
07030E061C
07030E061C
070300001C
070300001C
070300001C
070300001C
07030007FC
0703000030
0703000030
0703000020
0703000020
ENDCHAR

STARTCHAR jisx0212_312B
ENCODING 12587
SWIDTH 960 0
DWIDTH 40 0
BBX 40 40 0 -6
BITMAP
01C0000780
01C0000600
01F8000630
01C0000610
01C000061C
01C000061C
01C0000600
07C0000600
0700000600
070000061C
073FFFFFFF
0700000600
0F00000600
0F00000600
0F00000600
0F00000600
0F00000600
3F00038600
2700038600
270FFFC600
E700700600
8700700600
8700700780
0700700380
0700700380
0700700380
0700700380
0700700380
0700700380
070070F3E1
07007F80E1
07007800E1
073FF800F1
070F000031
070F00003F
070800003C
070000001C
070000001F
0700000007
0700000007
ENDCHAR

ENDFONT
